<?xml version="1.0" encoding="utf-8"?>
<!-- Generator: Adobe Illustrator 27.5.0, SVG Export Plug-In . SVG Version: 6.00 Build 0)  -->
<svg version="1.1" xmlns="http://www.w3.org/2000/svg" xmlns:xlink="http://www.w3.org/1999/xlink" x="0px" y="0px"
	 viewBox="0 0 750 500" style="enable-background:new 0 0 750 500;" xml:space="preserve">
<g id="BACKGROUND">
	<rect y="0" style="fill-rule:evenodd;clip-rule:evenodd;fill:#FFFFFF;" width="750" height="500"/>
</g>
<g id="OBJECTS">
	<g>
		<g>
			<path style="fill-rule:evenodd;clip-rule:evenodd;fill:#E1A21F;" d="M318.118,52.755h113.764
				c16.139,0,29.343,13.204,29.343,29.342v113.764c0,16.138-13.204,29.342-29.343,29.342H318.118
				c-16.139,0-29.341-13.204-29.341-29.342V82.097C288.776,65.959,301.979,52.755,318.118,52.755z"/>
			<g>
				<path style="fill-rule:evenodd;clip-rule:evenodd;fill:#2E1E11;" d="M320.037,102.889c2.097,11.015,4.94,16.22,5.236,22.288
					c0.312,6.384-9.157,12.679-13.735,14.704c5.586,16.774,17.352,14.914,25.03,15.659c7.678,0.747,3.929,12.166,24.239,11.309
					l9.684-69.475L320.037,102.889L320.037,102.889z M381.886,104.465l7.322,62.384c20.31,0.857,16.56-10.562,24.238-11.309
					c7.678-0.745,19.444,1.115,25.03-15.659c-4.578-2.025-14.047-8.32-13.735-14.704c0.296-6.067,2.778-10.813,4.974-20.647
					l-11.978-4.873L381.886,104.465z"/>
				<path style="fill-rule:evenodd;clip-rule:evenodd;fill:#E4AE7C;" d="M335.926,111.454c-0.172-1.898-7.935-4.14-10.523,2.07
					c-2.588,6.21,2.07,15.008,10.868,15.698c8.797,0.69,6.21-0.862,6.21-0.862L335.926,111.454z"/>
				<path style="fill-rule:evenodd;clip-rule:evenodd;fill:#E4AE7C;" d="M414.262,111.454c0.173-1.898,7.935-4.14,10.522,2.07
					c2.587,6.21-2.07,15.008-10.868,15.698c-8.798,0.69-6.21-0.862-6.21-0.862L414.262,111.454z"/>
				<path style="fill-rule:evenodd;clip-rule:evenodd;fill:#E4AE7C;" d="M374.999,232.422h-70.984
					c-0.821-36.298,27.106-57.37,51.086-65.232c1.945-10.128,1.448-23.263,1.448-23.263h18.449h18.45c0,0-0.497,13.136,1.448,23.263
					c23.98,7.863,51.908,28.934,51.086,65.232H374.999z"/>
				<path style="fill-rule:evenodd;clip-rule:evenodd;fill:#D67F54;" d="M393.45,143.926c0,0-0.099,2.605-0.037,6.386
					c-7.008,17.607-28.767,19.588-36.84,0.732c0.089-4.174-0.022-7.118-0.022-7.118C368.841,143.926,381.158,143.926,393.45,143.926
					z"/>
				<path style="fill-rule:evenodd;clip-rule:evenodd;fill:#AF2A3A;" d="M448.404,232.422c0.839-35.847-27.315-56.84-51.899-64.93
					c-4.922,10.92-37.943,10.871-42.811-0.064c-24.632,8.042-52.939,29.052-52.098,64.995H448.404z"/>
				<path style="fill-rule:evenodd;clip-rule:evenodd;fill:#39271F;" d="M447.543,220.371c-1.206-7.04-3.599-13.389-6.849-19.067
					H309.305c-3.25,5.678-5.643,12.027-6.847,19.067H447.543z"/>
				<path style="fill-rule:evenodd;clip-rule:evenodd;fill:#39271F;" d="M424.07,182.236c-8.535-6.816-18.304-11.696-27.565-14.745
					c-4.922,10.92-37.943,10.871-42.811-0.064c-9.321,3.043-19.167,7.945-27.763,14.809H424.07z"/>
				<path style="fill-rule:evenodd;clip-rule:evenodd;fill:#E4AE7C;" d="M374.999,153.281c-45.773,1.1-68.883-111.777,0-108.885
					C443.884,41.504,420.773,154.38,374.999,153.281z"/>
				<path style="fill-rule:evenodd;clip-rule:evenodd;fill:#20201E;" d="M359.622,98.801c1.837,1.325,2.251,3.887,0.921,5.72
					c-1.328,1.834-3.896,2.246-5.733,0.92c-1.838-1.325-2.251-3.887-0.921-5.721C355.217,97.887,357.784,97.475,359.622,98.801z"/>
				<path style="fill-rule:evenodd;clip-rule:evenodd;fill:#20201E;" d="M390.634,98.801c-1.838,1.325-2.251,3.887-0.922,5.72
					c1.328,1.834,3.896,2.246,5.732,0.92c1.839-1.325,2.252-3.887,0.922-5.721C395.038,97.887,392.471,97.475,390.634,98.801z"/>
				<path style="fill-rule:evenodd;clip-rule:evenodd;fill:#DA9077;" d="M354.566,113.682c2.336,1.795,2.438,4.42,0.228,5.868
					c-2.21,1.446-5.896,1.165-8.233-0.628c-2.336-1.794-2.438-4.42-0.228-5.867C348.543,111.608,352.229,111.889,354.566,113.682z"
					/>
				<path style="fill-rule:evenodd;clip-rule:evenodd;fill:#DA9077;" d="M395.689,113.682c-2.336,1.795-2.438,4.42-0.228,5.868
					c2.21,1.446,5.897,1.165,8.232-0.628c2.337-1.794,2.438-4.42,0.229-5.867C401.712,111.608,398.026,111.889,395.689,113.682z"/>
				<path style="fill-rule:evenodd;clip-rule:evenodd;fill:#3F2716;" d="M361.414,87.668c-0.152-0.066-0.305-0.129-0.462-0.188
					c-1.788-0.645-3.305-0.82-5.237-0.681c-1.892,0.201-3.305,0.628-4.891,1.533c-0.741,0.478-3.63,2.817-2.811,3.679
					c0.334,0.092,3.213-1.378,4.058-1.652c1.316-0.388,2.383-0.538,3.776-0.509c1.299,0.059,2.277,0.248,3.46,0.705
					c0.033,0.005,0.246,0.102,0.292,0.122c2.415,1.173,2.196,1.928,3.842,0.799C365.978,90.127,363.368,88.684,361.414,87.668z"/>
				<path style="fill-rule:evenodd;clip-rule:evenodd;fill:#3F2716;" d="M388.587,87.668c0.151-0.066,0.305-0.129,0.461-0.188
					c1.788-0.645,3.306-0.82,5.237-0.681c1.893,0.201,3.306,0.628,4.892,1.533c0.74,0.478,3.63,2.817,2.811,3.679
					c-0.334,0.092-3.212-1.378-4.059-1.652c-1.315-0.388-2.382-0.538-3.775-0.509c-1.299,0.059-2.277,0.248-3.462,0.705
					c-0.031,0.005-0.245,0.102-0.291,0.122c-2.414,1.173-2.196,1.928-3.842,0.799C384.022,90.127,386.632,88.684,388.587,87.668z"/>
				<path style="fill-rule:evenodd;clip-rule:evenodd;fill:#FFFFFF;" d="M363.126,123.26c4.219-0.053,8.422-0.079,12.624-0.079
					c4.204,0,8.406,0.026,12.625,0.079c0,6.619-6.527,8.983-12.601,8.983l-0.023-0.001l-0.022,0.001
					C369.654,132.243,363.126,129.879,363.126,123.26z"/>
				<path style="fill-rule:evenodd;clip-rule:evenodd;fill:#D67F54;" d="M372.848,136.187c-0.235-0.138-0.314-0.442-0.176-0.677
					c0.138-0.235,0.442-0.314,0.677-0.176c0.683,0.4,1.551,0.6,2.422,0.6c0.868,0,1.722-0.199,2.376-0.596
					c0.233-0.141,0.537-0.067,0.679,0.167c0.142,0.233,0.066,0.538-0.167,0.678c-0.816,0.495-1.853,0.744-2.888,0.744
					C374.737,136.926,373.689,136.679,372.848,136.187z"/>
				<path style="fill-rule:evenodd;clip-rule:evenodd;fill:#D67F54;" d="M374.626,114.177c-0.274,0-0.497-0.223-0.497-0.496
					c0-0.274,0.223-0.497,0.497-0.497c1.191,0,2.614-0.011,3.713-0.197c0.902-0.153,1.567-0.398,1.567-0.81
					c0-1.427-1.446-10.302-1.45-10.328c-0.043-0.27,0.142-0.523,0.411-0.566c0.271-0.043,0.523,0.142,0.565,0.411
					c0.004,0.026,1.467,8.994,1.467,10.483c0,1.046-1.017,1.553-2.397,1.787C377.316,114.165,375.851,114.177,374.626,114.177z"/>
				<path style="fill-rule:evenodd;clip-rule:evenodd;fill:#D67F54;" d="M421.969,118.425c0,0.274-0.222,0.497-0.496,0.497
					c-0.273,0-0.496-0.222-0.496-0.497c0-1.506-0.261-2.455-0.68-2.97c-0.252-0.31-0.569-0.452-0.923-0.46
					c-0.406-0.01-0.87,0.143-1.352,0.416c-1.303,0.737-2.65,2.302-3.395,4.006c-0.358,0.821-0.669,1.664-0.846,2.302
					c0.762-0.53,1.603-0.741,2.312-0.67c0.404,0.041,0.771,0.171,1.069,0.386c0.315,0.227,0.549,0.541,0.667,0.935
					c0.203,0.68,0.046,1.595-0.685,2.686c-0.152,0.227-0.459,0.287-0.686,0.135c-0.227-0.152-0.288-0.459-0.136-0.687
					c0.546-0.813,0.682-1.435,0.558-1.852c-0.054-0.177-0.157-0.316-0.296-0.416c-0.154-0.111-0.357-0.181-0.588-0.204
					c-0.638-0.064-1.444,0.214-2.116,0.89c-0.18,0.181-0.349,0.283-0.504,0.317c-0.399,0.086-0.63-0.09-0.716-0.479l-0.007-0.027
					c-0.028-0.147-0.021-0.344,0.015-0.579c0.112-0.705,0.536-1.954,1.052-3.133c0.827-1.891,2.342-3.637,3.814-4.472
					c0.632-0.357,1.269-0.557,1.86-0.543c0.643,0.015,1.22,0.27,1.672,0.825C421.622,115.517,421.969,116.673,421.969,118.425z"/>
				<path style="fill-rule:evenodd;clip-rule:evenodd;fill:#D67F54;" d="M329.023,118.425c0,0.274-0.222,0.497-0.497,0.497
					c-0.273,0-0.497-0.222-0.497-0.497c0-1.752,0.348-2.908,0.905-3.594c0.451-0.555,1.027-0.81,1.671-0.825
					c0.591-0.013,1.227,0.186,1.859,0.543c1.473,0.835,2.987,2.582,3.814,4.472c0.516,1.18,0.94,2.428,1.052,3.133
					c0.038,0.235,0.045,0.432,0.014,0.579l-0.005,0.027c-0.087,0.39-0.318,0.565-0.716,0.479c-0.155-0.034-0.324-0.136-0.505-0.317
					c-0.671-0.676-1.478-0.955-2.116-0.89c-0.23,0.023-0.433,0.093-0.588,0.204c-0.138,0.1-0.242,0.239-0.294,0.416
					c-0.125,0.417,0.011,1.038,0.557,1.852c0.152,0.227,0.092,0.535-0.135,0.687c-0.227,0.152-0.535,0.092-0.687-0.135
					c-0.731-1.091-0.888-2.006-0.685-2.686c0.117-0.395,0.352-0.709,0.667-0.935c0.298-0.215,0.666-0.345,1.069-0.386
					c0.709-0.071,1.55,0.14,2.312,0.67c-0.178-0.637-0.487-1.481-0.847-2.302c-0.745-1.704-2.092-3.269-3.395-4.006
					c-0.481-0.273-0.945-0.426-1.351-0.416c-0.353,0.008-0.672,0.15-0.923,0.46C329.284,115.97,329.023,116.919,329.023,118.425z"/>
				<path style="fill-rule:evenodd;clip-rule:evenodd;fill:#27170C;" d="M323.236,211.877c0.003-0.409,0.338-0.739,0.748-0.736
					c0.409,0.003,0.739,0.338,0.735,0.747l-0.183,20.539c-0.003,0.41-0.338,0.739-0.747,0.736c-0.411-0.003-0.739-0.338-0.736-0.748
					L323.236,211.877z"/>
				<path style="fill-rule:evenodd;clip-rule:evenodd;fill:#27170C;" d="M425.463,211.877c0.003-0.409,0.338-0.739,0.747-0.736
					c0.409,0.003,0.739,0.338,0.736,0.747l-0.184,20.539c-0.003,0.41-0.338,0.739-0.746,0.736c-0.41-0.003-0.739-0.338-0.736-0.748
					L425.463,211.877z"/>
				<path style="fill-rule:evenodd;clip-rule:evenodd;fill:#7E583E;" d="M331.404,101.051c0.657,6.565,6.434,16.544,7.616,19.433
					c1.182,2.889,0.131-9.322,0.131-24.947S331.404,101.051,331.404,101.051z"/>
				<path style="fill-rule:evenodd;clip-rule:evenodd;fill:#7E583E;" d="M418.794,101.051c-0.656,6.565-6.434,16.544-7.615,19.433
					c-1.183,2.889-0.132-9.322-0.132-24.947S418.794,101.051,418.794,101.051z"/>
				<path style="fill-rule:evenodd;clip-rule:evenodd;fill:#4C3124;" d="M368.629,57.417c-5.496-0.003-10.715,10.312-11.182,18.928
					c-1.658,30.569-31.03,20.055-34.287,39.049c-1.191-3.545-4.18-15.494-4.499-16.993c-2.383-11.207,12.404-24.08,15.183-36.057
					c2.833-12.212,9.847-21.701,18.533-25.966c7.591-3.726,16.091-3.577,20.165,0.988c1.263,1.01,2.455,2.201,2.455,2.201
					s1.036-1.033,2.198-1.992c3.988-4.981,12.786-5.247,20.684-1.198c8.512,4.363,15.497,13.999,18.273,25.966
					c2.778,11.977,17.566,24.851,15.183,36.057c-0.318,1.5-3.308,13.448-4.498,16.993c-3.256-18.994-29.571-9.537-32.794-39.981
					c-1.118-10.564-5.945-15.731-10.617-16.609c-0.528-0.099-4.394-1.291-7.978,4.316C374.551,64.526,373.944,57.42,368.629,57.417z
					"/>
				<path style="fill-rule:evenodd;clip-rule:evenodd;fill:#4E2C0B;" d="M324.395,106.484c-0.154,0.226-0.462,0.283-0.688,0.129
					c-0.226-0.154-0.284-0.462-0.13-0.688c0.372-0.543,0.741-1.108,1.104-1.663c2.841-4.343,5.238-8.007,15.2-10.616
					c9.399-2.461,11.141-14.415,12.659-24.836c0.207-1.417,0.409-2.807,0.632-4.176c0.343-2.111,0.923-4.01,1.67-5.69
					c1.492-3.358,3.652-5.837,5.94-7.396c2.326-1.586,4.801-2.229,6.867-1.893c0.505,0.082,0.988,0.225,1.441,0.425l4.727,2.101
					c0.249,0.111,0.362,0.402,0.252,0.652c-0.11,0.25-0.402,0.362-0.652,0.252l-4.727-2.101c-0.372-0.165-0.774-0.283-1.201-0.352
					c-1.822-0.297-4.036,0.293-6.15,1.733c-2.151,1.466-4.185,3.804-5.595,6.977c-0.712,1.603-1.266,3.42-1.597,5.45
					c-0.213,1.314-0.418,2.722-0.627,4.157c-1.562,10.724-3.354,23.025-13.392,25.654c-9.588,2.511-11.89,6.03-14.619,10.202
					C325.16,105.343,324.8,105.892,324.395,106.484z"/>
				<path style="fill-rule:evenodd;clip-rule:evenodd;fill:#4E2C0B;" d="M323.665,93.026c-0.111,0.251-0.403,0.364-0.654,0.255
					c-0.25-0.111-0.364-0.404-0.253-0.654c1.113-2.519,2.523-4.242,4.284-5.502h-0.001c1.743-1.248,3.815-2.026,6.275-2.671
					c9.399-2.461,11.141-14.415,12.659-24.836c0.206-1.417,0.409-2.807,0.632-4.176c0.314-1.931,0.853-3.698,1.586-5.277
					c1.477-3.187,3.735-5.619,6.512-7.111c2.778-1.493,6.066-2.042,9.601-1.468c1.726,0.281,3.509,0.831,5.318,1.669
					c0.248,0.114,0.357,0.409,0.242,0.656c-0.115,0.249-0.409,0.357-0.657,0.242c-1.728-0.8-3.425-1.324-5.062-1.59
					c-3.313-0.54-6.386-0.028-8.974,1.363c-2.588,1.391-4.698,3.666-6.082,6.653c-0.695,1.501-1.209,3.183-1.508,5.022
					c-0.213,1.314-0.418,2.722-0.628,4.156c-1.562,10.724-3.355,23.026-13.392,25.654c-2.345,0.615-4.312,1.351-5.945,2.519h-0.002
					C326.002,89.087,324.701,90.682,323.665,93.026z"/>
				<path style="fill-rule:evenodd;clip-rule:evenodd;fill:#4E2C0B;" d="M428.124,105.925c0.154,0.226,0.096,0.534-0.13,0.688
					c-0.225,0.154-0.534,0.097-0.688-0.129c-0.404-0.592-0.763-1.141-1.115-1.679c-2.728-4.171-5.03-7.69-14.618-10.202
					c-10.037-2.628-11.83-14.93-13.393-25.654c-0.208-1.435-0.413-2.842-0.628-4.157c-0.33-2.03-0.883-3.848-1.596-5.45
					c-1.41-3.173-3.444-5.511-5.596-6.977c-2.113-1.44-4.327-2.03-6.149-1.733c-0.427,0.069-0.83,0.187-1.202,0.352l-4.727,2.101
					c-0.249,0.11-0.541-0.002-0.651-0.252c-0.11-0.25,0.003-0.541,0.252-0.652l4.727-2.101c0.454-0.201,0.938-0.343,1.442-0.425
					c2.066-0.336,4.54,0.308,6.867,1.893c2.288,1.559,4.448,4.038,5.941,7.396c0.747,1.681,1.326,3.579,1.67,5.69
					c0.223,1.37,0.426,2.759,0.632,4.176c1.518,10.421,3.26,22.374,12.659,24.836c9.963,2.609,12.359,6.273,15.2,10.616
					C427.383,104.816,427.753,105.381,428.124,105.925z"/>
				<path style="fill-rule:evenodd;clip-rule:evenodd;fill:#4E2C0B;" d="M428.944,92.627c0.109,0.25-0.004,0.543-0.254,0.654
					c-0.251,0.109-0.543-0.004-0.653-0.255c-1.036-2.343-2.338-3.938-3.954-5.096l-0.024-0.018
					c-1.627-1.157-3.587-1.889-5.921-2.501c-10.037-2.628-11.83-14.93-13.393-25.654c-0.209-1.435-0.414-2.842-0.628-4.156
					c-0.3-1.84-0.813-3.521-1.509-5.022c-1.384-2.987-3.493-5.262-6.082-6.653c-2.588-1.391-5.661-1.902-8.973-1.363
					c-1.637,0.266-3.334,0.79-5.061,1.59c-0.249,0.115-0.543,0.007-0.658-0.242c-0.114-0.247-0.005-0.542,0.243-0.656
					c1.809-0.838,3.592-1.388,5.317-1.669c3.535-0.575,6.824-0.025,9.601,1.468c2.777,1.492,5.036,3.924,6.514,7.111
					c0.731,1.579,1.272,3.347,1.586,5.277c0.223,1.37,0.425,2.759,0.631,4.176c1.518,10.421,3.261,22.375,12.66,24.836
					c2.445,0.641,4.508,1.414,6.245,2.651l0.03,0.02C426.42,88.383,427.83,90.106,428.944,92.627z"/>
			</g>
		</g>
		<g>
			<path style="fill-rule:evenodd;clip-rule:evenodd;fill:#9976AE;" d="M105.754,53.497h113.764
				c16.139,0,29.342,13.204,29.342,29.342v113.765c0,16.138-13.203,29.341-29.342,29.341H105.754
				c-16.138,0-29.342-13.204-29.342-29.341V82.838C76.413,66.701,89.617,53.497,105.754,53.497z"/>
			<g>
				<path style="fill-rule:evenodd;clip-rule:evenodd;fill:#39271F;" d="M163.512,174.644c6.499,20.797,19.142,32.501,41.374,38.104
					c-5.689-8.331-3.684-20.692,5.918-25.99c9.602-5.297,20.154-10.503,20.13-21.176c-0.037-16.646-12.682-14.748-5.372-25.53
					c7.311-10.783,7.841-29.03-5.399-37.83c-0.188-0.125-0.364-0.249-0.547-0.374c-2.489-2.393-4.263-3.004-1.434-7.775
					c18.649-31.45-37.844-62.183-54.254-36.735c-3.597-5.068-10.119-10.384-21.371-9.102c-6.996,0.796-24.887,8.087-32.836,21.152
					c-13.212,21.713,6.463,21.331-3.056,32.593c-0.976,0.795-1.971,1.678-2.759,2.755c-0.115,0.095-0.23,0.192-0.346,0.284
					c-12.458,9.797-9.409,24.249-2.098,35.032c7.31,10.782-6.869,10.94-7.119,24.971c-0.258,14.406,14.799,17.184,24.401,22.481
					c9.603,5.297,9.083,16.913,3.394,25.244C144.37,207.145,157.013,195.441,163.512,174.644z"/>
				<path style="fill-rule:evenodd;clip-rule:evenodd;fill:#E4AE7C;" d="M162.637,233.163h71.448
					c0-67.196-53.295-30.942-53.295-86.923h-18.153h-18.416c0,55.982-53.032,19.728-53.032,86.923H162.637z"/>
				<path style="fill-rule:evenodd;clip-rule:evenodd;fill:#E4AE7C;" d="M123.563,112.195c-0.172-1.897-7.936-4.14-10.523,2.07
					c-2.587,6.21,2.071,15.008,10.868,15.698c8.797,0.689,6.21-0.863,6.21-0.863L123.563,112.195z"/>
				<path style="fill-rule:evenodd;clip-rule:evenodd;fill:#E4AE7C;" d="M201.898,112.195c0.172-1.897,7.935-4.14,10.522,2.07
					c2.587,6.21-2.07,15.008-10.867,15.698c-8.798,0.689-6.211-0.863-6.211-0.863L201.898,112.195z"/>
				<path style="fill-rule:evenodd;clip-rule:evenodd;fill:#D67F54;" d="M181.086,144.668c0,0-0.098,2.605-0.036,6.386
					c-7.008,17.607-28.767,19.588-36.841,0.732c0.089-4.175-0.023-7.119-0.023-7.119
					C156.479,144.668,168.795,144.668,181.086,144.668z"/>
				<path style="fill-rule:evenodd;clip-rule:evenodd;fill:#E4AE7C;" d="M162.637,154.022c-45.773,1.1-68.884-111.776,0-108.885
					C231.52,42.246,208.41,155.122,162.637,154.022z"/>
				<path style="fill-rule:evenodd;clip-rule:evenodd;fill:#39271F;" d="M141.998,104.463c0.066,0.68-0.431,1.285-1.11,1.352
					c-0.68,0.067-1.285-0.43-1.352-1.109c-0.065-0.641-0.015-1.291,0.153-1.916c0.165-0.61,0.44-1.201,0.832-1.741
					c0.864-1.191,2.132-1.921,3.485-2.139c1.348-0.216,2.778,0.08,3.974,0.943c0.762,0.55,1.336,1.265,1.71,2.061
					c0.387,0.825,0.557,1.733,0.494,2.632c-0.046,0.682-0.635,1.199-1.318,1.153c-0.682-0.046-1.199-0.635-1.153-1.317
					c0.033-0.491-0.056-0.982-0.262-1.421c-0.199-0.424-0.506-0.806-0.915-1.1c-0.643-0.464-1.414-0.624-2.142-0.507
					c-0.722,0.116-1.402,0.509-1.866,1.15c-0.21,0.289-0.357,0.604-0.444,0.927C141.991,103.773,141.964,104.123,141.998,104.463z"
					/>
				<path style="fill-rule:evenodd;clip-rule:evenodd;fill:#DA9077;" d="M142.202,114.424c2.336,1.793,2.439,4.42,0.229,5.867
					c-2.21,1.446-5.896,1.165-8.233-0.628c-2.336-1.794-2.438-4.42-0.228-5.867C136.18,112.35,139.866,112.63,142.202,114.424z"/>
				<path style="fill-rule:evenodd;clip-rule:evenodd;fill:#DA9077;" d="M183.326,114.424c-2.336,1.793-2.438,4.42-0.228,5.867
					c2.21,1.446,5.896,1.165,8.232-0.628c2.336-1.794,2.438-4.42,0.228-5.867C189.349,112.35,185.663,112.63,183.326,114.424z"/>
				<path style="fill-rule:evenodd;clip-rule:evenodd;fill:#3F2716;" d="M149.05,88.41c-0.152-0.066-0.305-0.129-0.461-0.188
					c-1.789-0.645-3.306-0.82-5.238-0.68c-1.893,0.2-3.305,0.627-4.892,1.532c-0.74,0.478-3.63,2.818-2.811,3.679
					c0.335,0.093,3.213-1.377,4.059-1.652c1.315-0.389,2.382-0.538,3.775-0.509c1.299,0.059,2.277,0.248,3.461,0.705
					c0.032,0.006,0.246,0.102,0.292,0.123c2.414,1.174,2.195,1.928,3.842,0.799C153.614,90.868,151.004,89.425,149.05,88.41z"/>
				<path style="fill-rule:evenodd;clip-rule:evenodd;fill:#3F2716;" d="M176.223,88.41c0.153-0.066,0.305-0.129,0.461-0.188
					c1.789-0.645,3.306-0.82,5.239-0.68c1.892,0.2,3.304,0.627,4.891,1.532c0.74,0.478,3.63,2.818,2.81,3.679
					c-0.334,0.093-3.213-1.377-4.058-1.652c-1.316-0.389-2.383-0.538-3.776-0.509c-1.299,0.059-2.276,0.248-3.46,0.705
					c-0.033,0.006-0.246,0.102-0.292,0.123c-2.414,1.174-2.196,1.928-3.843,0.799C171.659,90.868,174.269,89.425,176.223,88.41z"/>
				<path style="fill-rule:evenodd;clip-rule:evenodd;fill:#FFFFFF;" d="M150.763,124.002c4.219-0.052,8.422-0.079,12.624-0.079
					c4.203,0,8.406,0.027,12.625,0.079c0,6.619-6.528,8.983-12.602,8.983h-0.023h-0.023
					C157.29,132.984,150.763,130.621,150.763,124.002z"/>
				<path style="fill-rule:evenodd;clip-rule:evenodd;fill:#D67F54;" d="M160.485,136.928c-0.235-0.138-0.314-0.441-0.176-0.677
					c0.138-0.235,0.44-0.314,0.676-0.176c0.683,0.4,1.552,0.601,2.422,0.601c0.869,0,1.722-0.199,2.377-0.597
					c0.232-0.141,0.537-0.066,0.679,0.167c0.141,0.234,0.066,0.538-0.167,0.678c-0.816,0.496-1.854,0.744-2.889,0.744
					C162.373,137.667,161.326,137.42,160.485,136.928z"/>
				<path style="fill-rule:evenodd;clip-rule:evenodd;fill:#D67F54;" d="M162.262,114.919c-0.273,0-0.496-0.223-0.496-0.497
					c0-0.273,0.222-0.496,0.496-0.496c1.191,0,2.615-0.011,3.713-0.197c0.904-0.153,1.568-0.398,1.568-0.81
					c0-1.428-1.446-10.303-1.451-10.328c-0.042-0.27,0.142-0.524,0.412-0.566c0.27-0.043,0.523,0.141,0.566,0.41
					c0.004,0.026,1.465,8.995,1.465,10.484c0,1.045-1.016,1.552-2.397,1.786C164.954,114.906,163.488,114.919,162.262,114.919z"/>
				<path style="fill-rule:evenodd;clip-rule:evenodd;fill:#D67F54;" d="M209.606,119.166c0,0.274-0.222,0.497-0.496,0.497
					c-0.275,0-0.497-0.222-0.497-0.497c0-1.506-0.261-2.454-0.68-2.969c-0.251-0.311-0.57-0.453-0.923-0.461
					c-0.406-0.009-0.87,0.144-1.352,0.416c-1.303,0.738-2.65,2.303-3.395,4.006c-0.359,0.821-0.668,1.665-0.846,2.303
					c0.762-0.531,1.603-0.742,2.312-0.671c0.403,0.041,0.771,0.172,1.069,0.387c0.314,0.226,0.549,0.54,0.667,0.934
					c0.203,0.681,0.046,1.595-0.685,2.686c-0.152,0.227-0.46,0.288-0.687,0.136c-0.227-0.152-0.288-0.459-0.136-0.686
					c0.546-0.814,0.681-1.435,0.557-1.853c-0.052-0.177-0.156-0.316-0.294-0.415c-0.155-0.112-0.358-0.182-0.588-0.205
					c-0.637-0.063-1.444,0.215-2.116,0.89c-0.18,0.182-0.35,0.283-0.505,0.317c-0.398,0.085-0.63-0.09-0.716-0.48l-0.005-0.026
					c-0.03-0.148-0.023-0.345,0.014-0.579c0.112-0.705,0.536-1.954,1.052-3.134c0.827-1.89,2.341-3.637,3.814-4.471
					c0.632-0.358,1.268-0.557,1.859-0.544c0.644,0.015,1.221,0.271,1.671,0.824C209.259,116.259,209.606,117.415,209.606,119.166z"
					/>
				<path style="fill-rule:evenodd;clip-rule:evenodd;fill:#D67F54;" d="M116.66,119.166c0,0.274-0.222,0.497-0.496,0.497
					c-0.274,0-0.496-0.222-0.496-0.497c0-1.752,0.346-2.908,0.904-3.594c0.452-0.554,1.028-0.81,1.671-0.824
					c0.592-0.013,1.228,0.186,1.859,0.544c1.473,0.835,2.987,2.581,3.814,4.471c0.516,1.18,0.94,2.429,1.052,3.134
					c0.037,0.234,0.044,0.431,0.015,0.579l-0.006,0.026c-0.086,0.39-0.317,0.565-0.716,0.48c-0.155-0.034-0.324-0.136-0.504-0.317
					c-0.672-0.675-1.479-0.954-2.116-0.89c-0.231,0.023-0.434,0.093-0.589,0.205c-0.139,0.099-0.242,0.238-0.294,0.415
					c-0.125,0.417,0.011,1.038,0.557,1.853c0.152,0.227,0.091,0.534-0.136,0.686c-0.227,0.152-0.534,0.091-0.687-0.136
					c-0.73-1.091-0.888-2.005-0.684-2.686c0.118-0.394,0.352-0.708,0.666-0.934c0.299-0.215,0.666-0.346,1.069-0.387
					c0.709-0.071,1.55,0.14,2.312,0.671c-0.177-0.638-0.487-1.481-0.846-2.303c-0.745-1.703-2.093-3.268-3.396-4.006
					c-0.481-0.272-0.945-0.425-1.352-0.416c-0.353,0.008-0.67,0.15-0.923,0.461C116.921,116.712,116.66,117.66,116.66,119.166z"/>
				<path style="fill-rule:evenodd;clip-rule:evenodd;fill:#462917;" d="M124.211,119.229c-4.615-9.006-4.545-19.065-4.979-22.93
					c-4.256-37.907,19.352-55.913,42.674-55.248c0.245-0.007,0.487-0.01,0.731-0.013v14.856c-4.278-1.403-7.925-2.253-9.856-2.253
					c-0.239,0-0.475-0.004-0.71-0.013c-0.234,0.009-0.47,0.013-0.709,0.013c-5.373,0-8.044,8.961-14.231,11.387
					c-3.545,1.39-0.152,17.785-3.819,26.035c-0.898,2.02-5.587,6.748-6.671,7.226C123.47,101.519,123.138,105.144,124.211,119.229z"
					/>
				<path style="fill-rule:evenodd;clip-rule:evenodd;fill:#462917;" d="M201.063,119.229c4.614-9.006,4.545-19.065,4.979-22.93
					c4.256-37.907-19.351-55.913-42.673-55.248c-0.245-0.007-0.488-0.01-0.73-0.013v14.856c4.277-1.403,7.923-2.253,9.855-2.253
					c0.239,0,0.475-0.004,0.71-0.013c0.234,0.009,0.47,0.013,0.709,0.013c5.373,0,8.044,11.455,14.23,13.881
					c3.545,1.39,0.152,15.29,3.819,23.54c0.898,2.02,5.587,6.748,6.672,7.226C201.804,101.519,202.135,105.144,201.063,119.229z"/>
				<polygon style="fill-rule:evenodd;clip-rule:evenodd;fill:#2E1E11;" points="162.637,233.163 217.106,233.163 214.083,214.487 
					111.19,214.487 108.167,233.163 				"/>
				<path style="fill-rule:evenodd;clip-rule:evenodd;fill:#2E1E11;" d="M115.158,216.092c-0.036,1.163-1.009,2.077-2.172,2.04
					c-1.163-0.036-2.077-1.009-2.041-2.172l4.197-30.635c0.036-1.163,1.009-2.076,2.172-2.04c1.164,0.037,2.076,1.009,2.041,2.173
					L115.158,216.092z"/>
				<path style="fill-rule:evenodd;clip-rule:evenodd;fill:#2E1E11;" d="M210.115,216.092c0.036,1.163,1.009,2.077,2.172,2.04
					c1.164-0.036,2.078-1.009,2.041-2.172l-4.196-30.635c-0.037-1.163-1.009-2.076-2.173-2.04c-1.163,0.037-2.077,1.009-2.04,2.173
					L210.115,216.092z"/>
				<path style="fill-rule:evenodd;clip-rule:evenodd;fill:#39271F;" d="M177.821,104.463c0.067,0.68-0.43,1.285-1.11,1.352
					c-0.68,0.067-1.285-0.43-1.351-1.109c-0.065-0.641-0.015-1.291,0.153-1.916c0.165-0.61,0.44-1.201,0.832-1.741
					c0.864-1.191,2.132-1.921,3.485-2.139c1.348-0.216,2.779,0.08,3.974,0.943c0.762,0.55,1.336,1.265,1.71,2.061
					c0.387,0.825,0.557,1.733,0.495,2.632c-0.046,0.682-0.636,1.199-1.318,1.153c-0.683-0.046-1.199-0.635-1.154-1.317
					c0.034-0.491-0.056-0.982-0.261-1.421c-0.199-0.424-0.507-0.806-0.915-1.1c-0.643-0.464-1.414-0.624-2.142-0.507
					c-0.722,0.116-1.402,0.509-1.866,1.15c-0.21,0.289-0.357,0.604-0.444,0.927C177.815,103.773,177.788,104.123,177.821,104.463z"
					/>
				<path style="fill-rule:evenodd;clip-rule:evenodd;fill:#623A1C;" d="M135.443,67.383c20.701-14.425,11.785,11.157,29.27,11.225
					c8.703,0.034,16.673,3.549,16.53,10.932c-0.142,7.383-0.195,10.654,7.788,14.488c15.471,7.428-14.055,33.031,24.697,34.456
					c-4.051-18.708,15.173-24.756,8.67-40.989c-6.502-16.233-19.077-11.5-16.339-21.581c2.155-7.933,3.059-16.514-2.637-22.616
					c-8.229-8.814-16.368,0.167-21.637-8.316c-4.421-7.118-7.007-17.676-25.689-13.719C132.309,36.301,131.303,55.31,135.443,67.383
					z"/>
				<path style="fill-rule:evenodd;clip-rule:evenodd;fill:#774D30;" d="M138.112,58.522c-0.157,0.222-0.466,0.276-0.689,0.119
					c-0.222-0.158-0.275-0.465-0.118-0.688c0.787-1.112,2.657-2.33,4.919-3.117c1.597-0.555,3.402-0.905,5.173-0.86
					c1.798,0.045,3.563,0.497,5.047,1.548c1.304,0.923,2.382,2.3,3.063,4.258c1.539,4.425,2.964,6.882,4.938,8.26
					c1.967,1.374,4.557,1.72,8.405,1.913c3.997,0.2,8.767,0.836,12.609,2.967c3.899,2.163,6.828,5.836,7.032,12.087
					c0.194,5.942,0.891,9.248,2.171,11.255c1.242,1.946,3.102,2.699,5.629,3.521c0.186,0.06,0.357,0.119,0.51,0.176
					c2.474,0.918,4.313,2.476,5.227,4.77c0.9,2.258,0.885,5.208-0.328,8.939c-0.118,0.364-0.242,0.721-0.371,1.07
					c-1.442,3.886-1.785,7.392-1.236,10.179c0.56,2.844,2.052,4.928,4.247,5.868c0.251,0.107,0.369,0.398,0.262,0.65
					c-0.107,0.251-0.398,0.368-0.65,0.261c-2.509-1.075-4.207-3.414-4.832-6.589c-0.582-2.957-0.23-6.65,1.278-10.714
					c0.136-0.365,0.255-0.709,0.36-1.031c1.137-3.498,1.167-6.222,0.351-8.268c-0.8-2.009-2.438-3.382-4.654-4.205
					c-0.169-0.062-0.326-0.118-0.471-0.164c-2.725-0.886-4.739-1.71-6.156-3.932c-1.379-2.162-2.126-5.618-2.327-11.755
					c-0.19-5.829-2.906-9.247-6.524-11.253c-3.674-2.037-8.294-2.648-12.174-2.843c-4.029-0.202-6.758-0.577-8.926-2.091
					c-2.164-1.51-3.693-4.109-5.305-8.745c-0.609-1.749-1.557-2.968-2.698-3.777c-1.308-0.927-2.885-1.325-4.501-1.366
					c-1.644-0.042-3.329,0.286-4.823,0.806C140.474,56.492,138.788,57.567,138.112,58.522z"/>
				<path style="fill-rule:evenodd;clip-rule:evenodd;fill:#774D30;" d="M143.178,44.24c-0.246,0.12-0.543,0.018-0.663-0.229
					c-0.121-0.246-0.018-0.543,0.229-0.664c0.934-0.455,2.047-0.873,3.265-1.21c2.73-0.755,5.984-1.1,8.907-0.549
					c2.988,0.563,5.632,2.054,7.057,4.974c0.251,0.516,0.465,1.081,0.634,1.696c1.065,3.846,3.143,6.474,5.735,8.078
					c2.979,1.845,6.651,2.35,10.26,1.805c0.774-0.117,1.599-0.176,2.452-0.176c3.29,0,7.055,0.874,10.137,2.65
					c3.127,1.801,5.556,4.528,6.112,8.215c0.079,0.522,0.12,1.062,0.12,1.618c0,1.643-0.043,3.237-0.082,4.692
					c-0.159,5.946-0.253,9.441,3.119,11.425c0.273,0.162,0.525,0.306,0.796,0.464h0.003c5.265,3.04,18.218,10.519,13.595,22.592
					c-4.752,12.408-5.844,13.776-5.847,13.78c-0.166,0.217-0.477,0.258-0.694,0.093c-0.217-0.166-0.258-0.477-0.093-0.694
					c0.003-0.004,1.006-1.255,5.707-13.532c4.322-11.286-8.111-18.465-13.165-21.383l0,0c-0.313-0.181-0.598-0.345-0.803-0.466
					c-3.876-2.28-3.776-5.991-3.607-12.301c0.037-1.384,0.078-2.902,0.078-4.67c0-0.509-0.037-1-0.108-1.471
					c-0.506-3.351-2.742-5.846-5.624-7.506c-2.924-1.685-6.508-2.514-9.645-2.514c-0.807,0-1.582,0.055-2.305,0.165
					c-3.824,0.577-7.734,0.031-10.926-1.945c-2.795-1.73-5.031-4.547-6.169-8.655c-0.152-0.548-0.345-1.056-0.573-1.524
					c-1.267-2.596-3.647-3.927-6.348-4.436c-2.763-0.521-5.858-0.191-8.461,0.53C145.121,43.41,144.066,43.806,143.178,44.24z"/>
			</g>
		</g>
		<g>
			<path style="fill-rule:evenodd;clip-rule:evenodd;fill:#9976AE;" d="M530.48,52.755h113.765
				c16.139,0,29.343,13.204,29.343,29.342v113.764c0,16.138-13.204,29.342-29.343,29.342H530.48
				c-16.138,0-29.341-13.204-29.341-29.342V82.097C501.14,65.959,514.343,52.755,530.48,52.755z"/>
			<g>
				<path style="fill-rule:evenodd;clip-rule:evenodd;fill:#E4AE7C;" d="M587.363,232.422h71.448
					c0-67.197-53.295-30.942-53.295-86.924h-18.153h-18.416c0,55.982-53.031,19.727-53.031,86.924H587.363z"/>
				<path style="fill-rule:evenodd;clip-rule:evenodd;fill:#E4AE7C;" d="M548.289,111.454c-0.173-1.898-7.936-4.14-10.522,2.07
					c-2.588,6.21,2.069,15.008,10.867,15.698c8.798,0.69,6.211-0.862,6.211-0.862L548.289,111.454z"/>
				<path style="fill-rule:evenodd;clip-rule:evenodd;fill:#E4AE7C;" d="M626.625,111.454c0.172-1.898,7.935-4.14,10.522,2.07
					c2.587,6.21-2.07,15.008-10.868,15.698c-8.797,0.69-6.21-0.862-6.21-0.862L626.625,111.454z"/>
				<path style="fill-rule:evenodd;clip-rule:evenodd;fill:#D67F54;" d="M605.813,143.926c0,0-0.098,2.605-0.035,6.386
					c-6.413,16.111-30.001,16.706-36.841,0.732c0.089-4.174-0.022-7.118-0.022-7.118
					C581.205,143.926,593.522,143.926,605.813,143.926z"/>
				<path style="fill-rule:evenodd;clip-rule:evenodd;fill:#E4AE7C;" d="M587.363,153.281c-45.773,1.1-68.884-111.777,0-108.885
					C656.247,41.504,633.138,154.38,587.363,153.281z"/>
				<path style="fill-rule:evenodd;clip-rule:evenodd;fill:#39271F;" d="M566.725,103.721c0.066,0.68-0.431,1.286-1.11,1.353
					c-0.68,0.067-1.285-0.43-1.352-1.11c-0.065-0.641-0.016-1.291,0.153-1.916c0.165-0.611,0.441-1.201,0.833-1.741
					c0.862-1.192,2.132-1.922,3.484-2.139c1.348-0.216,2.778,0.08,3.974,0.942c0.763,0.55,1.337,1.265,1.71,2.061
					c0.387,0.825,0.557,1.733,0.495,2.632c-0.046,0.682-0.637,1.199-1.319,1.153c-0.682-0.046-1.198-0.635-1.152-1.318
					c0.033-0.491-0.057-0.981-0.263-1.42c-0.198-0.424-0.506-0.806-0.915-1.101c-0.643-0.463-1.414-0.623-2.142-0.506
					c-0.722,0.115-1.401,0.508-1.866,1.15c-0.21,0.289-0.357,0.604-0.444,0.927C566.718,103.031,566.69,103.382,566.725,103.721z"/>
				<path style="fill-rule:evenodd;clip-rule:evenodd;fill:#DA9077;" d="M566.929,113.682c2.336,1.795,2.438,4.42,0.228,5.868
					c-2.21,1.446-5.896,1.165-8.233-0.628c-2.336-1.794-2.438-4.42-0.227-5.867C560.907,111.608,564.593,111.889,566.929,113.682z"
					/>
				<path style="fill-rule:evenodd;clip-rule:evenodd;fill:#DA9077;" d="M608.054,113.682c-2.337,1.795-2.439,4.42-0.229,5.868
					c2.211,1.446,5.896,1.165,8.232-0.628c2.336-1.794,2.438-4.42,0.228-5.867C614.075,111.608,610.39,111.889,608.054,113.682z"/>
				<path style="fill-rule:evenodd;clip-rule:evenodd;fill:#3F2716;" d="M573.777,87.668c-0.152-0.066-0.306-0.129-0.461-0.188
					c-1.789-0.645-3.306-0.82-5.238-0.681c-1.892,0.201-3.305,0.628-4.892,1.533c-0.739,0.478-3.63,2.817-2.81,3.679
					c0.335,0.092,3.213-1.378,4.059-1.652c1.315-0.388,2.382-0.538,3.775-0.509c1.299,0.059,2.277,0.248,3.462,0.705
					c0.032,0.005,0.246,0.102,0.291,0.122c2.415,1.173,2.196,1.928,3.843,0.799C578.341,90.127,575.731,88.684,573.777,87.668z"/>
				<path style="fill-rule:evenodd;clip-rule:evenodd;fill:#3F2716;" d="M600.95,87.668c0.152-0.066,0.305-0.129,0.461-0.188
					c1.789-0.645,3.306-0.82,5.237-0.681c1.893,0.201,3.306,0.628,4.892,1.533c0.74,0.478,3.63,2.817,2.811,3.679
					c-0.334,0.092-3.213-1.378-4.058-1.652c-1.316-0.388-2.383-0.538-3.776-0.509c-1.299,0.059-2.276,0.248-3.461,0.705
					c-0.032,0.005-0.246,0.102-0.291,0.122c-2.415,1.173-2.196,1.928-3.843,0.799C596.387,90.127,598.996,88.684,600.95,87.668z"/>
				<path style="fill-rule:evenodd;clip-rule:evenodd;fill:#FFFFFF;" d="M575.49,123.26c4.219-0.053,8.421-0.079,12.624-0.079
					c4.203,0,8.405,0.026,12.624,0.079c0,6.619-6.527,8.983-12.602,8.983l-0.022-0.001l-0.022,0.001
					C582.018,132.243,575.49,129.879,575.49,123.26z"/>
				<path style="fill-rule:evenodd;clip-rule:evenodd;fill:#D67F54;" d="M585.212,136.187c-0.235-0.138-0.314-0.442-0.176-0.677
					c0.138-0.235,0.44-0.314,0.676-0.176c0.683,0.4,1.552,0.6,2.422,0.6c0.868,0,1.723-0.199,2.377-0.596
					c0.233-0.141,0.537-0.067,0.679,0.167c0.142,0.233,0.066,0.538-0.167,0.678c-0.816,0.495-1.853,0.744-2.889,0.744
					C587.101,136.926,586.053,136.679,585.212,136.187z"/>
				<path style="fill-rule:evenodd;clip-rule:evenodd;fill:#D67F54;" d="M586.99,114.177c-0.274,0-0.497-0.223-0.497-0.496
					c0-0.274,0.223-0.497,0.497-0.497c1.19,0,2.613-0.011,3.713-0.197c0.903-0.153,1.567-0.398,1.567-0.81
					c0-1.427-1.446-10.302-1.45-10.328c-0.042-0.27,0.142-0.523,0.411-0.566c0.271-0.043,0.523,0.142,0.567,0.411
					c0.004,0.026,1.466,8.994,1.466,10.483c0,1.046-1.017,1.553-2.398,1.787C589.681,114.165,588.214,114.177,586.99,114.177z"/>
				<path style="fill-rule:evenodd;clip-rule:evenodd;fill:#D67F54;" d="M634.333,118.425c0,0.274-0.223,0.497-0.497,0.497
					c-0.273,0-0.496-0.222-0.496-0.497c0-1.506-0.261-2.455-0.679-2.97c-0.253-0.31-0.57-0.452-0.924-0.46
					c-0.406-0.01-0.87,0.143-1.352,0.416c-1.303,0.737-2.65,2.302-3.394,4.006c-0.359,0.821-0.669,1.664-0.847,2.302
					c0.763-0.53,1.603-0.741,2.312-0.67c0.404,0.041,0.771,0.171,1.07,0.386c0.314,0.227,0.549,0.541,0.666,0.935
					c0.203,0.68,0.047,1.595-0.685,2.686c-0.152,0.227-0.459,0.287-0.687,0.135c-0.227-0.152-0.288-0.459-0.136-0.687
					c0.546-0.813,0.682-1.435,0.558-1.852c-0.053-0.177-0.157-0.316-0.295-0.416c-0.155-0.111-0.357-0.181-0.588-0.204
					c-0.638-0.064-1.444,0.214-2.116,0.89c-0.181,0.181-0.349,0.283-0.505,0.317c-0.397,0.086-0.63-0.09-0.716-0.479l-0.006-0.027
					c-0.03-0.147-0.022-0.344,0.014-0.579c0.112-0.705,0.536-1.954,1.052-3.133c0.827-1.891,2.341-3.637,3.814-4.472
					c0.632-0.357,1.268-0.557,1.859-0.543c0.644,0.015,1.221,0.27,1.671,0.825C633.986,115.517,634.333,116.673,634.333,118.425z"/>
				<path style="fill-rule:evenodd;clip-rule:evenodd;fill:#D67F54;" d="M541.387,118.425c0,0.274-0.222,0.497-0.496,0.497
					c-0.274,0-0.496-0.222-0.496-0.497c0-1.752,0.347-2.908,0.904-3.594c0.451-0.555,1.028-0.81,1.672-0.825
					c0.591-0.013,1.227,0.186,1.859,0.543c1.473,0.835,2.987,2.582,3.813,4.472c0.517,1.18,0.94,2.428,1.053,3.133
					c0.037,0.235,0.044,0.432,0.015,0.579l-0.006,0.027c-0.087,0.39-0.317,0.565-0.717,0.479c-0.155-0.034-0.324-0.136-0.504-0.317
					c-0.672-0.676-1.479-0.955-2.116-0.89c-0.23,0.023-0.434,0.093-0.588,0.204c-0.14,0.1-0.242,0.239-0.295,0.416
					c-0.125,0.417,0.011,1.038,0.557,1.852c0.152,0.227,0.092,0.535-0.136,0.687c-0.227,0.152-0.534,0.092-0.686-0.135
					c-0.732-1.091-0.888-2.006-0.685-2.686c0.118-0.395,0.353-0.709,0.667-0.935c0.299-0.215,0.666-0.345,1.068-0.386
					c0.71-0.071,1.551,0.14,2.314,0.67c-0.178-0.637-0.488-1.481-0.847-2.302c-0.745-1.704-2.093-3.269-3.394-4.006
					c-0.482-0.273-0.946-0.426-1.352-0.416c-0.353,0.008-0.672,0.15-0.924,0.46C541.647,115.97,541.387,116.919,541.387,118.425z"/>
				<path style="fill-rule:evenodd;clip-rule:evenodd;fill:#39271F;" d="M602.548,103.721c0.067,0.68-0.43,1.286-1.109,1.353
					s-1.285-0.43-1.353-1.11c-0.064-0.641-0.015-1.291,0.154-1.916c0.165-0.611,0.44-1.201,0.832-1.741
					c0.863-1.192,2.132-1.922,3.485-2.139c1.347-0.216,2.778,0.08,3.973,0.942c0.763,0.55,1.337,1.265,1.71,2.061
					c0.387,0.825,0.557,1.733,0.495,2.632c-0.046,0.682-0.636,1.199-1.318,1.153c-0.683-0.046-1.199-0.635-1.153-1.318
					c0.034-0.491-0.057-0.981-0.263-1.42c-0.198-0.424-0.506-0.806-0.915-1.101c-0.642-0.463-1.414-0.623-2.141-0.506
					c-0.723,0.115-1.402,0.508-1.866,1.15c-0.21,0.289-0.357,0.604-0.445,0.927C602.542,103.031,602.514,103.382,602.548,103.721z"
					/>
				<path style="fill-rule:evenodd;clip-rule:evenodd;fill:#2E1E11;" d="M622.688,70.337c-8.278-3.569-9.926-7.616-12.155-12.288
					c-4.35-9.117-2.072-19.145,6.378-22.345c16.377-6.204,30.097,9.559,27.959,22.289C643.359,66.997,633.521,75.009,622.688,70.337
					z"/>
				<path style="fill-rule:evenodd;clip-rule:evenodd;fill:#2E1E11;" d="M552.24,70.337c8.277-3.569,9.926-7.616,12.155-12.288
					c4.349-9.117,2.072-19.145-6.378-22.345c-16.377-6.204-30.097,9.559-27.96,22.289C531.569,66.997,541.406,75.009,552.24,70.337z
					"/>
				<path style="fill-rule:evenodd;clip-rule:evenodd;fill:#4E3832;" d="M548.373,120.377c1.808-1.851-1.433-11.171,1.072-24.07
					c2.504-12.898,32.96-28.526,37.932-35.567c4.972,7.041,35.426,22.669,37.931,35.567c2.504,12.898,1.102,15.916,2.911,17.768
					c1.388,1.42,19.373-71.881-40.842-71.356C522.31,42.719,548.177,120.578,548.373,120.377z"/>
				<path style="fill-rule:evenodd;clip-rule:evenodd;fill:#F1D3A4;" d="M587.25,59.36c1.992,12.099-22.884,18.631-27.964,50.916
					c-4.534,28.815,3.495,57.356,3.495,57.356c0.392,1.594-1.456,0.811-3.187-2.797c-2.623-5.464-18.273-34.947-12.672-61.892
					C552.526,75.999,574.052,63.609,587.25,59.36z"/>
				<path style="fill-rule:evenodd;clip-rule:evenodd;fill:#F1D3A4;" d="M587.477,59.36c-1.992,12.099,22.883,18.631,27.964,50.916
					c4.533,28.815-3.495,57.356-3.495,57.356c-0.392,1.594,1.455,0.811,3.187-2.797c2.622-5.464,18.273-34.947,12.671-61.892
					C622.201,75.999,600.675,63.609,587.477,59.36z"/>
				<path style="fill-rule:evenodd;clip-rule:evenodd;fill:#35253D;" d="M606.855,159.059c-10.261,6.792-29.365,7.46-39.184-0.266
					c-0.634,2.902-1.493,5.418-2.53,7.635c12.252,7.758,31.753,7.256,44.251,0.107C608.359,164.359,607.498,161.896,606.855,159.059
					z"/>
				<path style="fill-rule:evenodd;clip-rule:evenodd;fill:#35253D;" d="M515.916,232.422h72.198h70.697
					c0-26.854-8.513-37.181-18.732-43.482c-28.81,34.919-75.867,34.703-104.453-0.645
					C524.987,194.54,515.916,204.632,515.916,232.422z"/>
				<path style="fill-rule:evenodd;clip-rule:evenodd;fill:#23142B;" d="M535.601,211.877c0.003-0.409,0.338-0.739,0.747-0.736
					c0.41,0.003,0.738,0.338,0.736,0.747l-0.183,20.539c-0.004,0.41-0.338,0.739-0.748,0.736c-0.409-0.003-0.739-0.338-0.735-0.748
					L535.601,211.877z"/>
				<path style="fill-rule:evenodd;clip-rule:evenodd;fill:#23142B;" d="M637.826,211.877c0.003-0.409,0.338-0.739,0.747-0.736
					c0.41,0.003,0.739,0.338,0.736,0.747l-0.183,20.539c-0.004,0.41-0.338,0.739-0.748,0.736c-0.409-0.003-0.738-0.338-0.735-0.748
					L637.826,211.877z"/>
				<path style="fill-rule:evenodd;clip-rule:evenodd;fill:#DDBA8A;" d="M559.926,156.323c0.118,0.246,0.016,0.542-0.23,0.661
					s-0.542,0.016-0.661-0.23c-7.621-15.717-9.465-33.805-5.511-50.323c3.762-15.714,12.769-30.009,27.034-39.5
					c0.228-0.151,0.535-0.088,0.686,0.14c0.151,0.227,0.09,0.535-0.139,0.686c-14.046,9.343-22.914,23.424-26.619,38.904
					C550.584,122.96,552.403,140.81,559.926,156.323z"/>
				<path style="fill-rule:evenodd;clip-rule:evenodd;fill:#DDBA8A;" d="M615.692,156.753c-0.118,0.246-0.414,0.349-0.66,0.23
					s-0.35-0.415-0.231-0.661c7.523-15.513,9.343-33.363,5.441-49.663c-3.706-15.479-12.574-29.561-26.619-38.904
					c-0.229-0.151-0.291-0.459-0.14-0.686c0.15-0.229,0.458-0.292,0.685-0.14c14.267,9.491,23.273,23.787,27.034,39.5
					C625.157,122.949,623.315,141.036,615.692,156.753z"/>
			</g>
		</g>
		<g>
			<path style="fill-rule:evenodd;clip-rule:evenodd;fill:#D68119;" d="M105.754,289.191h113.764
				c16.139,0,29.342,13.204,29.342,29.342v113.765c0,16.138-13.203,29.341-29.342,29.341H105.754
				c-16.138,0-29.342-13.203-29.342-29.341V318.533C76.413,302.396,89.617,289.191,105.754,289.191z"/>
			<g>
				<path style="fill-rule:evenodd;clip-rule:evenodd;fill:#58556C;" d="M162.637,468.857H91.652
					c-0.821-36.297,27.106-57.369,51.087-65.232c1.945-10.127,1.448-23.262,1.448-23.262h18.45h18.45c0,0-0.497,13.135,1.449,23.262
					c23.979,7.863,51.907,28.935,51.085,65.232H162.637z"/>
				<path style="fill-rule:evenodd;clip-rule:evenodd;fill:#E4AE7C;" d="M123.563,351.252c-0.172-1.899-7.936-4.141-10.523,2.069
					c-2.587,6.21,2.071,15.008,10.868,15.698c8.797,0.69,6.21-0.862,6.21-0.862L123.563,351.252z"/>
				<path style="fill-rule:evenodd;clip-rule:evenodd;fill:#E4AE7C;" d="M201.898,351.252c0.172-1.899,7.935-4.141,10.522,2.069
					c2.587,6.21-2.07,15.008-10.867,15.698c-8.798,0.69-6.211-0.862-6.211-0.862L201.898,351.252z"/>
				<path style="fill-rule:evenodd;clip-rule:evenodd;fill:#D67F54;" d="M181.314,393.388c-7.987,15.279-28.56,16.873-37.393,0.588
					c0.232-3.33,0.307-6.466,0.321-8.886h36.79C181.044,387.367,181.112,390.277,181.314,393.388z"/>
				<path style="fill-rule:evenodd;clip-rule:evenodd;fill:#E4AE7C;" d="M162.637,393.078c-45.773,1.101-68.884-111.776,0-108.885
					C231.52,281.302,208.41,394.179,162.637,393.078z"/>
				<path style="fill-rule:evenodd;clip-rule:evenodd;fill:#20201E;" d="M147.258,340.686c1.837,1.326,2.25,3.888,0.922,5.721
					c-1.33,1.834-3.896,2.246-5.733,0.921c-1.838-1.326-2.25-3.888-0.922-5.722C142.854,339.772,145.42,339.361,147.258,340.686z"/>
				<path style="fill-rule:evenodd;clip-rule:evenodd;fill:#20201E;" d="M178.27,340.686c-1.838,1.326-2.251,3.888-0.922,5.721
					c1.328,1.834,3.895,2.246,5.733,0.921c1.837-1.326,2.25-3.888,0.922-5.722C182.674,339.772,180.108,339.361,178.27,340.686z"/>
				<path style="fill-rule:evenodd;clip-rule:evenodd;fill:#DA9077;" d="M142.202,355.568c2.336,1.794,2.439,4.421,0.229,5.867
					c-2.21,1.446-5.896,1.165-8.233-0.629c-2.336-1.793-2.438-4.42-0.228-5.866C136.18,353.494,139.866,353.775,142.202,355.568z"/>
				<path style="fill-rule:evenodd;clip-rule:evenodd;fill:#DA9077;" d="M183.326,355.568c-2.336,1.794-2.438,4.421-0.228,5.867
					c2.21,1.446,5.896,1.165,8.232-0.629c2.336-1.793,2.438-4.42,0.228-5.866C189.349,353.494,185.663,353.775,183.326,355.568z"/>
				<path style="fill-rule:evenodd;clip-rule:evenodd;fill:#3F2716;" d="M149.05,329.555c-0.152-0.067-0.305-0.129-0.461-0.189
					c-1.789-0.645-3.306-0.819-5.238-0.68c-1.893,0.2-3.305,0.628-4.892,1.533c-0.74,0.477-3.63,2.816-2.811,3.68
					c0.335,0.092,3.213-1.379,4.059-1.653c1.315-0.389,2.382-0.537,3.775-0.508c1.299,0.059,2.277,0.247,3.461,0.704
					c0.032,0.006,0.246,0.103,0.292,0.122c2.414,1.174,2.195,1.929,3.842,0.799C153.614,332.014,151.004,330.569,149.05,329.555z"/>
				<path style="fill-rule:evenodd;clip-rule:evenodd;fill:#3F2716;" d="M176.223,329.555c0.153-0.067,0.305-0.129,0.461-0.189
					c1.789-0.645,3.306-0.819,5.239-0.68c1.892,0.2,3.304,0.628,4.891,1.533c0.74,0.477,3.63,2.816,2.81,3.68
					c-0.334,0.092-3.213-1.379-4.058-1.653c-1.316-0.389-2.383-0.537-3.776-0.508c-1.299,0.059-2.276,0.247-3.46,0.704
					c-0.033,0.006-0.246,0.103-0.292,0.122c-2.414,1.174-2.196,1.929-3.843,0.799C171.659,332.014,174.269,330.569,176.223,329.555z
					"/>
				<path style="fill-rule:evenodd;clip-rule:evenodd;fill:#D67F54;" d="M160.485,378.072c-0.235-0.138-0.314-0.44-0.176-0.676
					c0.138-0.235,0.44-0.315,0.676-0.177c0.683,0.399,1.552,0.6,2.422,0.6c0.869,0,1.722-0.199,2.377-0.596
					c0.232-0.142,0.537-0.066,0.679,0.167c0.141,0.232,0.066,0.537-0.167,0.679c-0.816,0.495-1.854,0.742-2.889,0.742
					C162.373,378.811,161.326,378.565,160.485,378.072z"/>
				<path style="fill-rule:evenodd;clip-rule:evenodd;fill:#D67F54;" d="M162.262,360.113c-0.273,0-0.496-0.222-0.496-0.496
					c0-0.273,0.222-0.496,0.496-0.496c1.191,0,2.615-0.011,3.713-0.197c0.904-0.153,1.568-0.398,1.568-0.81
					c0-1.428-1.446-10.303-1.451-10.328c-0.042-0.27,0.142-0.523,0.412-0.566c0.27-0.042,0.523,0.141,0.566,0.411
					c0.004,0.026,1.465,8.994,1.465,10.483c0,1.045-1.016,1.552-2.397,1.786C164.954,360.102,163.488,360.113,162.262,360.113z"/>
				<path style="fill-rule:evenodd;clip-rule:evenodd;fill:#D67F54;" d="M209.606,358.224c0,0.273-0.222,0.496-0.496,0.496
					c-0.275,0-0.497-0.223-0.497-0.496c0-1.508-0.261-2.455-0.68-2.971c-0.251-0.31-0.57-0.452-0.923-0.46
					c-0.406-0.01-0.87,0.142-1.352,0.416c-1.303,0.737-2.65,2.302-3.395,4.006c-0.359,0.82-0.668,1.664-0.846,2.302
					c0.762-0.53,1.603-0.741,2.312-0.67c0.403,0.041,0.771,0.171,1.069,0.386c0.314,0.227,0.549,0.541,0.667,0.936
					c0.203,0.681,0.046,1.595-0.685,2.685c-0.152,0.227-0.46,0.288-0.687,0.136c-0.227-0.151-0.288-0.459-0.136-0.687
					c0.546-0.814,0.681-1.435,0.557-1.852c-0.052-0.177-0.156-0.316-0.294-0.416c-0.155-0.111-0.358-0.181-0.588-0.204
					c-0.637-0.063-1.444,0.215-2.116,0.891c-0.18,0.181-0.35,0.283-0.505,0.316c-0.398,0.086-0.63-0.089-0.716-0.479l-0.005-0.026
					c-0.03-0.146-0.023-0.345,0.014-0.579c0.112-0.706,0.536-1.954,1.052-3.134c0.827-1.891,2.341-3.638,3.814-4.472
					c0.632-0.357,1.268-0.558,1.859-0.544c0.644,0.016,1.221,0.27,1.671,0.825C209.259,355.315,209.606,356.471,209.606,358.224z"/>
				<path style="fill-rule:evenodd;clip-rule:evenodd;fill:#D67F54;" d="M116.66,358.224c0,0.273-0.222,0.496-0.496,0.496
					c-0.274,0-0.496-0.223-0.496-0.496c0-1.753,0.346-2.909,0.904-3.595c0.452-0.556,1.028-0.81,1.671-0.825
					c0.592-0.014,1.228,0.186,1.859,0.544c1.473,0.834,2.987,2.581,3.814,4.472c0.516,1.18,0.94,2.428,1.052,3.134
					c0.037,0.234,0.044,0.433,0.015,0.579l-0.006,0.026c-0.086,0.39-0.317,0.565-0.716,0.479c-0.155-0.033-0.324-0.136-0.504-0.316
					c-0.672-0.676-1.479-0.954-2.116-0.891c-0.231,0.023-0.434,0.093-0.589,0.204c-0.139,0.1-0.242,0.239-0.294,0.416
					c-0.125,0.417,0.011,1.037,0.557,1.852c0.152,0.228,0.091,0.535-0.136,0.687c-0.227,0.152-0.534,0.091-0.687-0.136
					c-0.73-1.091-0.888-2.005-0.684-2.685c0.118-0.395,0.352-0.709,0.666-0.936c0.299-0.215,0.666-0.345,1.069-0.386
					c0.709-0.071,1.55,0.14,2.312,0.67c-0.177-0.638-0.487-1.481-0.846-2.302c-0.745-1.704-2.093-3.269-3.396-4.006
					c-0.481-0.274-0.945-0.426-1.352-0.416c-0.353,0.008-0.67,0.15-0.923,0.46C116.921,355.769,116.66,356.716,116.66,358.224z"/>
				<path style="fill-rule:evenodd;clip-rule:evenodd;fill:#35253D;" d="M213.289,293.586c1.907,0.365,1.658,1.932-3.906,5.859
					c5.142,6.479,5.933,16.773,4.176,26.431c-0.375,2.061-6.178,16.676-11.645,26.25c-0.507,0.889-0.169-18.983-5.909-26.921
					c-2.913-4.027-5.313-8.801-11.246-12.779c-0.06,1.13,3.464,4.214,2.149,4.834c-5.031,2.371-19.198-0.078-25.742-1.737
					c1.883,1.939,3.805,3.346,3.083,4.054c-2.252,2.212-16.496-1.241-25.294-7.147c-2.132,7.035-5.142,14.505-8.524,16.495
					c-9.052,5.326-5.106,27.818-7.481,24.513c-10.898-15.158-8.15-34.786-8.15-34.786c-1.056,1.675-2.257,3.116-3.09,4.848
					c-1.503,3.128-2.532-25.642,11.144-29.373c0,0-2.157-0.745-7.706,0.295c-2.036,0.383,4.003-5.231,10.516-5.96
					c0.187-2.833,1.452-14.204,9.767-17.873c3.857-1.702,10.177-2.858,9.374-2.372c-3.964,2.401-5.103,5.74-5.103,5.74
					c30.427-14.354,44.268,0.905,56.193,10.47C199.501,287.318,207.134,293.104,213.289,293.586z"/>
				<path style="fill-rule:evenodd;clip-rule:evenodd;fill:#2E1E11;" d="M143.823,331.198c4.051,0,7.718,1.643,10.372,4.298
					c2.655,2.653,4.298,6.321,4.298,10.372c0,4.05-1.643,7.718-4.298,10.372c-2.654,2.654-6.321,4.297-10.372,4.297
					c-4.05,0-7.718-1.643-10.373-4.297c-2.654-2.654-4.296-6.322-4.296-10.372c0-4.051,1.643-7.719,4.296-10.372
					C136.105,332.841,139.773,331.198,143.823,331.198L143.823,331.198z M152.441,337.25c-2.206-2.206-5.253-3.57-8.618-3.57
					c-3.365,0-6.413,1.364-8.619,3.57c-2.205,2.205-3.57,5.253-3.57,8.618c0,3.365,1.365,6.412,3.57,8.618
					c2.206,2.205,5.253,3.569,8.619,3.569c3.365,0,6.413-1.364,8.618-3.569c2.206-2.206,3.57-5.253,3.57-8.618
					C156.011,342.503,154.647,339.455,152.441,337.25z"/>
				<path style="fill-rule:evenodd;clip-rule:evenodd;fill:#2E1E11;" d="M181.45,331.198c4.05,0,7.718,1.643,10.373,4.298
					c2.655,2.653,4.296,6.321,4.296,10.372c0,4.05-1.642,7.718-4.296,10.372c-2.654,2.654-6.323,4.297-10.373,4.297
					c-4.051,0-7.718-1.643-10.373-4.297c-2.655-2.654-4.297-6.322-4.297-10.372c0-4.051,1.642-7.719,4.297-10.372
					C173.732,332.841,177.399,331.198,181.45,331.198L181.45,331.198z M190.068,337.25c-2.206-2.206-5.253-3.57-8.618-3.57
					c-3.366,0-6.413,1.364-8.618,3.57c-2.206,2.205-3.569,5.253-3.569,8.618c0,3.365,1.363,6.412,3.569,8.618
					c2.205,2.205,5.253,3.569,8.618,3.569c3.365,0,6.413-1.364,8.618-3.569c2.205-2.206,3.57-5.253,3.57-8.618
					C193.638,342.503,192.273,339.455,190.068,337.25z"/>
				<path style="fill-rule:evenodd;clip-rule:evenodd;fill:#2E1E11;" d="M129.956,344.668c0.513-0.185,1.08,0.083,1.264,0.598
					c0.184,0.513-0.083,1.079-0.598,1.264l-8.737,3.147c-0.514,0.184-1.079-0.084-1.264-0.599c-0.184-0.513,0.083-1.079,0.598-1.264
					L129.956,344.668z"/>
				<path style="fill-rule:evenodd;clip-rule:evenodd;fill:#2E1E11;" d="M194.688,346.529c-0.514-0.185-0.781-0.751-0.597-1.264
					c0.185-0.515,0.75-0.782,1.264-0.598l8.737,3.147c0.514,0.184,0.781,0.751,0.597,1.264c-0.184,0.515-0.75,0.782-1.264,0.599
					L194.688,346.529z"/>
				<path style="fill-rule:evenodd;clip-rule:evenodd;fill:#2E1E11;" d="M157.467,344.727c-0.285,0.467-0.895,0.614-1.361,0.329
					c-0.467-0.285-0.614-0.894-0.329-1.36c0.004-0.008,1.683-2.855,6.86-2.855c5.177,0,6.855,2.848,6.86,2.855
					c0.284,0.467,0.137,1.075-0.33,1.36c-0.466,0.285-1.076,0.138-1.361-0.329c-0.002-0.006-1.114-1.901-5.169-1.901
					C158.581,342.825,157.47,344.721,157.467,344.727z"/>
				<path style="fill-rule:evenodd;clip-rule:evenodd;fill:#FFFFFF;" d="M178.162,364.813c-6.232,2.314-25.171,2.267-31.051,0.279
					C150.36,376.93,175.003,376.742,178.162,364.813z"/>
				<path style="fill-rule:evenodd;clip-rule:evenodd;fill:#67627E;" d="M143.526,391.309c-0.507-0.218-1.809-0.199-1.808,0.718
					c0.002,0.992,0.93,4.406,0.265,6.928c-0.702,2.663-1.881,4.852-0.522,5.38c6.253,2.43,13.066,3.715,19.91,3.852
					c7.675,0.156,15.39-1.128,22.402-3.852c1.359-0.528,0.179-2.717-0.522-5.38c-0.665-2.522,0.263-5.936,0.265-6.928
					c0.002-0.917-1.301-0.936-1.808-0.718C169.505,396.537,155.729,396.537,143.526,391.309z"/>
				<path style="fill-rule:evenodd;clip-rule:evenodd;fill:#383546;" d="M110.873,448.314c0.004-0.41,0.338-0.739,0.748-0.736
					c0.41,0.004,0.739,0.338,0.736,0.748l-0.183,20.538c-0.003,0.41-0.338,0.739-0.747,0.736c-0.409-0.003-0.738-0.338-0.736-0.747
					L110.873,448.314z"/>
				<path style="fill-rule:evenodd;clip-rule:evenodd;fill:#383546;" d="M213.1,448.314c0.003-0.41,0.338-0.739,0.747-0.736
					c0.41,0.004,0.739,0.338,0.736,0.748l-0.183,20.538c-0.003,0.41-0.338,0.739-0.748,0.736c-0.409-0.003-0.739-0.338-0.736-0.747
					L213.1,448.314z"/>
				<path style="fill-rule:evenodd;clip-rule:evenodd;fill:#58556C;" d="M145.09,393.629c0.009-0.272,0.237-0.487,0.509-0.479
					c0.274,0.009,0.488,0.236,0.479,0.51c-0.022,0.676-0.029,1.311-0.036,1.951c-0.015,1.312-0.03,2.645-0.161,4.211
					c-0.207,2.483-1.54,4.553-1.544,4.558c-0.146,0.23-0.452,0.299-0.683,0.151c-0.229-0.147-0.297-0.452-0.15-0.683
					c0.003-0.005,1.202-1.864,1.389-4.107c0.131-1.579,0.146-2.868,0.161-4.138C145.061,394.945,145.069,394.292,145.09,393.629z"/>
				<path style="fill-rule:evenodd;clip-rule:evenodd;fill:#58556C;" d="M149.16,395.073c0.009-0.272,0.237-0.487,0.51-0.479
					c0.273,0.009,0.487,0.236,0.479,0.51c-0.022,0.676-0.029,1.311-0.036,1.951c-0.015,1.311-0.03,2.645-0.161,4.211
					c-0.207,2.483-1.541,4.552-1.545,4.558c-0.146,0.23-0.452,0.299-0.683,0.151c-0.229-0.147-0.297-0.452-0.15-0.683
					c0.003-0.005,1.202-1.865,1.389-4.108c0.131-1.579,0.146-2.868,0.161-4.138C149.131,396.39,149.139,395.736,149.16,395.073z"/>
				<path style="fill-rule:evenodd;clip-rule:evenodd;fill:#58556C;" d="M153.428,395.861c0.009-0.273,0.236-0.487,0.509-0.478
					c0.273,0.009,0.488,0.237,0.479,0.509c-0.021,0.676-0.028,1.311-0.036,1.951c-0.014,1.311-0.029,2.645-0.161,4.212
					c-0.207,2.483-1.54,4.552-1.544,4.558c-0.146,0.229-0.452,0.298-0.683,0.151c-0.23-0.147-0.297-0.452-0.15-0.682
					c0.002-0.006,1.202-1.866,1.389-4.109c0.131-1.578,0.146-2.868,0.161-4.137C153.398,397.178,153.406,396.524,153.428,395.861z"
					/>
				<path style="fill-rule:evenodd;clip-rule:evenodd;fill:#58556C;" d="M157.826,396.649c0.009-0.273,0.237-0.488,0.509-0.48
					c0.274,0.01,0.488,0.237,0.479,0.51c-0.022,0.676-0.029,1.312-0.036,1.951c-0.015,1.312-0.03,2.645-0.161,4.211
					c-0.206,2.484-1.54,4.552-1.544,4.559c-0.146,0.23-0.452,0.298-0.683,0.15c-0.229-0.147-0.297-0.451-0.15-0.682
					c0.003-0.005,1.202-1.865,1.389-4.108c0.131-1.578,0.146-2.868,0.161-4.138C157.797,397.966,157.805,397.313,157.826,396.649z"
					/>
				<path style="fill-rule:evenodd;clip-rule:evenodd;fill:#58556C;" d="M178.681,393.66c-0.008-0.273,0.206-0.501,0.479-0.51
					c0.274-0.009,0.501,0.206,0.51,0.479c0.022,0.663,0.029,1.316,0.037,1.975c0.014,1.27,0.029,2.559,0.161,4.138
					c0.187,2.243,1.385,4.103,1.389,4.107c0.147,0.23,0.079,0.536-0.151,0.683c-0.23,0.147-0.536,0.079-0.683-0.151
					c-0.003-0.005-1.338-2.074-1.545-4.558c-0.13-1.566-0.145-2.899-0.16-4.211C178.71,394.971,178.703,394.336,178.681,393.66z"/>
				<path style="fill-rule:evenodd;clip-rule:evenodd;fill:#58556C;" d="M174.61,395.104c-0.008-0.273,0.206-0.501,0.479-0.51
					c0.274-0.009,0.501,0.206,0.51,0.479c0.022,0.663,0.029,1.316,0.036,1.975c0.015,1.27,0.03,2.559,0.161,4.138
					c0.187,2.242,1.386,4.103,1.389,4.108c0.147,0.23,0.079,0.535-0.151,0.683c-0.23,0.147-0.537,0.079-0.683-0.151
					c-0.003-0.006-1.338-2.074-1.544-4.558c-0.13-1.566-0.145-2.899-0.16-4.211C174.64,396.415,174.632,395.78,174.61,395.104z"/>
				<path style="fill-rule:evenodd;clip-rule:evenodd;fill:#58556C;" d="M170.343,395.892c-0.008-0.272,0.206-0.5,0.479-0.509
					c0.273-0.009,0.501,0.205,0.51,0.478c0.021,0.663,0.028,1.316,0.036,1.975c0.014,1.269,0.029,2.559,0.161,4.137
					c0.187,2.243,1.386,4.104,1.389,4.109c0.147,0.229,0.079,0.534-0.151,0.682c-0.23,0.146-0.536,0.078-0.683-0.151
					c-0.003-0.006-1.337-2.074-1.544-4.558c-0.13-1.567-0.145-2.9-0.16-4.212C170.373,397.203,170.365,396.567,170.343,395.892z"/>
				<path style="fill-rule:evenodd;clip-rule:evenodd;fill:#58556C;" d="M165.944,396.68c-0.008-0.272,0.206-0.5,0.479-0.51
					c0.274-0.009,0.501,0.206,0.51,0.48c0.022,0.663,0.029,1.316,0.037,1.974c0.014,1.27,0.029,2.56,0.161,4.138
					c0.186,2.243,1.385,4.104,1.389,4.108c0.147,0.23,0.079,0.535-0.151,0.682c-0.23,0.147-0.536,0.079-0.683-0.15
					c-0.003-0.007-1.338-2.074-1.544-4.559c-0.13-1.566-0.145-2.899-0.16-4.211C165.974,397.991,165.966,397.355,165.944,396.68z"/>
				<path style="fill-rule:evenodd;clip-rule:evenodd;fill:#58556C;" d="M161.939,396.665c0-0.273,0.222-0.495,0.495-0.495
					c0.273,0,0.495,0.222,0.495,0.495l0.021,10.47c0,0.272-0.221,0.494-0.494,0.494c-0.273,0-0.494-0.222-0.494-0.494
					L161.939,396.665z"/>
				<path style="fill-rule:evenodd;clip-rule:evenodd;fill:#432D4C;" d="M135.529,289.755c-0.129-0.241-0.039-0.541,0.202-0.671
					c0.241-0.13,0.542-0.039,0.671,0.201c2.727,5.056,8.391,9.503,14.92,13.046c8.33,4.519,18.039,7.547,24.89,8.495
					c0.271,0.037,0.46,0.287,0.423,0.558c-0.037,0.271-0.288,0.46-0.558,0.423c-6.954-0.962-16.797-4.029-25.228-8.604
					C144.169,299.58,138.358,295.001,135.529,289.755z"/>
				<path style="fill-rule:evenodd;clip-rule:evenodd;fill:#432D4C;" d="M141.086,285.42c-0.274,0-0.496-0.222-0.496-0.495
					c0-0.274,0.222-0.496,0.496-0.496c7.978,0,15.407,1.383,22.177,3.633c7.975,2.649,15.026,6.499,20.976,10.702
					c6.27,4.43,11.33,9.432,14.972,15.496c3.643,6.066,5.861,13.184,6.445,21.84c0.018,0.272-0.188,0.51-0.462,0.527
					c-0.273,0.017-0.509-0.189-0.527-0.461c-0.573-8.492-2.742-15.466-6.305-21.398c-3.564-5.935-8.53-10.841-14.693-15.193
					c-5.883-4.156-12.849-7.96-20.716-10.574C156.284,286.784,148.96,285.42,141.086,285.42z"/>
				<path style="fill-rule:evenodd;clip-rule:evenodd;fill:#432D4C;" d="M144.708,280.909c-0.248,0.115-0.543,0.007-0.657-0.242
					c-0.114-0.247-0.006-0.542,0.243-0.656c20.355-9.376,33.608-0.045,45.037,8.003c2.824,1.988,5.536,3.897,8.198,5.409
					c0.238,0.135,0.322,0.436,0.186,0.674c-0.135,0.238-0.436,0.322-0.674,0.186c-2.712-1.539-5.439-3.46-8.28-5.46
					C177.547,280.929,164.544,271.773,144.708,280.909z"/>
				<path style="fill-rule:evenodd;clip-rule:evenodd;fill:#432D4C;" d="M131.449,298.08c-0.014-0.273,0.196-0.506,0.469-0.52
					c0.273-0.014,0.505,0.196,0.52,0.469c0.144,2.662-0.614,6.447-1.917,10.186c-1.262,3.619-3.04,7.21-5.009,9.709
					c-3.83,4.859-3.888,10.845-3.888,10.862c-0.004,0.273-0.23,0.491-0.502,0.486c-0.273-0.004-0.491-0.229-0.487-0.502
					c0-0.018,0.063-6.339,4.098-11.459c1.902-2.414,3.625-5.9,4.854-9.423C130.85,304.264,131.585,300.617,131.449,298.08z"/>
			</g>
		</g>
		<g>
			<path style="fill-rule:evenodd;clip-rule:evenodd;fill:#D68119;" d="M530.48,289.191h113.765
				c16.139,0,29.343,13.204,29.343,29.342v113.765c0,16.138-13.204,29.341-29.343,29.341H530.48
				c-16.138,0-29.341-13.203-29.341-29.341V318.533C501.14,302.396,514.343,289.191,530.48,289.191z"/>
			<g>
				<path style="fill-rule:evenodd;clip-rule:evenodd;fill:#E4AE7C;" d="M587.363,468.857H516.38
					c-0.821-36.297,27.106-57.369,51.086-65.232c1.945-10.127,1.448-23.262,1.448-23.262h18.449h18.449
					c0,0-0.496,13.135,1.449,23.262c23.981,7.863,51.907,28.935,51.086,65.232H587.363z"/>
				<path style="fill-rule:evenodd;clip-rule:evenodd;fill:#D67F54;" d="M606.06,393.388c-2.308,4.414-10.361,8.629-18.696,8.697
					c-8.053,0.067-16.393-3.862-18.696-8.109c0.232-3.33,0.308-6.466,0.321-8.886h36.79
					C605.791,387.367,605.858,390.277,606.06,393.388z"/>
				<path style="fill-rule:evenodd;clip-rule:evenodd;fill:#E4AE7C;" d="M548.289,351.252c-0.173-1.899-7.936-4.141-10.522,2.069
					c-2.588,6.21,2.069,15.008,10.867,15.698c8.798,0.69,6.211-0.862,6.211-0.862L548.289,351.252z"/>
				<path style="fill-rule:evenodd;clip-rule:evenodd;fill:#575756;" d="M587.363,468.857h-2.616h-2.616h-2.617h-2.616h-2.616
					h-2.617h-2.616h-2.617h-2.616h-2.616h-2.616h-2.617h-2.616h-2.616h-2.616h-2.617h-2.617h-2.616h-2.616h-2.617h-2.616H529.8
					h-2.616h-2.617h-2.616h-2.616h-2.616h-0.338c-0.666-29.418,17.553-48.834,37.248-59.323c0.933-0.473,1.815-0.921,2.641-1.349
					c3.746-1.836,7.517-3.353,11.197-4.56c0.097-0.506,0.188-1.021,0.274-1.54c8.03,3.54,23.044,7.456,39.328,0.47
					c0.062,0.359,0.126,0.717,0.194,1.07c3.633,1.191,7.357,2.688,11.058,4.493c0.9,0.468,1.872,0.961,2.901,1.481
					c19.648,10.505,37.792,29.9,37.127,59.258h-0.338h-2.616h-2.617h-2.616h-2.616h-2.616h-2.617h-2.616h-2.616h-2.616h-2.617
					h-2.617h-2.616h-2.616h-2.617h-2.616h-2.616h-2.616h-2.617h-2.616h-2.616h-2.616h-2.617h-2.617h-2.616h-2.616h-2.617H587.363z"
					/>
				<path style="fill-rule:evenodd;clip-rule:evenodd;fill:#E4AE7C;" d="M626.625,351.252c0.172-1.899,7.935-4.141,10.522,2.069
					c2.587,6.21-2.07,15.008-10.868,15.698c-8.797,0.69-6.21-0.862-6.21-0.862L626.625,351.252z"/>
				<path style="fill-rule:evenodd;clip-rule:evenodd;fill:#E4AE7C;" d="M587.363,393.078c-45.773,1.101-68.884-111.776,0-108.885
					C656.247,281.302,633.138,394.179,587.363,393.078z"/>
				<path style="fill-rule:evenodd;clip-rule:evenodd;fill:#D67F54;" d="M634.333,358.224c0,0.273-0.223,0.496-0.497,0.496
					c-0.273,0-0.496-0.223-0.496-0.496c0-1.508-0.261-2.455-0.679-2.971c-0.253-0.31-0.57-0.452-0.924-0.46
					c-0.406-0.01-0.87,0.142-1.352,0.416c-1.303,0.737-2.65,2.302-3.394,4.006c-0.359,0.82-0.669,1.664-0.847,2.302
					c0.763-0.53,1.603-0.741,2.312-0.67c0.404,0.041,0.771,0.171,1.07,0.386c0.314,0.227,0.549,0.541,0.666,0.936
					c0.203,0.681,0.047,1.595-0.685,2.685c-0.152,0.227-0.459,0.288-0.687,0.136c-0.227-0.151-0.288-0.459-0.136-0.687
					c0.546-0.814,0.682-1.435,0.558-1.852c-0.053-0.177-0.157-0.316-0.295-0.416c-0.155-0.111-0.357-0.181-0.588-0.204
					c-0.638-0.063-1.444,0.215-2.116,0.891c-0.181,0.181-0.349,0.283-0.505,0.316c-0.397,0.086-0.63-0.089-0.716-0.479l-0.006-0.026
					c-0.03-0.146-0.022-0.345,0.014-0.579c0.112-0.706,0.536-1.954,1.052-3.134c0.827-1.891,2.341-3.638,3.814-4.472
					c0.632-0.357,1.268-0.558,1.859-0.544c0.644,0.016,1.221,0.27,1.671,0.825C633.986,355.315,634.333,356.471,634.333,358.224z"/>
				<path style="fill-rule:evenodd;clip-rule:evenodd;fill:#D67F54;" d="M541.387,358.224c0,0.273-0.222,0.496-0.496,0.496
					c-0.274,0-0.496-0.223-0.496-0.496c0-1.753,0.347-2.909,0.904-3.595c0.451-0.556,1.028-0.81,1.672-0.825
					c0.591-0.014,1.227,0.186,1.859,0.544c1.473,0.834,2.987,2.581,3.813,4.472c0.517,1.18,0.94,2.428,1.053,3.134
					c0.037,0.234,0.044,0.433,0.015,0.579l-0.006,0.026c-0.087,0.39-0.317,0.565-0.717,0.479c-0.155-0.033-0.324-0.136-0.504-0.316
					c-0.672-0.676-1.479-0.954-2.116-0.891c-0.23,0.023-0.434,0.093-0.588,0.204c-0.14,0.1-0.242,0.239-0.295,0.416
					c-0.125,0.417,0.011,1.037,0.557,1.852c0.152,0.228,0.092,0.535-0.136,0.687c-0.227,0.152-0.534,0.091-0.686-0.136
					c-0.732-1.091-0.888-2.005-0.685-2.685c0.118-0.395,0.353-0.709,0.667-0.936c0.299-0.215,0.666-0.345,1.068-0.386
					c0.71-0.071,1.551,0.14,2.314,0.67c-0.178-0.638-0.488-1.481-0.847-2.302c-0.745-1.704-2.093-3.269-3.394-4.006
					c-0.482-0.274-0.946-0.426-1.352-0.416c-0.353,0.008-0.672,0.15-0.924,0.46C541.647,355.769,541.387,356.716,541.387,358.224z"
					/>
				<path style="fill-rule:evenodd;clip-rule:evenodd;fill:#383546;" d="M535.601,448.314c0.003-0.41,0.338-0.739,0.747-0.736
					c0.41,0.004,0.738,0.338,0.736,0.748l-0.183,20.538c-0.004,0.41-0.338,0.739-0.748,0.736c-0.409-0.003-0.739-0.338-0.735-0.747
					L535.601,448.314z"/>
				<path style="fill-rule:evenodd;clip-rule:evenodd;fill:#383546;" d="M637.826,448.314c0.003-0.41,0.338-0.739,0.747-0.736
					c0.41,0.004,0.739,0.338,0.736,0.748l-0.183,20.538c-0.004,0.41-0.338,0.739-0.748,0.736c-0.409-0.003-0.738-0.338-0.735-0.747
					L637.826,448.314z"/>
				<path style="fill-rule:evenodd;clip-rule:evenodd;fill:#784928;" d="M545.042,342.945c0.602-2.372,1.61-9.232,1.666-8.162
					c1.078,20.858,9.248,34.544,16.778,40.538c7.437,5.918-4.137-14.669,23.126-14.393c0.256-0.003,0.502,0,0.751,0.001
					c0.25-0.001,0.495-0.004,0.751-0.001c27.264-0.276,15.69,20.311,23.127,14.393c7.529-5.994,15.699-19.68,16.778-40.538
					c0.056-1.07,1.064,5.79,1.665,8.162c-4.302,25.987-20.807,50.65-42.321,50.133C565.849,393.596,549.344,368.933,545.042,342.945
					z"/>
				<path style="fill-rule:evenodd;clip-rule:evenodd;fill:#784928;" d="M546.655,350.529c0.563-1.629,0.904-5.024,0.845-9.4
					c-0.084-6.088,8.351-9.086,7.344-17.811c-2.956-25.602,16.881-16.928,32.519-16.923v-22.202l0,0
					C547.682,282.527,538.532,319.279,546.655,350.529z"/>
				<path style="fill-rule:evenodd;clip-rule:evenodd;fill:#784928;" d="M628.209,349.978c-0.479-1.685-0.827-4.814-0.982-8.85
					c-0.233-6.085-8.35-9.086-7.344-17.811c2.955-25.602-16.882-16.928-32.521-16.923v-22.202
					C626.813,282.537,636.081,318.849,628.209,349.978z"/>
				<path style="fill-rule:evenodd;clip-rule:evenodd;fill:#20201E;" d="M571.984,340.686c1.839,1.326,2.251,3.888,0.922,5.721
					c-1.328,1.834-3.895,2.246-5.733,0.921c-1.838-1.326-2.251-3.888-0.922-5.722C567.581,339.772,570.147,339.361,571.984,340.686z
					"/>
				<path style="fill-rule:evenodd;clip-rule:evenodd;fill:#20201E;" d="M602.997,340.686c-1.838,1.326-2.25,3.888-0.922,5.721
					c1.328,1.834,3.896,2.246,5.733,0.921c1.837-1.326,2.25-3.888,0.922-5.722C607.401,339.772,604.835,339.361,602.997,340.686z"/>
				<path style="fill-rule:evenodd;clip-rule:evenodd;fill:#DA9077;" d="M566.929,355.568c2.336,1.794,2.438,4.421,0.228,5.867
					c-2.21,1.446-5.896,1.165-8.233-0.629c-2.336-1.793-2.438-4.42-0.227-5.866S564.593,353.775,566.929,355.568z"/>
				<path style="fill-rule:evenodd;clip-rule:evenodd;fill:#DA9077;" d="M608.054,355.568c-2.337,1.794-2.439,4.421-0.229,5.867
					c2.211,1.446,5.896,1.165,8.232-0.629c2.336-1.793,2.438-4.42,0.228-5.866C614.075,353.494,610.39,353.775,608.054,355.568z"/>
				<path style="fill-rule:evenodd;clip-rule:evenodd;fill:#3F2716;" d="M573.777,329.555c-0.152-0.067-0.306-0.129-0.461-0.189
					c-1.789-0.645-3.306-0.819-5.238-0.68c-1.892,0.2-3.305,0.628-4.892,1.533c-0.739,0.477-3.63,2.816-2.81,3.68
					c0.335,0.092,3.213-1.379,4.059-1.653c1.315-0.389,2.382-0.537,3.775-0.508c1.299,0.059,2.277,0.247,3.462,0.704
					c0.032,0.006,0.246,0.103,0.291,0.122c2.415,1.174,2.196,1.929,3.843,0.799C578.341,332.014,575.731,330.569,573.777,329.555z"
					/>
				<path style="fill-rule:evenodd;clip-rule:evenodd;fill:#3F2716;" d="M600.95,329.555c0.152-0.067,0.305-0.129,0.461-0.189
					c1.789-0.645,3.306-0.819,5.237-0.68c1.893,0.2,3.306,0.628,4.892,1.533c0.74,0.477,3.63,2.816,2.811,3.68
					c-0.334,0.092-3.213-1.379-4.058-1.653c-1.316-0.389-2.383-0.537-3.776-0.508c-1.299,0.059-2.276,0.247-3.461,0.704
					c-0.032,0.006-0.246,0.103-0.291,0.122c-2.415,1.174-2.196,1.929-3.843,0.799C596.387,332.014,598.996,330.569,600.95,329.555z"
					/>
				<path style="fill-rule:evenodd;clip-rule:evenodd;fill:#D67F54;" d="M585.212,378.072c-0.235-0.138-0.314-0.44-0.176-0.676
					c0.138-0.235,0.44-0.315,0.676-0.177c0.683,0.399,1.552,0.6,2.422,0.6c0.868,0,1.723-0.199,2.377-0.596
					c0.233-0.142,0.537-0.066,0.679,0.167c0.142,0.232,0.066,0.537-0.167,0.679c-0.816,0.495-1.853,0.742-2.889,0.742
					C587.101,378.811,586.053,378.565,585.212,378.072z"/>
				<path style="fill-rule:evenodd;clip-rule:evenodd;fill:#D67F54;" d="M586.99,360.113c-0.274,0-0.497-0.222-0.497-0.496
					c0-0.273,0.223-0.496,0.497-0.496c1.19,0,2.613-0.011,3.713-0.197c0.903-0.153,1.567-0.398,1.567-0.81
					c0-1.428-1.446-10.303-1.45-10.328c-0.042-0.27,0.142-0.523,0.411-0.566c0.271-0.042,0.523,0.141,0.567,0.411
					c0.004,0.026,1.466,8.994,1.466,10.483c0,1.045-1.017,1.552-2.398,1.786C589.681,360.102,588.214,360.113,586.99,360.113z"/>
				<path style="fill-rule:evenodd;clip-rule:evenodd;fill:#2E1E11;" d="M568.551,331.198c4.05,0,7.718,1.643,10.372,4.298
					c2.654,2.653,4.297,6.321,4.297,10.372c0,4.05-1.643,7.718-4.297,10.372c-2.654,2.654-6.322,4.297-10.372,4.297
					c-4.051,0-7.719-1.643-10.373-4.297c-2.655-2.654-4.297-6.322-4.297-10.372c0-4.051,1.642-7.719,4.297-10.372
					C560.832,332.841,564.5,331.198,568.551,331.198L568.551,331.198z M577.169,337.25c-2.206-2.206-5.253-3.57-8.618-3.57
					c-3.366,0-6.414,1.364-8.619,3.57c-2.205,2.205-3.569,5.253-3.569,8.618c0,3.365,1.364,6.412,3.569,8.618
					c2.205,2.205,5.253,3.569,8.619,3.569c3.365,0,6.412-1.364,8.618-3.569c2.205-2.206,3.569-5.253,3.569-8.618
					C580.738,342.503,579.374,339.455,577.169,337.25z"/>
				<path style="fill-rule:evenodd;clip-rule:evenodd;fill:#2E1E11;" d="M606.177,331.198c4.051,0,7.718,1.643,10.373,4.298
					c2.654,2.653,4.297,6.321,4.297,10.372c0,4.05-1.643,7.718-4.297,10.372c-2.655,2.654-6.322,4.297-10.373,4.297
					c-4.051,0-7.718-1.643-10.372-4.297c-2.655-2.654-4.297-6.322-4.297-10.372c0-4.051,1.642-7.719,4.297-10.372
					C598.459,332.841,602.126,331.198,606.177,331.198L606.177,331.198z M614.795,337.25c-2.205-2.206-5.252-3.57-8.618-3.57
					c-3.365,0-6.413,1.364-8.618,3.57c-2.205,2.205-3.569,5.253-3.569,8.618c0,3.365,1.364,6.412,3.569,8.618
					c2.205,2.205,5.253,3.569,8.618,3.569c3.366,0,6.413-1.364,8.618-3.569c2.205-2.206,3.569-5.253,3.569-8.618
					C618.364,342.503,617,339.455,614.795,337.25z"/>
				<path style="fill-rule:evenodd;clip-rule:evenodd;fill:#2E1E11;" d="M554.683,344.668c0.514-0.185,1.08,0.083,1.264,0.598
					c0.185,0.513-0.083,1.079-0.597,1.264l-8.737,3.147c-0.514,0.184-1.079-0.084-1.264-0.599c-0.184-0.513,0.084-1.079,0.598-1.264
					L554.683,344.668z"/>
				<path style="fill-rule:evenodd;clip-rule:evenodd;fill:#2E1E11;" d="M619.415,346.529c-0.514-0.185-0.781-0.751-0.597-1.264
					c0.184-0.515,0.75-0.782,1.264-0.598l8.737,3.147c0.513,0.184,0.78,0.751,0.597,1.264c-0.185,0.515-0.75,0.782-1.264,0.599
					L619.415,346.529z"/>
				<path style="fill-rule:evenodd;clip-rule:evenodd;fill:#2E1E11;" d="M582.194,344.727c-0.285,0.467-0.894,0.614-1.361,0.329
					c-0.467-0.285-0.614-0.894-0.329-1.36c0.005-0.008,1.683-2.855,6.859-2.855c5.177,0,6.856,2.848,6.86,2.855
					c0.285,0.467,0.137,1.075-0.33,1.36c-0.466,0.285-1.075,0.138-1.36-0.329c-0.004-0.006-1.114-1.901-5.17-1.901
					C583.309,342.825,582.197,344.721,582.194,344.727z"/>
				<path style="fill-rule:evenodd;clip-rule:evenodd;fill:#FFFFFF;" d="M602.89,364.813c-6.233,2.314-25.172,2.267-31.052,0.279
					C575.087,376.93,599.729,376.742,602.89,364.813z"/>
				<path style="fill-rule:evenodd;clip-rule:evenodd;fill:#231A11;" d="M548.175,307.055c3.023,0.511,8.846,0.595,11.836-0.504
					c6.513-3.442,13.675,0.978,27.353,0.866c6.256-0.002,22.879-1.364,28.636-8.129c2.86-3.361,1.356,2.477-4.206,6.267
					c3.298,1.227,10.78,2.608,14.826,1.661c-5.884-14.069-18.31-23.902-39.256-23.022l0,0
					C566.497,283.317,554.085,293.072,548.175,307.055z"/>
				<path style="fill-rule:evenodd;clip-rule:evenodd;fill:#D57B19;" d="M561.638,405.399c0-0.822,0.667-1.488,1.489-1.488
					c0.822,0,1.488,0.666,1.488,1.488c0,9.093,2.968,19.144,7.587,26.693c4.125,6.74,9.519,11.424,15.161,11.424
					c5.754,0,11.234-4.568,15.38-11.343c4.495-7.344,7.368-17.212,7.368-26.774c0-0.822,0.666-1.488,1.489-1.488
					c0.822,0,1.488,0.666,1.488,1.488c0,10.099-3.046,20.536-7.81,28.321c-4.669,7.629-11.03,12.773-17.916,12.773
					c-6.789,0-13.055-5.27-17.697-12.855C564.777,425.649,561.638,415.017,561.638,405.399z"/>
			</g>
		</g>
		<g>
			<path style="fill-rule:evenodd;clip-rule:evenodd;fill:#9976AE;" d="M318.118,289.191h113.764
				c16.139,0,29.343,13.204,29.343,29.342v113.765c0,16.138-13.204,29.341-29.343,29.341H318.118
				c-16.139,0-29.341-13.203-29.341-29.341V318.533C288.776,302.396,301.979,289.191,318.118,289.191z"/>
			<g>
				<path style="fill-rule:evenodd;clip-rule:evenodd;fill:#3A2100;" d="M371.064,283.473c0,0,17.426-0.103,12.867-15.231
					c-5.777-19.17-41.229-14.443-42.279,10.505c-1.05,24.947-6.04,35.715-12.08,43.855c-6.04,8.141-19.695,24.685-8.141,54.621
					c11.555,29.938-5.253,34.664-5.253,34.664c2.743-0.249,9.985,2.3,14.497,1.391c12.297-2.481,31.927-11.197,31.722-17.409
					C361.514,369.096,384.981,354.377,371.064,283.473z"/>
				<path style="fill-rule:evenodd;clip-rule:evenodd;fill:#BB495C;" d="M374.564,290.883c8.13,0,14.761-5.806,14.761-12.924
					c0-7.119-6.631-12.925-14.761-12.925c-8.13,0-14.761,5.806-14.761,12.925C359.803,285.077,366.434,290.883,374.564,290.883z"/>
				<path style="fill-rule:evenodd;clip-rule:evenodd;fill:#E4AE7C;" d="M335.926,347.89c-0.172-1.896-7.935-4.14-10.523,2.07
					c-2.588,6.21,2.07,15.008,10.868,15.698c8.797,0.689,6.21-0.863,6.21-0.863L335.926,347.89z"/>
				<path style="fill-rule:evenodd;clip-rule:evenodd;fill:#E4AE7C;" d="M414.262,347.89c0.173-1.896,7.935-4.14,10.522,2.07
					c2.587,6.21-2.07,15.008-10.868,15.698c-8.798,0.689-6.21-0.863-6.21-0.863L414.262,347.89z"/>
				<path style="fill-rule:evenodd;clip-rule:evenodd;fill:#E4AE7C;" d="M374.999,468.857h-70.984
					c-0.821-36.297,27.106-57.369,51.086-65.232c1.945-10.127,1.448-23.262,1.448-23.262h18.449h18.45
					c0,0-0.497,13.135,1.448,23.262c23.98,7.863,51.908,28.935,51.086,65.232H374.999z"/>
				<path style="fill-rule:evenodd;clip-rule:evenodd;fill:#D67F54;" d="M393.45,380.363c0,0-0.099,2.603-0.037,6.386
					c-7.008,17.607-28.767,19.588-36.84,0.732c0.089-4.174-0.022-7.117-0.022-7.117C368.841,380.363,381.158,380.363,393.45,380.363
					z"/>
				<path style="fill-rule:evenodd;clip-rule:evenodd;fill:#BB495C;" d="M448.404,468.857c0.839-35.846-27.315-56.839-51.899-64.93
					c-10.362,22.99-32.799,22.428-42.811-0.064c-24.632,8.042-52.939,29.052-52.098,64.994H448.404z"/>
				<path style="fill-rule:evenodd;clip-rule:evenodd;fill:#E4AE7C;" d="M374.999,389.717c-45.773,1.1-68.883-111.776,0-108.886
					C443.884,277.94,420.773,390.816,374.999,389.717z"/>
				<path style="fill-rule:evenodd;clip-rule:evenodd;fill:#20201E;" d="M359.622,335.237c1.837,1.325,2.251,3.887,0.921,5.721
					c-1.328,1.834-3.896,2.245-5.733,0.92c-1.838-1.326-2.251-3.888-0.921-5.721C355.217,334.323,357.784,333.912,359.622,335.237z"
					/>
				<path style="fill-rule:evenodd;clip-rule:evenodd;fill:#20201E;" d="M390.634,335.237c-1.838,1.325-2.251,3.887-0.922,5.721
					c1.328,1.834,3.896,2.245,5.732,0.92c1.839-1.326,2.252-3.888,0.922-5.721C395.038,334.323,392.471,333.912,390.634,335.237z"/>
				<path style="fill-rule:evenodd;clip-rule:evenodd;fill:#DA9077;" d="M354.566,350.119c2.336,1.793,2.438,4.42,0.228,5.866
					c-2.21,1.446-5.896,1.166-8.233-0.628c-2.336-1.793-2.438-4.42-0.228-5.867C348.543,348.045,352.229,348.325,354.566,350.119z"
					/>
				<path style="fill-rule:evenodd;clip-rule:evenodd;fill:#DA9077;" d="M395.689,350.119c-2.336,1.793-2.438,4.42-0.228,5.866
					c2.21,1.446,5.897,1.166,8.232-0.628c2.337-1.793,2.438-4.42,0.229-5.867C401.712,348.045,398.026,348.325,395.689,350.119z"/>
				<path style="fill-rule:evenodd;clip-rule:evenodd;fill:#3F2716;" d="M361.414,324.104c-0.152-0.066-0.305-0.129-0.462-0.189
					c-1.788-0.645-3.305-0.82-5.237-0.681c-1.892,0.201-3.305,0.628-4.891,1.533c-0.741,0.478-3.63,2.816-2.811,3.679
					c0.334,0.094,3.213-1.377,4.058-1.651c1.316-0.389,2.383-0.538,3.776-0.509c1.299,0.059,2.277,0.248,3.46,0.705
					c0.033,0.006,0.246,0.102,0.292,0.122c2.415,1.174,2.196,1.928,3.842,0.799C365.978,326.563,363.368,325.12,361.414,324.104z"/>
				<path style="fill-rule:evenodd;clip-rule:evenodd;fill:#3F2716;" d="M388.587,324.104c0.151-0.066,0.305-0.129,0.461-0.189
					c1.788-0.645,3.306-0.82,5.237-0.681c1.893,0.201,3.306,0.628,4.892,1.533c0.74,0.478,3.63,2.816,2.811,3.679
					c-0.334,0.094-3.212-1.377-4.059-1.651c-1.315-0.389-2.382-0.538-3.775-0.509c-1.299,0.059-2.277,0.248-3.462,0.705
					c-0.031,0.006-0.245,0.102-0.291,0.122c-2.414,1.174-2.196,1.928-3.842,0.799C384.022,326.563,386.632,325.12,388.587,324.104z"
					/>
				<path style="fill-rule:evenodd;clip-rule:evenodd;fill:#FFFFFF;" d="M366.676,359.696c3.032-0.053,6.053-0.079,9.075-0.079
					c3.021,0,6.043,0.026,9.076,0.079c0,6.619-4.692,8.982-9.059,8.982h-0.017h-0.016
					C371.368,368.679,366.676,366.315,366.676,359.696z"/>
				<path style="fill-rule:evenodd;clip-rule:evenodd;fill:#88342A;" d="M384.213,363.428c-1.412,3.804-5.028,5.251-8.446,5.251
					h-0.017h-0.016c-3.418,0-7.035-1.447-8.445-5.251c2.826-0.045,5.644-0.068,8.461-0.068
					C378.568,363.359,381.386,363.383,384.213,363.428z"/>
				<path style="fill-rule:evenodd;clip-rule:evenodd;fill:#D67F54;" d="M372.848,372.623c-0.235-0.139-0.314-0.441-0.176-0.678
					c0.138-0.234,0.442-0.314,0.677-0.176c0.683,0.399,1.551,0.601,2.422,0.601c0.868,0,1.722-0.199,2.376-0.597
					c0.233-0.141,0.537-0.066,0.679,0.167s0.066,0.537-0.167,0.679c-0.816,0.495-1.853,0.743-2.888,0.743
					C374.737,373.362,373.689,373.115,372.848,372.623z"/>
				<path style="fill-rule:evenodd;clip-rule:evenodd;fill:#D67F54;" d="M374.626,350.613c-0.274,0-0.497-0.223-0.497-0.496
					c0-0.274,0.223-0.497,0.497-0.497c1.191,0,2.614-0.011,3.713-0.197c0.902-0.152,1.567-0.398,1.567-0.81
					c0-1.428-1.446-10.303-1.45-10.327c-0.043-0.271,0.142-0.524,0.411-0.566c0.271-0.043,0.523,0.141,0.565,0.41
					c0.004,0.026,1.467,8.994,1.467,10.483c0,1.045-1.017,1.553-2.397,1.786C377.316,350.601,375.851,350.613,374.626,350.613z"/>
				<path style="fill-rule:evenodd;clip-rule:evenodd;fill:#D67F54;" d="M421.969,354.861c0,0.274-0.222,0.496-0.496,0.496
					c-0.273,0-0.496-0.222-0.496-0.496c0-1.507-0.261-2.454-0.68-2.97c-0.252-0.31-0.569-0.452-0.923-0.461
					c-0.406-0.009-0.87,0.143-1.352,0.416c-1.303,0.738-2.65,2.303-3.395,4.006c-0.358,0.821-0.669,1.665-0.846,2.303
					c0.762-0.53,1.603-0.741,2.312-0.671c0.404,0.041,0.771,0.173,1.069,0.388c0.315,0.226,0.549,0.54,0.667,0.934
					c0.203,0.682,0.046,1.595-0.685,2.686c-0.152,0.227-0.459,0.287-0.686,0.136c-0.227-0.152-0.288-0.459-0.136-0.686
					c0.546-0.814,0.682-1.435,0.558-1.853c-0.054-0.177-0.157-0.315-0.296-0.415c-0.154-0.111-0.357-0.181-0.588-0.204
					c-0.638-0.063-1.444,0.215-2.116,0.89c-0.18,0.182-0.349,0.283-0.504,0.317c-0.399,0.085-0.63-0.09-0.716-0.479l-0.007-0.026
					c-0.028-0.147-0.021-0.345,0.015-0.579c0.112-0.705,0.536-1.954,1.052-3.134c0.827-1.891,2.342-3.637,3.814-4.472
					c0.632-0.358,1.269-0.557,1.86-0.543c0.643,0.014,1.22,0.27,1.672,0.823C421.622,351.953,421.969,353.109,421.969,354.861z"/>
				<path style="fill-rule:evenodd;clip-rule:evenodd;fill:#D67F54;" d="M329.023,354.861c0,0.274-0.222,0.496-0.497,0.496
					c-0.273,0-0.497-0.222-0.497-0.496c0-1.752,0.348-2.908,0.905-3.595c0.451-0.554,1.027-0.81,1.671-0.823
					c0.591-0.014,1.227,0.185,1.859,0.543c1.473,0.835,2.987,2.581,3.814,4.472c0.516,1.18,0.94,2.429,1.052,3.134
					c0.038,0.234,0.045,0.432,0.014,0.579l-0.005,0.026c-0.087,0.39-0.318,0.564-0.716,0.479c-0.155-0.034-0.324-0.136-0.505-0.317
					c-0.671-0.675-1.478-0.953-2.116-0.89c-0.23,0.023-0.433,0.093-0.588,0.204c-0.138,0.1-0.242,0.238-0.294,0.415
					c-0.125,0.418,0.011,1.038,0.557,1.853c0.152,0.228,0.092,0.534-0.135,0.686c-0.227,0.151-0.535,0.091-0.687-0.136
					c-0.731-1.092-0.888-2.005-0.685-2.686c0.117-0.394,0.352-0.708,0.667-0.934c0.298-0.215,0.666-0.347,1.069-0.388
					c0.709-0.07,1.55,0.141,2.312,0.671c-0.178-0.638-0.487-1.482-0.847-2.303c-0.745-1.703-2.092-3.268-3.395-4.006
					c-0.481-0.273-0.945-0.425-1.351-0.416c-0.353,0.009-0.672,0.151-0.923,0.461C329.284,352.407,329.023,353.354,329.023,354.861z
					"/>
				<path style="fill-rule:evenodd;clip-rule:evenodd;fill:#4E2C0B;" d="M333.695,347.022c-30.923-94.866,111.289-97.6,82.215-0.525
					c-2.704,7.963-8.321-28.27-8.327-28.51c-0.059-2.357-4.692-14.121-10.489-15.337c-18.114-3.797-54.494,7.959-54.677,15.337
					c-0.006,0.263-2.509,13.014-5.037,21.667C335.629,345.648,334.652,350.466,333.695,347.022z"/>
				<path style="fill-rule:evenodd;clip-rule:evenodd;fill:#4E2C0B;" d="M415.993,345.969c-0.178,1.749-5.551,31.332-5.6,31.49
					c-2.533-6.549,1.249-24.565,1.929-31.936c0.226-4.029-0.63-10.261,1.287-10.117
					C416.236,334.334,416.084,344.018,415.993,345.969z"/>
				<path style="fill-rule:evenodd;clip-rule:evenodd;fill:#4E2C0B;" d="M333.613,345.706c0.178,1.749,5.944,31.595,5.992,31.753
					c2.534-6.549-1.248-24.565-1.927-31.936c-0.227-4.029,0.629-10.261-1.288-10.117
					C333.764,334.334,333.522,343.756,333.613,345.706z"/>
				<path style="fill-rule:evenodd;clip-rule:evenodd;fill:#623A1C;" d="M378.176,308.706c0.81,3.186-7.467,11.82-5.64,12.82
					c3.099,1.695,15.829-1.117,24.726-11.175c1.119-1.267,1.288,3.302,4.475,7.092c3.597,4.276,10.283,7.995,12.324,9.332
					c1.946,1.275,1.974,0.667,2.476-1.959c2.046-10.708-4.324-42.904-41.537-42.904c-41.792,0-44.683,40.612-40.438,45.782
					c10.757-2.009,28.745-19.513,26.795-16.638c-2.056,3.034-11.667,10.959-9.148,10.972
					C366.417,322.1,378.114,308.463,378.176,308.706z"/>
				<path style="fill-rule:evenodd;clip-rule:evenodd;fill:#E4AE7C;" d="M374.999,447.034c1.375,0,2.495-5.25,2.495-11.686
					c0-6.436-1.12-11.686-2.495-11.686c-1.373,0-2.495,5.25-2.495,11.686C372.505,441.784,373.626,447.034,374.999,447.034z"/>
				<path style="fill-rule:evenodd;clip-rule:evenodd;fill:#B4283F;" d="M323.236,448.314c0.003-0.41,0.338-0.739,0.748-0.736
					c0.409,0.004,0.739,0.338,0.735,0.748l-0.183,20.538c-0.003,0.41-0.338,0.739-0.747,0.736c-0.411-0.003-0.739-0.338-0.736-0.747
					L323.236,448.314z"/>
				<path style="fill-rule:evenodd;clip-rule:evenodd;fill:#B4283F;" d="M425.463,448.314c0.003-0.41,0.338-0.739,0.747-0.736
					c0.409,0.004,0.739,0.338,0.736,0.748l-0.184,20.538c-0.003,0.41-0.338,0.739-0.746,0.736c-0.41-0.003-0.739-0.338-0.736-0.747
					L425.463,448.314z"/>
				<path style="fill-rule:evenodd;clip-rule:evenodd;fill:#7C5032;" d="M342.067,317.363c-0.213,0.171-0.524,0.137-0.695-0.076
					c-0.172-0.213-0.138-0.524,0.076-0.696c0.869-0.7,2.286-1.833,3.8-3.043c9.978-7.978,24.956-19.954,28.26-25.195
					c0.147-0.231,0.452-0.301,0.683-0.156c0.231,0.147,0.301,0.452,0.156,0.683c-3.391,5.378-18.451,17.42-28.482,25.44
					C344.628,315.308,343.483,316.223,342.067,317.363z"/>
				<path style="fill-rule:evenodd;clip-rule:evenodd;fill:#7C5032;" d="M357.955,320.12c-0.213,0.172-0.524,0.138-0.696-0.076
					c-0.171-0.212-0.137-0.524,0.076-0.695c3.179-2.561,12.275-10.788,18.947-18.643c4.046-4.763,7.188-9.364,7.525-12.406
					c0.029-0.271,0.274-0.468,0.546-0.438c0.273,0.03,0.469,0.274,0.439,0.547c-0.361,3.267-3.596,8.043-7.753,12.938
					C370.322,309.253,361.16,317.539,357.955,320.12z"/>
				<path style="fill-rule:evenodd;clip-rule:evenodd;fill:#7C5032;" d="M381.09,317.998c-0.201,0.185-0.515,0.173-0.7-0.029
					c-0.184-0.201-0.172-0.515,0.029-0.699c3.433-3.164,6.376-6.603,8.504-10.08c1.972-3.222,3.242-6.473,3.551-9.563
					c0.649-6.507,0.526-7.367,0.526-7.37c-0.036-0.271,0.154-0.52,0.425-0.556c0.27-0.037,0.52,0.153,0.557,0.424
					c0,0.003,0.139,0.976-0.523,7.6c-0.325,3.245-1.645,6.638-3.689,9.98C387.591,311.265,384.588,314.775,381.09,317.998z"/>
				<path style="fill-rule:evenodd;clip-rule:evenodd;fill:#7C5032;" d="M410.79,313.24c0.033,0.271-0.161,0.52-0.433,0.553
					c-0.271,0.033-0.518-0.16-0.553-0.433c-0.49-3.921-2.044-7.812-3.861-11.156c-2.958-5.445-6.529-9.403-7.369-9.709
					c-0.257-0.094-0.39-0.377-0.297-0.634c0.094-0.258,0.377-0.391,0.635-0.297c0.951,0.346,4.83,4.517,7.899,10.166
					C408.683,305.175,410.283,309.185,410.79,313.24z"/>
				<path style="fill-rule:evenodd;clip-rule:evenodd;fill:#B4283F;" d="M384.243,274.806c0.086,0.258-0.055,0.538-0.314,0.624
					c-0.259,0.085-0.539-0.056-0.625-0.314c-0.621-1.863-1.389-3.801-2.107-5.263c-0.591-1.203-1.112-2.05-1.424-2.184
					c-0.252-0.107-0.37-0.397-0.263-0.649c0.108-0.251,0.398-0.369,0.65-0.262c0.549,0.235,1.235,1.256,1.926,2.66
					C382.822,270.918,383.608,272.9,384.243,274.806z"/>
				<path style="fill-rule:evenodd;clip-rule:evenodd;fill:#B4283F;" d="M366.393,274.971c-0.079,0.262-0.355,0.412-0.617,0.334
					c-0.263-0.079-0.412-0.354-0.334-0.617c0.527-1.758,1.307-3.245,2.11-4.44c1.371-2.038,2.846-3.244,3.246-3.468
					c0.238-0.132,0.54-0.046,0.672,0.192c0.133,0.239,0.047,0.54-0.192,0.673c-0.344,0.191-1.637,1.268-2.905,3.153
					C367.62,271.919,366.888,273.317,366.393,274.971z"/>
				<path style="fill-rule:evenodd;clip-rule:evenodd;fill:#B4283F;" d="M375.473,274.172c0,0.275-0.221,0.496-0.496,0.496
					c-0.274,0-0.497-0.221-0.497-0.496c0-1.647,0.527-7.12,0.529-7.137c0.025-0.271,0.267-0.472,0.539-0.446
					c0.271,0.026,0.471,0.268,0.446,0.539C375.993,267.145,375.473,272.537,375.473,274.172z"/>
				<path style="fill-rule:evenodd;clip-rule:evenodd;fill:#B4283F;" d="M348.115,405.69c-0.033-0.271,0.162-0.518,0.433-0.553
					c0.271-0.032,0.519,0.161,0.552,0.433c0.563,4.5,3.336,9.708,7.946,13.406c3.769,3.022,8.765,5.03,14.785,4.805
					c0.273-0.01,0.503,0.204,0.513,0.477c0.009,0.273-0.204,0.503-0.478,0.513c-6.283,0.235-11.502-1.863-15.44-5.023
					C351.608,415.883,348.707,410.419,348.115,405.69z"/>
				<path style="fill-rule:evenodd;clip-rule:evenodd;fill:#B4283F;" d="M400.899,405.57c0.033-0.272,0.28-0.465,0.552-0.433
					c0.272,0.034,0.466,0.281,0.433,0.553c-0.591,4.729-3.492,10.192-8.309,14.058c-3.94,3.159-9.157,5.258-15.441,5.023
					c-0.272-0.01-0.486-0.239-0.477-0.513c0.01-0.272,0.238-0.486,0.512-0.477c6.021,0.225,11.017-1.782,14.785-4.805
					C397.564,415.278,400.337,410.07,400.899,405.57z"/>
			</g>
		</g>
	</g>
</g>
</svg>
