<?xml version="1.0" encoding="utf-8"?>
<!-- Generator: Adobe Illustrator 27.5.0, SVG Export Plug-In . SVG Version: 6.00 Build 0)  -->
<svg version="1.1" xmlns="http://www.w3.org/2000/svg" xmlns:xlink="http://www.w3.org/1999/xlink" x="0px" y="0px"
	 viewBox="170 -90 400 400" style="enable-background:new 0 0 800 800;" xml:space="preserve">
<g id="OBJECTS">
	<g>
		<g>
			<path style="fill-rule:evenodd;clip-rule:evenodd;fill:#E1A21F;" d="M318.118,52.755h113.764
				c16.139,0,29.343,13.204,29.343,29.342v113.764c0,16.138-13.204,29.342-29.343,29.342H318.118
				c-16.139,0-29.341-13.204-29.341-29.342V82.097C288.776,65.959,301.979,52.755,318.118,52.755z"/>
			<g>
				<path style="fill-rule:evenodd;clip-rule:evenodd;fill:#2E1E11;" d="M320.037,102.889c2.097,11.015,4.94,16.22,5.236,22.288
					c0.312,6.384-9.157,12.679-13.735,14.704c5.586,16.774,17.352,14.914,25.03,15.659c7.678,0.747,3.929,12.166,24.239,11.309
					l9.684-69.475L320.037,102.889L320.037,102.889z M381.886,104.465l7.322,62.384c20.31,0.857,16.56-10.562,24.238-11.309
					c7.678-0.745,19.444,1.115,25.03-15.659c-4.578-2.025-14.047-8.32-13.735-14.704c0.296-6.067,2.778-10.813,4.974-20.647
					l-11.978-4.873L381.886,104.465z"/>
				<path style="fill-rule:evenodd;clip-rule:evenodd;fill:#E4AE7C;" d="M335.926,111.454c-0.172-1.898-7.935-4.14-10.523,2.07
					c-2.588,6.21,2.07,15.008,10.868,15.698c8.797,0.69,6.21-0.862,6.21-0.862L335.926,111.454z"/>
				<path style="fill-rule:evenodd;clip-rule:evenodd;fill:#E4AE7C;" d="M414.262,111.454c0.173-1.898,7.935-4.14,10.522,2.07
					c2.587,6.21-2.07,15.008-10.868,15.698c-8.798,0.69-6.21-0.862-6.21-0.862L414.262,111.454z"/>
				<path style="fill-rule:evenodd;clip-rule:evenodd;fill:#E4AE7C;" d="M374.999,232.422h-70.984
					c-0.821-36.298,27.106-57.37,51.086-65.232c1.945-10.128,1.448-23.263,1.448-23.263h18.449h18.45c0,0-0.497,13.136,1.448,23.263
					c23.98,7.863,51.908,28.934,51.086,65.232H374.999z"/>
				<path style="fill-rule:evenodd;clip-rule:evenodd;fill:#D67F54;" d="M393.45,143.926c0,0-0.099,2.605-0.037,6.386
					c-7.008,17.607-28.767,19.588-36.84,0.732c0.089-4.174-0.022-7.118-0.022-7.118C368.841,143.926,381.158,143.926,393.45,143.926
					z"/>
				<path style="fill-rule:evenodd;clip-rule:evenodd;fill:#AF2A3A;" d="M448.404,232.422c0.839-35.847-27.315-56.84-51.899-64.93
					c-4.922,10.92-37.943,10.871-42.811-0.064c-24.632,8.042-52.939,29.052-52.098,64.995H448.404z"/>
				<path style="fill-rule:evenodd;clip-rule:evenodd;fill:#39271F;" d="M447.543,220.371c-1.206-7.04-3.599-13.389-6.849-19.067
					H309.305c-3.25,5.678-5.643,12.027-6.847,19.067H447.543z"/>
				<path style="fill-rule:evenodd;clip-rule:evenodd;fill:#39271F;" d="M424.07,182.236c-8.535-6.816-18.304-11.696-27.565-14.745
					c-4.922,10.92-37.943,10.871-42.811-0.064c-9.321,3.043-19.167,7.945-27.763,14.809H424.07z"/>
				<path style="fill-rule:evenodd;clip-rule:evenodd;fill:#E4AE7C;" d="M374.999,153.281c-45.773,1.1-68.883-111.777,0-108.885
					C443.884,41.504,420.773,154.38,374.999,153.281z"/>
				<path style="fill-rule:evenodd;clip-rule:evenodd;fill:#20201E;" d="M359.622,98.801c1.837,1.325,2.251,3.887,0.921,5.72
					c-1.328,1.834-3.896,2.246-5.733,0.92c-1.838-1.325-2.251-3.887-0.921-5.721C355.217,97.887,357.784,97.475,359.622,98.801z"/>
				<path style="fill-rule:evenodd;clip-rule:evenodd;fill:#20201E;" d="M390.634,98.801c-1.838,1.325-2.251,3.887-0.922,5.72
					c1.328,1.834,3.896,2.246,5.732,0.92c1.839-1.325,2.252-3.887,0.922-5.721C395.038,97.887,392.471,97.475,390.634,98.801z"/>
				<path style="fill-rule:evenodd;clip-rule:evenodd;fill:#DA9077;" d="M354.566,113.682c2.336,1.795,2.438,4.42,0.228,5.868
					c-2.21,1.446-5.896,1.165-8.233-0.628c-2.336-1.794-2.438-4.42-0.228-5.867C348.543,111.608,352.229,111.889,354.566,113.682z"
					/>
				<path style="fill-rule:evenodd;clip-rule:evenodd;fill:#DA9077;" d="M395.689,113.682c-2.336,1.795-2.438,4.42-0.228,5.868
					c2.21,1.446,5.897,1.165,8.232-0.628c2.337-1.794,2.438-4.42,0.229-5.867C401.712,111.608,398.026,111.889,395.689,113.682z"/>
				<path style="fill-rule:evenodd;clip-rule:evenodd;fill:#3F2716;" d="M361.414,87.668c-0.152-0.066-0.305-0.129-0.462-0.188
					c-1.788-0.645-3.305-0.82-5.237-0.681c-1.892,0.201-3.305,0.628-4.891,1.533c-0.741,0.478-3.63,2.817-2.811,3.679
					c0.334,0.092,3.213-1.378,4.058-1.652c1.316-0.388,2.383-0.538,3.776-0.509c1.299,0.059,2.277,0.248,3.46,0.705
					c0.033,0.005,0.246,0.102,0.292,0.122c2.415,1.173,2.196,1.928,3.842,0.799C365.978,90.127,363.368,88.684,361.414,87.668z"/>
				<path style="fill-rule:evenodd;clip-rule:evenodd;fill:#3F2716;" d="M388.587,87.668c0.151-0.066,0.305-0.129,0.461-0.188
					c1.788-0.645,3.306-0.82,5.237-0.681c1.893,0.201,3.306,0.628,4.892,1.533c0.74,0.478,3.63,2.817,2.811,3.679
					c-0.334,0.092-3.212-1.378-4.059-1.652c-1.315-0.388-2.382-0.538-3.775-0.509c-1.299,0.059-2.277,0.248-3.462,0.705
					c-0.031,0.005-0.245,0.102-0.291,0.122c-2.414,1.173-2.196,1.928-3.842,0.799C384.022,90.127,386.632,88.684,388.587,87.668z"/>
				<path style="fill-rule:evenodd;clip-rule:evenodd;fill:#FFFFFF;" d="M363.126,123.26c4.219-0.053,8.422-0.079,12.624-0.079
					c4.204,0,8.406,0.026,12.625,0.079c0,6.619-6.527,8.983-12.601,8.983l-0.023-0.001l-0.022,0.001
					C369.654,132.243,363.126,129.879,363.126,123.26z"/>
				<path style="fill-rule:evenodd;clip-rule:evenodd;fill:#D67F54;" d="M372.848,136.187c-0.235-0.138-0.314-0.442-0.176-0.677
					c0.138-0.235,0.442-0.314,0.677-0.176c0.683,0.4,1.551,0.6,2.422,0.6c0.868,0,1.722-0.199,2.376-0.596
					c0.233-0.141,0.537-0.067,0.679,0.167c0.142,0.233,0.066,0.538-0.167,0.678c-0.816,0.495-1.853,0.744-2.888,0.744
					C374.737,136.926,373.689,136.679,372.848,136.187z"/>
				<path style="fill-rule:evenodd;clip-rule:evenodd;fill:#D67F54;" d="M374.626,114.177c-0.274,0-0.497-0.223-0.497-0.496
					c0-0.274,0.223-0.497,0.497-0.497c1.191,0,2.614-0.011,3.713-0.197c0.902-0.153,1.567-0.398,1.567-0.81
					c0-1.427-1.446-10.302-1.45-10.328c-0.043-0.27,0.142-0.523,0.411-0.566c0.271-0.043,0.523,0.142,0.565,0.411
					c0.004,0.026,1.467,8.994,1.467,10.483c0,1.046-1.017,1.553-2.397,1.787C377.316,114.165,375.851,114.177,374.626,114.177z"/>
				<path style="fill-rule:evenodd;clip-rule:evenodd;fill:#D67F54;" d="M421.969,118.425c0,0.274-0.222,0.497-0.496,0.497
					c-0.273,0-0.496-0.222-0.496-0.497c0-1.506-0.261-2.455-0.68-2.97c-0.252-0.31-0.569-0.452-0.923-0.46
					c-0.406-0.01-0.87,0.143-1.352,0.416c-1.303,0.737-2.65,2.302-3.395,4.006c-0.358,0.821-0.669,1.664-0.846,2.302
					c0.762-0.53,1.603-0.741,2.312-0.67c0.404,0.041,0.771,0.171,1.069,0.386c0.315,0.227,0.549,0.541,0.667,0.935
					c0.203,0.68,0.046,1.595-0.685,2.686c-0.152,0.227-0.459,0.287-0.686,0.135c-0.227-0.152-0.288-0.459-0.136-0.687
					c0.546-0.813,0.682-1.435,0.558-1.852c-0.054-0.177-0.157-0.316-0.296-0.416c-0.154-0.111-0.357-0.181-0.588-0.204
					c-0.638-0.064-1.444,0.214-2.116,0.89c-0.18,0.181-0.349,0.283-0.504,0.317c-0.399,0.086-0.63-0.09-0.716-0.479l-0.007-0.027
					c-0.028-0.147-0.021-0.344,0.015-0.579c0.112-0.705,0.536-1.954,1.052-3.133c0.827-1.891,2.342-3.637,3.814-4.472
					c0.632-0.357,1.269-0.557,1.86-0.543c0.643,0.015,1.22,0.27,1.672,0.825C421.622,115.517,421.969,116.673,421.969,118.425z"/>
				<path style="fill-rule:evenodd;clip-rule:evenodd;fill:#D67F54;" d="M329.023,118.425c0,0.274-0.222,0.497-0.497,0.497
					c-0.273,0-0.497-0.222-0.497-0.497c0-1.752,0.348-2.908,0.905-3.594c0.451-0.555,1.027-0.81,1.671-0.825
					c0.591-0.013,1.227,0.186,1.859,0.543c1.473,0.835,2.987,2.582,3.814,4.472c0.516,1.18,0.94,2.428,1.052,3.133
					c0.038,0.235,0.045,0.432,0.014,0.579l-0.005,0.027c-0.087,0.39-0.318,0.565-0.716,0.479c-0.155-0.034-0.324-0.136-0.505-0.317
					c-0.671-0.676-1.478-0.955-2.116-0.89c-0.23,0.023-0.433,0.093-0.588,0.204c-0.138,0.1-0.242,0.239-0.294,0.416
					c-0.125,0.417,0.011,1.038,0.557,1.852c0.152,0.227,0.092,0.535-0.135,0.687c-0.227,0.152-0.535,0.092-0.687-0.135
					c-0.731-1.091-0.888-2.006-0.685-2.686c0.117-0.395,0.352-0.709,0.667-0.935c0.298-0.215,0.666-0.345,1.069-0.386
					c0.709-0.071,1.55,0.14,2.312,0.67c-0.178-0.637-0.487-1.481-0.847-2.302c-0.745-1.704-2.092-3.269-3.395-4.006
					c-0.481-0.273-0.945-0.426-1.351-0.416c-0.353,0.008-0.672,0.15-0.923,0.46C329.284,115.97,329.023,116.919,329.023,118.425z"/>
				<path style="fill-rule:evenodd;clip-rule:evenodd;fill:#27170C;" d="M323.236,211.877c0.003-0.409,0.338-0.739,0.748-0.736
					c0.409,0.003,0.739,0.338,0.735,0.747l-0.183,20.539c-0.003,0.41-0.338,0.739-0.747,0.736c-0.411-0.003-0.739-0.338-0.736-0.748
					L323.236,211.877z"/>
				<path style="fill-rule:evenodd;clip-rule:evenodd;fill:#27170C;" d="M425.463,211.877c0.003-0.409,0.338-0.739,0.747-0.736
					c0.409,0.003,0.739,0.338,0.736,0.747l-0.184,20.539c-0.003,0.41-0.338,0.739-0.746,0.736c-0.41-0.003-0.739-0.338-0.736-0.748
					L425.463,211.877z"/>
				<path style="fill-rule:evenodd;clip-rule:evenodd;fill:#7E583E;" d="M331.404,101.051c0.657,6.565,6.434,16.544,7.616,19.433
					c1.182,2.889,0.131-9.322,0.131-24.947S331.404,101.051,331.404,101.051z"/>
				<path style="fill-rule:evenodd;clip-rule:evenodd;fill:#7E583E;" d="M418.794,101.051c-0.656,6.565-6.434,16.544-7.615,19.433
					c-1.183,2.889-0.132-9.322-0.132-24.947S418.794,101.051,418.794,101.051z"/>
				<path style="fill-rule:evenodd;clip-rule:evenodd;fill:#4C3124;" d="M368.629,57.417c-5.496-0.003-10.715,10.312-11.182,18.928
					c-1.658,30.569-31.03,20.055-34.287,39.049c-1.191-3.545-4.18-15.494-4.499-16.993c-2.383-11.207,12.404-24.08,15.183-36.057
					c2.833-12.212,9.847-21.701,18.533-25.966c7.591-3.726,16.091-3.577,20.165,0.988c1.263,1.01,2.455,2.201,2.455,2.201
					s1.036-1.033,2.198-1.992c3.988-4.981,12.786-5.247,20.684-1.198c8.512,4.363,15.497,13.999,18.273,25.966
					c2.778,11.977,17.566,24.851,15.183,36.057c-0.318,1.5-3.308,13.448-4.498,16.993c-3.256-18.994-29.571-9.537-32.794-39.981
					c-1.118-10.564-5.945-15.731-10.617-16.609c-0.528-0.099-4.394-1.291-7.978,4.316C374.551,64.526,373.944,57.42,368.629,57.417z
					"/>
				<path style="fill-rule:evenodd;clip-rule:evenodd;fill:#4E2C0B;" d="M324.395,106.484c-0.154,0.226-0.462,0.283-0.688,0.129
					c-0.226-0.154-0.284-0.462-0.13-0.688c0.372-0.543,0.741-1.108,1.104-1.663c2.841-4.343,5.238-8.007,15.2-10.616
					c9.399-2.461,11.141-14.415,12.659-24.836c0.207-1.417,0.409-2.807,0.632-4.176c0.343-2.111,0.923-4.01,1.67-5.69
					c1.492-3.358,3.652-5.837,5.94-7.396c2.326-1.586,4.801-2.229,6.867-1.893c0.505,0.082,0.988,0.225,1.441,0.425l4.727,2.101
					c0.249,0.111,0.362,0.402,0.252,0.652c-0.11,0.25-0.402,0.362-0.652,0.252l-4.727-2.101c-0.372-0.165-0.774-0.283-1.201-0.352
					c-1.822-0.297-4.036,0.293-6.15,1.733c-2.151,1.466-4.185,3.804-5.595,6.977c-0.712,1.603-1.266,3.42-1.597,5.45
					c-0.213,1.314-0.418,2.722-0.627,4.157c-1.562,10.724-3.354,23.025-13.392,25.654c-9.588,2.511-11.89,6.03-14.619,10.202
					C325.16,105.343,324.8,105.892,324.395,106.484z"/>
				<path style="fill-rule:evenodd;clip-rule:evenodd;fill:#4E2C0B;" d="M323.665,93.026c-0.111,0.251-0.403,0.364-0.654,0.255
					c-0.25-0.111-0.364-0.404-0.253-0.654c1.113-2.519,2.523-4.242,4.284-5.502h-0.001c1.743-1.248,3.815-2.026,6.275-2.671
					c9.399-2.461,11.141-14.415,12.659-24.836c0.206-1.417,0.409-2.807,0.632-4.176c0.314-1.931,0.853-3.698,1.586-5.277
					c1.477-3.187,3.735-5.619,6.512-7.111c2.778-1.493,6.066-2.042,9.601-1.468c1.726,0.281,3.509,0.831,5.318,1.669
					c0.248,0.114,0.357,0.409,0.242,0.656c-0.115,0.249-0.409,0.357-0.657,0.242c-1.728-0.8-3.425-1.324-5.062-1.59
					c-3.313-0.54-6.386-0.028-8.974,1.363c-2.588,1.391-4.698,3.666-6.082,6.653c-0.695,1.501-1.209,3.183-1.508,5.022
					c-0.213,1.314-0.418,2.722-0.628,4.156c-1.562,10.724-3.355,23.026-13.392,25.654c-2.345,0.615-4.312,1.351-5.945,2.519h-0.002
					C326.002,89.087,324.701,90.682,323.665,93.026z"/>
				<path style="fill-rule:evenodd;clip-rule:evenodd;fill:#4E2C0B;" d="M428.124,105.925c0.154,0.226,0.096,0.534-0.13,0.688
					c-0.225,0.154-0.534,0.097-0.688-0.129c-0.404-0.592-0.763-1.141-1.115-1.679c-2.728-4.171-5.03-7.69-14.618-10.202
					c-10.037-2.628-11.83-14.93-13.393-25.654c-0.208-1.435-0.413-2.842-0.628-4.157c-0.33-2.03-0.883-3.848-1.596-5.45
					c-1.41-3.173-3.444-5.511-5.596-6.977c-2.113-1.44-4.327-2.03-6.149-1.733c-0.427,0.069-0.83,0.187-1.202,0.352l-4.727,2.101
					c-0.249,0.11-0.541-0.002-0.651-0.252c-0.11-0.25,0.003-0.541,0.252-0.652l4.727-2.101c0.454-0.201,0.938-0.343,1.442-0.425
					c2.066-0.336,4.54,0.308,6.867,1.893c2.288,1.559,4.448,4.038,5.941,7.396c0.747,1.681,1.326,3.579,1.67,5.69
					c0.223,1.37,0.426,2.759,0.632,4.176c1.518,10.421,3.26,22.374,12.659,24.836c9.963,2.609,12.359,6.273,15.2,10.616
					C427.383,104.816,427.753,105.381,428.124,105.925z"/>
				<path style="fill-rule:evenodd;clip-rule:evenodd;fill:#4E2C0B;" d="M428.944,92.627c0.109,0.25-0.004,0.543-0.254,0.654
					c-0.251,0.109-0.543-0.004-0.653-0.255c-1.036-2.343-2.338-3.938-3.954-5.096l-0.024-0.018
					c-1.627-1.157-3.587-1.889-5.921-2.501c-10.037-2.628-11.83-14.93-13.393-25.654c-0.209-1.435-0.414-2.842-0.628-4.156
					c-0.3-1.84-0.813-3.521-1.509-5.022c-1.384-2.987-3.493-5.262-6.082-6.653c-2.588-1.391-5.661-1.902-8.973-1.363
					c-1.637,0.266-3.334,0.79-5.061,1.59c-0.249,0.115-0.543,0.007-0.658-0.242c-0.114-0.247-0.005-0.542,0.243-0.656
					c1.809-0.838,3.592-1.388,5.317-1.669c3.535-0.575,6.824-0.025,9.601,1.468c2.777,1.492,5.036,3.924,6.514,7.111
					c0.731,1.579,1.272,3.347,1.586,5.277c0.223,1.37,0.425,2.759,0.631,4.176c1.518,10.421,3.261,22.375,12.66,24.836
					c2.445,0.641,4.508,1.414,6.245,2.651l0.03,0.02C426.42,88.383,427.83,90.106,428.944,92.627z"/>
			</g>
		</g>
	</g>
</g>
</svg>
