<?xml version="1.0" encoding="utf-8"?>
<!-- Generator: Adobe Illustrator 27.5.0, SVG Export Plug-In . SVG Version: 6.00 Build 0)  -->
<svg version="1.1" xmlns="http://www.w3.org/2000/svg" xmlns:xlink="http://www.w3.org/1999/xlink" x="0px" y="0px"
	 viewBox="0 0 500 500" style="enable-background:new 0 0 500 500;" xml:space="preserve">
<g id="OBJECTS">
	<g>
		<g>
			<g>
				<path style="fill:#FFF200;" d="M341.03,325.788v-165.82c0-21.124-17.124-38.248-38.248-38.248H187.288
					c-21.124,0-38.248,17.124-38.248,38.248v165.82H341.03z"/>
				<path style="fill:#C1E200;" d="M200.944,235.122c2,9,8,21,15,23c40.208,13.707,82.92,13.219,125.086,13.796v-111.95
					c0-21.124-17.124-38.248-38.248-38.248H187.288c-11.408,0-21.644,5.001-28.651,12.923
					C191.748,154.794,190.598,199.38,200.944,235.122z"/>
			</g>
			<g>
				<path style="fill:#3A3A3A;" d="M331.901,277.483c-0.769,0-1.541-0.031-2.318-0.095l-98.504-8.041
					c-15.109-1.233-27.865-11.908-31.742-26.563l-19.204-72.588c-3.405-12.907-6.927-26.252-21.974-30.295l-42.833-8.806
					c-3.246-0.667-5.336-3.839-4.668-7.085s3.844-5.335,7.085-4.668l43.318,8.915c21.94,5.773,26.988,24.908,30.674,38.878
					l0.247,0.935l18.955,71.646c2.58,9.75,11.066,16.851,21.118,17.672l98.504,8.041c7.832,0.641,15.029-4.394,17.118-11.966
					l18.147-65.781l-125.784-10.333c-2.721-0.221-5.287,0.842-7.049,2.924c-1.762,2.081-2.389,4.791-1.721,7.435l5.614,22.203
					c1.856,7.338,8.163,12.778,15.694,13.537l59.301,5.976c3.028,0.305,5.794-1.498,6.744-4.381
					c0.614-1.868,0.349-3.883-0.729-5.528c-1.078-1.646-2.82-2.693-4.779-2.874l-49.8-4.606c-3.3-0.305-5.727-3.228-5.422-6.527
					c0.306-3.299,3.212-5.728,6.527-5.422l49.8,4.606c5.619,0.52,10.616,3.525,13.71,8.245c3.094,4.719,3.855,10.5,2.091,15.86
					c-2.726,8.272-10.69,13.44-19.345,12.566l-59.301-5.976c-12.537-1.263-23.035-10.319-26.125-22.535l-5.614-22.203
					c-1.63-6.447-0.101-13.055,4.196-18.13c4.297-5.075,10.562-7.671,17.19-7.13l140.222,11.52l-21.999,79.746
					C355.833,269.024,344.549,277.482,331.901,277.483z"/>
			</g>
			<circle style="fill:#3A3A3A;" cx="228.777" cy="292.264" r="16.333"/>
			<circle style="fill:#3A3A3A;" cx="316.444" cy="297.23" r="9.868"/>
			<circle style="fill:#FF6700;" cx="213.611" cy="147.122" r="14.333"/>
			<circle style="fill:#FFF200;" cx="235.152" cy="112.788" r="19.375"/>
			<circle style="fill:#FFF200;" cx="243.055" cy="142.344" r="6.778"/>
			<circle style="fill:#FF6700;" cx="276.222" cy="122.622" r="15.667"/>
			<circle style="fill:#FF6700;" cx="294.194" cy="152.038" r="12.75"/>
			<circle style="fill:#FFF200;" cx="348.319" cy="157.622" r="12.75"/>
			<circle style="fill:#FFF200;" cx="263.944" cy="154.288" r="8.5"/>
			<circle style="fill:#FFF200;" cx="313.277" cy="123.455" r="10.667"/>
			<circle style="fill:#FFF200;" cx="319.944" cy="157.622" r="8.5"/>
			<circle style="fill:#FF6700;" cx="331.111" cy="138.288" r="7.167"/>
		</g>
	</g>
</g>
</svg>
