<?xml version="1.0" encoding="utf-8"?>
<!-- Generator: Adobe Illustrator 27.5.0, SVG Export Plug-In . SVG Version: 6.00 Build 0)  -->
<svg version="1.1" xmlns="http://www.w3.org/2000/svg" xmlns:xlink="http://www.w3.org/1999/xlink" x="0px" y="0px"
	 viewBox="-30 150 400 400" style="enable-background:new 0 0 750 500;" xml:space="preserve">
<g id="OBJECTS">
	<g>
		<g>
			<path style="fill-rule:evenodd;clip-rule:evenodd;fill:#D68119;" d="M105.754,289.191h113.764
				c16.139,0,29.342,13.204,29.342,29.342v113.765c0,16.138-13.203,29.341-29.342,29.341H105.754
				c-16.138,0-29.342-13.203-29.342-29.341V318.533C76.413,302.396,89.617,289.191,105.754,289.191z"/>
			<g>
				<path style="fill-rule:evenodd;clip-rule:evenodd;fill:#58556C;" d="M162.637,468.857H91.652
					c-0.821-36.297,27.106-57.369,51.087-65.232c1.945-10.127,1.448-23.262,1.448-23.262h18.45h18.45c0,0-0.497,13.135,1.449,23.262
					c23.979,7.863,51.907,28.935,51.085,65.232H162.637z"/>
				<path style="fill-rule:evenodd;clip-rule:evenodd;fill:#E4AE7C;" d="M123.563,351.252c-0.172-1.899-7.936-4.141-10.523,2.069
					c-2.587,6.21,2.071,15.008,10.868,15.698c8.797,0.69,6.21-0.862,6.21-0.862L123.563,351.252z"/>
				<path style="fill-rule:evenodd;clip-rule:evenodd;fill:#E4AE7C;" d="M201.898,351.252c0.172-1.899,7.935-4.141,10.522,2.069
					c2.587,6.21-2.07,15.008-10.867,15.698c-8.798,0.69-6.211-0.862-6.211-0.862L201.898,351.252z"/>
				<path style="fill-rule:evenodd;clip-rule:evenodd;fill:#D67F54;" d="M181.314,393.388c-7.987,15.279-28.56,16.873-37.393,0.588
					c0.232-3.33,0.307-6.466,0.321-8.886h36.79C181.044,387.367,181.112,390.277,181.314,393.388z"/>
				<path style="fill-rule:evenodd;clip-rule:evenodd;fill:#E4AE7C;" d="M162.637,393.078c-45.773,1.101-68.884-111.776,0-108.885
					C231.52,281.302,208.41,394.179,162.637,393.078z"/>
				<path style="fill-rule:evenodd;clip-rule:evenodd;fill:#20201E;" d="M147.258,340.686c1.837,1.326,2.25,3.888,0.922,5.721
					c-1.33,1.834-3.896,2.246-5.733,0.921c-1.838-1.326-2.25-3.888-0.922-5.722C142.854,339.772,145.42,339.361,147.258,340.686z"/>
				<path style="fill-rule:evenodd;clip-rule:evenodd;fill:#20201E;" d="M178.27,340.686c-1.838,1.326-2.251,3.888-0.922,5.721
					c1.328,1.834,3.895,2.246,5.733,0.921c1.837-1.326,2.25-3.888,0.922-5.722C182.674,339.772,180.108,339.361,178.27,340.686z"/>
				<path style="fill-rule:evenodd;clip-rule:evenodd;fill:#DA9077;" d="M142.202,355.568c2.336,1.794,2.439,4.421,0.229,5.867
					c-2.21,1.446-5.896,1.165-8.233-0.629c-2.336-1.793-2.438-4.42-0.228-5.866C136.18,353.494,139.866,353.775,142.202,355.568z"/>
				<path style="fill-rule:evenodd;clip-rule:evenodd;fill:#DA9077;" d="M183.326,355.568c-2.336,1.794-2.438,4.421-0.228,5.867
					c2.21,1.446,5.896,1.165,8.232-0.629c2.336-1.793,2.438-4.42,0.228-5.866C189.349,353.494,185.663,353.775,183.326,355.568z"/>
				<path style="fill-rule:evenodd;clip-rule:evenodd;fill:#3F2716;" d="M149.05,329.555c-0.152-0.067-0.305-0.129-0.461-0.189
					c-1.789-0.645-3.306-0.819-5.238-0.68c-1.893,0.2-3.305,0.628-4.892,1.533c-0.74,0.477-3.63,2.816-2.811,3.68
					c0.335,0.092,3.213-1.379,4.059-1.653c1.315-0.389,2.382-0.537,3.775-0.508c1.299,0.059,2.277,0.247,3.461,0.704
					c0.032,0.006,0.246,0.103,0.292,0.122c2.414,1.174,2.195,1.929,3.842,0.799C153.614,332.014,151.004,330.569,149.05,329.555z"/>
				<path style="fill-rule:evenodd;clip-rule:evenodd;fill:#3F2716;" d="M176.223,329.555c0.153-0.067,0.305-0.129,0.461-0.189
					c1.789-0.645,3.306-0.819,5.239-0.68c1.892,0.2,3.304,0.628,4.891,1.533c0.74,0.477,3.63,2.816,2.81,3.68
					c-0.334,0.092-3.213-1.379-4.058-1.653c-1.316-0.389-2.383-0.537-3.776-0.508c-1.299,0.059-2.276,0.247-3.46,0.704
					c-0.033,0.006-0.246,0.103-0.292,0.122c-2.414,1.174-2.196,1.929-3.843,0.799C171.659,332.014,174.269,330.569,176.223,329.555z
					"/>
				<path style="fill-rule:evenodd;clip-rule:evenodd;fill:#D67F54;" d="M160.485,378.072c-0.235-0.138-0.314-0.44-0.176-0.676
					c0.138-0.235,0.44-0.315,0.676-0.177c0.683,0.399,1.552,0.6,2.422,0.6c0.869,0,1.722-0.199,2.377-0.596
					c0.232-0.142,0.537-0.066,0.679,0.167c0.141,0.232,0.066,0.537-0.167,0.679c-0.816,0.495-1.854,0.742-2.889,0.742
					C162.373,378.811,161.326,378.565,160.485,378.072z"/>
				<path style="fill-rule:evenodd;clip-rule:evenodd;fill:#D67F54;" d="M162.262,360.113c-0.273,0-0.496-0.222-0.496-0.496
					c0-0.273,0.222-0.496,0.496-0.496c1.191,0,2.615-0.011,3.713-0.197c0.904-0.153,1.568-0.398,1.568-0.81
					c0-1.428-1.446-10.303-1.451-10.328c-0.042-0.27,0.142-0.523,0.412-0.566c0.27-0.042,0.523,0.141,0.566,0.411
					c0.004,0.026,1.465,8.994,1.465,10.483c0,1.045-1.016,1.552-2.397,1.786C164.954,360.102,163.488,360.113,162.262,360.113z"/>
				<path style="fill-rule:evenodd;clip-rule:evenodd;fill:#D67F54;" d="M209.606,358.224c0,0.273-0.222,0.496-0.496,0.496
					c-0.275,0-0.497-0.223-0.497-0.496c0-1.508-0.261-2.455-0.68-2.971c-0.251-0.31-0.57-0.452-0.923-0.46
					c-0.406-0.01-0.87,0.142-1.352,0.416c-1.303,0.737-2.65,2.302-3.395,4.006c-0.359,0.82-0.668,1.664-0.846,2.302
					c0.762-0.53,1.603-0.741,2.312-0.67c0.403,0.041,0.771,0.171,1.069,0.386c0.314,0.227,0.549,0.541,0.667,0.936
					c0.203,0.681,0.046,1.595-0.685,2.685c-0.152,0.227-0.46,0.288-0.687,0.136c-0.227-0.151-0.288-0.459-0.136-0.687
					c0.546-0.814,0.681-1.435,0.557-1.852c-0.052-0.177-0.156-0.316-0.294-0.416c-0.155-0.111-0.358-0.181-0.588-0.204
					c-0.637-0.063-1.444,0.215-2.116,0.891c-0.18,0.181-0.35,0.283-0.505,0.316c-0.398,0.086-0.63-0.089-0.716-0.479l-0.005-0.026
					c-0.03-0.146-0.023-0.345,0.014-0.579c0.112-0.706,0.536-1.954,1.052-3.134c0.827-1.891,2.341-3.638,3.814-4.472
					c0.632-0.357,1.268-0.558,1.859-0.544c0.644,0.016,1.221,0.27,1.671,0.825C209.259,355.315,209.606,356.471,209.606,358.224z"/>
				<path style="fill-rule:evenodd;clip-rule:evenodd;fill:#D67F54;" d="M116.66,358.224c0,0.273-0.222,0.496-0.496,0.496
					c-0.274,0-0.496-0.223-0.496-0.496c0-1.753,0.346-2.909,0.904-3.595c0.452-0.556,1.028-0.81,1.671-0.825
					c0.592-0.014,1.228,0.186,1.859,0.544c1.473,0.834,2.987,2.581,3.814,4.472c0.516,1.18,0.94,2.428,1.052,3.134
					c0.037,0.234,0.044,0.433,0.015,0.579l-0.006,0.026c-0.086,0.39-0.317,0.565-0.716,0.479c-0.155-0.033-0.324-0.136-0.504-0.316
					c-0.672-0.676-1.479-0.954-2.116-0.891c-0.231,0.023-0.434,0.093-0.589,0.204c-0.139,0.1-0.242,0.239-0.294,0.416
					c-0.125,0.417,0.011,1.037,0.557,1.852c0.152,0.228,0.091,0.535-0.136,0.687c-0.227,0.152-0.534,0.091-0.687-0.136
					c-0.73-1.091-0.888-2.005-0.684-2.685c0.118-0.395,0.352-0.709,0.666-0.936c0.299-0.215,0.666-0.345,1.069-0.386
					c0.709-0.071,1.55,0.14,2.312,0.67c-0.177-0.638-0.487-1.481-0.846-2.302c-0.745-1.704-2.093-3.269-3.396-4.006
					c-0.481-0.274-0.945-0.426-1.352-0.416c-0.353,0.008-0.67,0.15-0.923,0.46C116.921,355.769,116.66,356.716,116.66,358.224z"/>
				<path style="fill-rule:evenodd;clip-rule:evenodd;fill:#35253D;" d="M213.289,293.586c1.907,0.365,1.658,1.932-3.906,5.859
					c5.142,6.479,5.933,16.773,4.176,26.431c-0.375,2.061-6.178,16.676-11.645,26.25c-0.507,0.889-0.169-18.983-5.909-26.921
					c-2.913-4.027-5.313-8.801-11.246-12.779c-0.06,1.13,3.464,4.214,2.149,4.834c-5.031,2.371-19.198-0.078-25.742-1.737
					c1.883,1.939,3.805,3.346,3.083,4.054c-2.252,2.212-16.496-1.241-25.294-7.147c-2.132,7.035-5.142,14.505-8.524,16.495
					c-9.052,5.326-5.106,27.818-7.481,24.513c-10.898-15.158-8.15-34.786-8.15-34.786c-1.056,1.675-2.257,3.116-3.09,4.848
					c-1.503,3.128-2.532-25.642,11.144-29.373c0,0-2.157-0.745-7.706,0.295c-2.036,0.383,4.003-5.231,10.516-5.96
					c0.187-2.833,1.452-14.204,9.767-17.873c3.857-1.702,10.177-2.858,9.374-2.372c-3.964,2.401-5.103,5.74-5.103,5.74
					c30.427-14.354,44.268,0.905,56.193,10.47C199.501,287.318,207.134,293.104,213.289,293.586z"/>
				<path style="fill-rule:evenodd;clip-rule:evenodd;fill:#2E1E11;" d="M143.823,331.198c4.051,0,7.718,1.643,10.372,4.298
					c2.655,2.653,4.298,6.321,4.298,10.372c0,4.05-1.643,7.718-4.298,10.372c-2.654,2.654-6.321,4.297-10.372,4.297
					c-4.05,0-7.718-1.643-10.373-4.297c-2.654-2.654-4.296-6.322-4.296-10.372c0-4.051,1.643-7.719,4.296-10.372
					C136.105,332.841,139.773,331.198,143.823,331.198L143.823,331.198z M152.441,337.25c-2.206-2.206-5.253-3.57-8.618-3.57
					c-3.365,0-6.413,1.364-8.619,3.57c-2.205,2.205-3.57,5.253-3.57,8.618c0,3.365,1.365,6.412,3.57,8.618
					c2.206,2.205,5.253,3.569,8.619,3.569c3.365,0,6.413-1.364,8.618-3.569c2.206-2.206,3.57-5.253,3.57-8.618
					C156.011,342.503,154.647,339.455,152.441,337.25z"/>
				<path style="fill-rule:evenodd;clip-rule:evenodd;fill:#2E1E11;" d="M181.45,331.198c4.05,0,7.718,1.643,10.373,4.298
					c2.655,2.653,4.296,6.321,4.296,10.372c0,4.05-1.642,7.718-4.296,10.372c-2.654,2.654-6.323,4.297-10.373,4.297
					c-4.051,0-7.718-1.643-10.373-4.297c-2.655-2.654-4.297-6.322-4.297-10.372c0-4.051,1.642-7.719,4.297-10.372
					C173.732,332.841,177.399,331.198,181.45,331.198L181.45,331.198z M190.068,337.25c-2.206-2.206-5.253-3.57-8.618-3.57
					c-3.366,0-6.413,1.364-8.618,3.57c-2.206,2.205-3.569,5.253-3.569,8.618c0,3.365,1.363,6.412,3.569,8.618
					c2.205,2.205,5.253,3.569,8.618,3.569c3.365,0,6.413-1.364,8.618-3.569c2.205-2.206,3.57-5.253,3.57-8.618
					C193.638,342.503,192.273,339.455,190.068,337.25z"/>
				<path style="fill-rule:evenodd;clip-rule:evenodd;fill:#2E1E11;" d="M129.956,344.668c0.513-0.185,1.08,0.083,1.264,0.598
					c0.184,0.513-0.083,1.079-0.598,1.264l-8.737,3.147c-0.514,0.184-1.079-0.084-1.264-0.599c-0.184-0.513,0.083-1.079,0.598-1.264
					L129.956,344.668z"/>
				<path style="fill-rule:evenodd;clip-rule:evenodd;fill:#2E1E11;" d="M194.688,346.529c-0.514-0.185-0.781-0.751-0.597-1.264
					c0.185-0.515,0.75-0.782,1.264-0.598l8.737,3.147c0.514,0.184,0.781,0.751,0.597,1.264c-0.184,0.515-0.75,0.782-1.264,0.599
					L194.688,346.529z"/>
				<path style="fill-rule:evenodd;clip-rule:evenodd;fill:#2E1E11;" d="M157.467,344.727c-0.285,0.467-0.895,0.614-1.361,0.329
					c-0.467-0.285-0.614-0.894-0.329-1.36c0.004-0.008,1.683-2.855,6.86-2.855c5.177,0,6.855,2.848,6.86,2.855
					c0.284,0.467,0.137,1.075-0.33,1.36c-0.466,0.285-1.076,0.138-1.361-0.329c-0.002-0.006-1.114-1.901-5.169-1.901
					C158.581,342.825,157.47,344.721,157.467,344.727z"/>
				<path style="fill-rule:evenodd;clip-rule:evenodd;fill:#FFFFFF;" d="M178.162,364.813c-6.232,2.314-25.171,2.267-31.051,0.279
					C150.36,376.93,175.003,376.742,178.162,364.813z"/>
				<path style="fill-rule:evenodd;clip-rule:evenodd;fill:#67627E;" d="M143.526,391.309c-0.507-0.218-1.809-0.199-1.808,0.718
					c0.002,0.992,0.93,4.406,0.265,6.928c-0.702,2.663-1.881,4.852-0.522,5.38c6.253,2.43,13.066,3.715,19.91,3.852
					c7.675,0.156,15.39-1.128,22.402-3.852c1.359-0.528,0.179-2.717-0.522-5.38c-0.665-2.522,0.263-5.936,0.265-6.928
					c0.002-0.917-1.301-0.936-1.808-0.718C169.505,396.537,155.729,396.537,143.526,391.309z"/>
				<path style="fill-rule:evenodd;clip-rule:evenodd;fill:#383546;" d="M110.873,448.314c0.004-0.41,0.338-0.739,0.748-0.736
					c0.41,0.004,0.739,0.338,0.736,0.748l-0.183,20.538c-0.003,0.41-0.338,0.739-0.747,0.736c-0.409-0.003-0.738-0.338-0.736-0.747
					L110.873,448.314z"/>
				<path style="fill-rule:evenodd;clip-rule:evenodd;fill:#383546;" d="M213.1,448.314c0.003-0.41,0.338-0.739,0.747-0.736
					c0.41,0.004,0.739,0.338,0.736,0.748l-0.183,20.538c-0.003,0.41-0.338,0.739-0.748,0.736c-0.409-0.003-0.739-0.338-0.736-0.747
					L213.1,448.314z"/>
				<path style="fill-rule:evenodd;clip-rule:evenodd;fill:#58556C;" d="M145.09,393.629c0.009-0.272,0.237-0.487,0.509-0.479
					c0.274,0.009,0.488,0.236,0.479,0.51c-0.022,0.676-0.029,1.311-0.036,1.951c-0.015,1.312-0.03,2.645-0.161,4.211
					c-0.207,2.483-1.54,4.553-1.544,4.558c-0.146,0.23-0.452,0.299-0.683,0.151c-0.229-0.147-0.297-0.452-0.15-0.683
					c0.003-0.005,1.202-1.864,1.389-4.107c0.131-1.579,0.146-2.868,0.161-4.138C145.061,394.945,145.069,394.292,145.09,393.629z"/>
				<path style="fill-rule:evenodd;clip-rule:evenodd;fill:#58556C;" d="M149.16,395.073c0.009-0.272,0.237-0.487,0.51-0.479
					c0.273,0.009,0.487,0.236,0.479,0.51c-0.022,0.676-0.029,1.311-0.036,1.951c-0.015,1.311-0.03,2.645-0.161,4.211
					c-0.207,2.483-1.541,4.552-1.545,4.558c-0.146,0.23-0.452,0.299-0.683,0.151c-0.229-0.147-0.297-0.452-0.15-0.683
					c0.003-0.005,1.202-1.865,1.389-4.108c0.131-1.579,0.146-2.868,0.161-4.138C149.131,396.39,149.139,395.736,149.16,395.073z"/>
				<path style="fill-rule:evenodd;clip-rule:evenodd;fill:#58556C;" d="M153.428,395.861c0.009-0.273,0.236-0.487,0.509-0.478
					c0.273,0.009,0.488,0.237,0.479,0.509c-0.021,0.676-0.028,1.311-0.036,1.951c-0.014,1.311-0.029,2.645-0.161,4.212
					c-0.207,2.483-1.54,4.552-1.544,4.558c-0.146,0.229-0.452,0.298-0.683,0.151c-0.23-0.147-0.297-0.452-0.15-0.682
					c0.002-0.006,1.202-1.866,1.389-4.109c0.131-1.578,0.146-2.868,0.161-4.137C153.398,397.178,153.406,396.524,153.428,395.861z"
					/>
				<path style="fill-rule:evenodd;clip-rule:evenodd;fill:#58556C;" d="M157.826,396.649c0.009-0.273,0.237-0.488,0.509-0.48
					c0.274,0.01,0.488,0.237,0.479,0.51c-0.022,0.676-0.029,1.312-0.036,1.951c-0.015,1.312-0.03,2.645-0.161,4.211
					c-0.206,2.484-1.54,4.552-1.544,4.559c-0.146,0.23-0.452,0.298-0.683,0.15c-0.229-0.147-0.297-0.451-0.15-0.682
					c0.003-0.005,1.202-1.865,1.389-4.108c0.131-1.578,0.146-2.868,0.161-4.138C157.797,397.966,157.805,397.313,157.826,396.649z"
					/>
				<path style="fill-rule:evenodd;clip-rule:evenodd;fill:#58556C;" d="M178.681,393.66c-0.008-0.273,0.206-0.501,0.479-0.51
					c0.274-0.009,0.501,0.206,0.51,0.479c0.022,0.663,0.029,1.316,0.037,1.975c0.014,1.27,0.029,2.559,0.161,4.138
					c0.187,2.243,1.385,4.103,1.389,4.107c0.147,0.23,0.079,0.536-0.151,0.683c-0.23,0.147-0.536,0.079-0.683-0.151
					c-0.003-0.005-1.338-2.074-1.545-4.558c-0.13-1.566-0.145-2.899-0.16-4.211C178.71,394.971,178.703,394.336,178.681,393.66z"/>
				<path style="fill-rule:evenodd;clip-rule:evenodd;fill:#58556C;" d="M174.61,395.104c-0.008-0.273,0.206-0.501,0.479-0.51
					c0.274-0.009,0.501,0.206,0.51,0.479c0.022,0.663,0.029,1.316,0.036,1.975c0.015,1.27,0.03,2.559,0.161,4.138
					c0.187,2.242,1.386,4.103,1.389,4.108c0.147,0.23,0.079,0.535-0.151,0.683c-0.23,0.147-0.537,0.079-0.683-0.151
					c-0.003-0.006-1.338-2.074-1.544-4.558c-0.13-1.566-0.145-2.899-0.16-4.211C174.64,396.415,174.632,395.78,174.61,395.104z"/>
				<path style="fill-rule:evenodd;clip-rule:evenodd;fill:#58556C;" d="M170.343,395.892c-0.008-0.272,0.206-0.5,0.479-0.509
					c0.273-0.009,0.501,0.205,0.51,0.478c0.021,0.663,0.028,1.316,0.036,1.975c0.014,1.269,0.029,2.559,0.161,4.137
					c0.187,2.243,1.386,4.104,1.389,4.109c0.147,0.229,0.079,0.534-0.151,0.682c-0.23,0.146-0.536,0.078-0.683-0.151
					c-0.003-0.006-1.337-2.074-1.544-4.558c-0.13-1.567-0.145-2.9-0.16-4.212C170.373,397.203,170.365,396.567,170.343,395.892z"/>
				<path style="fill-rule:evenodd;clip-rule:evenodd;fill:#58556C;" d="M165.944,396.68c-0.008-0.272,0.206-0.5,0.479-0.51
					c0.274-0.009,0.501,0.206,0.51,0.48c0.022,0.663,0.029,1.316,0.037,1.974c0.014,1.27,0.029,2.56,0.161,4.138
					c0.186,2.243,1.385,4.104,1.389,4.108c0.147,0.23,0.079,0.535-0.151,0.682c-0.23,0.147-0.536,0.079-0.683-0.15
					c-0.003-0.007-1.338-2.074-1.544-4.559c-0.13-1.566-0.145-2.899-0.16-4.211C165.974,397.991,165.966,397.355,165.944,396.68z"/>
				<path style="fill-rule:evenodd;clip-rule:evenodd;fill:#58556C;" d="M161.939,396.665c0-0.273,0.222-0.495,0.495-0.495
					c0.273,0,0.495,0.222,0.495,0.495l0.021,10.47c0,0.272-0.221,0.494-0.494,0.494c-0.273,0-0.494-0.222-0.494-0.494
					L161.939,396.665z"/>
				<path style="fill-rule:evenodd;clip-rule:evenodd;fill:#432D4C;" d="M135.529,289.755c-0.129-0.241-0.039-0.541,0.202-0.671
					c0.241-0.13,0.542-0.039,0.671,0.201c2.727,5.056,8.391,9.503,14.92,13.046c8.33,4.519,18.039,7.547,24.89,8.495
					c0.271,0.037,0.46,0.287,0.423,0.558c-0.037,0.271-0.288,0.46-0.558,0.423c-6.954-0.962-16.797-4.029-25.228-8.604
					C144.169,299.58,138.358,295.001,135.529,289.755z"/>
				<path style="fill-rule:evenodd;clip-rule:evenodd;fill:#432D4C;" d="M141.086,285.42c-0.274,0-0.496-0.222-0.496-0.495
					c0-0.274,0.222-0.496,0.496-0.496c7.978,0,15.407,1.383,22.177,3.633c7.975,2.649,15.026,6.499,20.976,10.702
					c6.27,4.43,11.33,9.432,14.972,15.496c3.643,6.066,5.861,13.184,6.445,21.84c0.018,0.272-0.188,0.51-0.462,0.527
					c-0.273,0.017-0.509-0.189-0.527-0.461c-0.573-8.492-2.742-15.466-6.305-21.398c-3.564-5.935-8.53-10.841-14.693-15.193
					c-5.883-4.156-12.849-7.96-20.716-10.574C156.284,286.784,148.96,285.42,141.086,285.42z"/>
				<path style="fill-rule:evenodd;clip-rule:evenodd;fill:#432D4C;" d="M144.708,280.909c-0.248,0.115-0.543,0.007-0.657-0.242
					c-0.114-0.247-0.006-0.542,0.243-0.656c20.355-9.376,33.608-0.045,45.037,8.003c2.824,1.988,5.536,3.897,8.198,5.409
					c0.238,0.135,0.322,0.436,0.186,0.674c-0.135,0.238-0.436,0.322-0.674,0.186c-2.712-1.539-5.439-3.46-8.28-5.46
					C177.547,280.929,164.544,271.773,144.708,280.909z"/>
				<path style="fill-rule:evenodd;clip-rule:evenodd;fill:#432D4C;" d="M131.449,298.08c-0.014-0.273,0.196-0.506,0.469-0.52
					c0.273-0.014,0.505,0.196,0.52,0.469c0.144,2.662-0.614,6.447-1.917,10.186c-1.262,3.619-3.04,7.21-5.009,9.709
					c-3.83,4.859-3.888,10.845-3.888,10.862c-0.004,0.273-0.23,0.491-0.502,0.486c-0.273-0.004-0.491-0.229-0.487-0.502
					c0-0.018,0.063-6.339,4.098-11.459c1.902-2.414,3.625-5.9,4.854-9.423C130.85,304.264,131.585,300.617,131.449,298.08z"/>
			</g>
		</g>
	</g>
</g>
</svg>
