<svg xmlns="http://www.w3.org/2000/svg" x="0px" y="0px" width="100" height="100" viewBox="0 0 48 48">
<path fill="#bcbcbc" d="M4.31,9.987c0,5,0.064,3.611,0.069,8.11c0.004,3.752,0.362,6.202,0.209,8.892	c-0.127,2.228-0.438,4.42-0.291,6.647c0.2,3.044-1.046,6.261,1.793,8.981c2.044,1.957,4.662,1.744,6.834,1.852	c2.172,0.108,6.43-0.541,8.601-0.416c7.639,0.439,9.159-0.358,14.793-0.13c2.056,0.083,5.059,0.569,6.898-1.152	c1.446-1.354,1.654-3.01,1.612-6.381c-0.057-4.447-0.497-7.055-0.474-11.502c0.009-1.699,0.46-4.369,0.469-6.068	c0.007-1.371-0.23-4.268-0.252-5.638c-0.02-1.275,0.031-3.324-0.075-4.629c-0.106-1.305-0.891-2.936-2.536-3.741	c-1.443-0.705-4.835-0.832-8.268-0.602C28.677,4.544,29,4.369,24,4.369c-1.388,0-4.434,0.09-7.083,0.078	c-3.513-0.016-4.857-0.336-6.944,0C6.971,4.931,4.117,6.078,4.31,9.987"></path><path fill="#373837" d="M26.973,8.183c-5.427,0-7.774,0.499-11.43,2.057c-1.345,0.573-2.336,1.514-3.756,2.949	c-0.553,0.558-2.297,3.152-2.647,3.855c-1.399,2.807-1.372,3.841-1.808,6.947c-0.086,0.617,0.134,2.855,0.223,3.472	c0.081,0.555,0.417,2.526,0.605,3.054c1.112,3.127,2.296,4.786,3.813,6.212c0.758,0.713,1.636,1.112,2.541,1.624	c0.963,0.544,2.695,1.379,3.766,1.653c3.515,0.897,6.985,1.217,10.536,0.477c3.775-0.786,7.242-2.881,9.398-6.078	c2.156-3.197,2.634-5.064,2.805-8.917c0.054-1.207,0.001-4.914-0.272-6.091c-0.344-1.483-1.061-2.85-1.777-4.194	c-0.666-1.25-1.285-1.722-2.215-2.791c-0.806-0.927-2.115-1.723-3.138-2.257c-2.005-1.047-4.204-1.799-6.459-1.968"></path><path fill="#010101" d="M13.458,44.979c-0.198,0-0.386-0.004-0.561-0.013c-0.283-0.014-0.575-0.022-0.872-0.031	c-2.048-0.06-4.37-0.127-6.282-1.958c-2.264-2.168-2.123-4.604-1.987-6.959c0.047-0.815,0.092-1.585,0.041-2.35	c-0.106-1.622,0.024-3.237,0.151-4.799c0.052-0.635,0.104-1.271,0.14-1.91c0.083-1.465,0.013-2.854-0.069-4.462	c-0.065-1.273-0.139-2.717-0.141-4.4c-0.002-2.16-0.018-2.959-0.033-3.764C3.827,13.465,3.81,12.59,3.81,9.999	C3.595,5.495,7.179,4.392,9.894,3.954c1.367-0.22,2.425-0.168,3.89-0.101c0.865,0.041,1.847,0.088,3.136,0.094	c1.611,0.011,3.369-0.022,4.81-0.048c0.93-0.017,1.728-0.03,2.271-0.03c1.518,0,2.545,0.016,3.381,0.029	c1.923,0.03,2.8,0.045,6.276-0.189c1.898-0.127,6.536-0.319,8.521,0.652c1.904,0.931,2.707,2.816,2.815,4.148	c0.075,0.924,0.073,2.194,0.071,3.315c0,0.493-0.001,0.957,0.005,1.348c0.01,0.608,0.062,1.521,0.117,2.465	c0.068,1.186,0.139,2.411,0.135,3.184c-0.005,0.875-0.123,1.998-0.237,3.084c-0.111,1.062-0.228,2.159-0.231,2.984	c-0.013,2.369,0.105,4.185,0.231,6.106c0.105,1.629,0.216,3.313,0.242,5.386c0.044,3.483-0.2,5.284-1.77,6.753	c-1.743,1.633-4.313,1.467-6.372,1.337c-0.311-0.02-0.607-0.039-0.888-0.05c-2.467-0.104-4.136-0.003-5.899,0.103	c-2.27,0.135-4.615,0.275-8.901,0.026c-1.066-0.062-2.709,0.075-4.299,0.207C15.875,44.867,14.514,44.979,13.458,44.979z M11.964,4.794c-0.633,0-1.229,0.037-1.911,0.146C6.234,5.557,4.666,7.059,4.809,9.963L4.81,9.987c0,2.588,0.018,3.46,0.034,4.327	c0.017,0.808,0.032,1.611,0.034,3.782c0.002,1.658,0.074,3.089,0.139,4.35c0.084,1.638,0.156,3.052,0.069,4.57	c-0.037,0.647-0.089,1.291-0.141,1.935c-0.13,1.596-0.252,3.104-0.15,4.651c0.055,0.827,0.006,1.664-0.041,2.474	c-0.128,2.227-0.249,4.33,1.681,6.179c1.635,1.565,3.661,1.624,5.62,1.682c0.304,0.009,0.603,0.018,0.893,0.032	c1.041,0.051,2.629-0.08,4.168-0.208c1.623-0.134,3.307-0.276,4.438-0.208c4.229,0.243,6.545,0.105,8.785-0.026	c1.79-0.106,3.484-0.205,6-0.104c0.287,0.012,0.592,0.031,0.91,0.052c1.868,0.119,4.196,0.268,5.625-1.069	c1.302-1.218,1.494-2.769,1.453-6.009c-0.026-2.047-0.135-3.718-0.24-5.335c-0.127-1.939-0.246-3.771-0.233-6.177	c0.005-0.874,0.123-1.997,0.237-3.083c0.111-1.062,0.228-2.16,0.231-2.985c0.004-0.74-0.066-1.95-0.133-3.12	c-0.056-0.96-0.109-1.888-0.119-2.507c-0.006-0.396-0.005-0.866-0.005-1.365c0.002-1.102,0.004-2.35-0.067-3.232	c-0.088-1.07-0.731-2.585-2.259-3.331c-1.208-0.59-4.278-0.802-8.015-0.553c-3.518,0.234-4.407,0.221-6.358,0.191	C26.533,4.885,25.51,4.869,24,4.869c-0.54,0-1.332,0.014-2.254,0.03c-1.446,0.024-3.214,0.056-4.831,0.048	c-1.312-0.006-2.304-0.054-3.179-0.095C13.066,4.82,12.501,4.794,11.964,4.794z"></path><path fill="#bcbcbc" d="M23.17,12.255c0.422-0.115,0.112-0.975,0.384-1.244c0.315-0.311,1.369-0.231,1.812-0.215	c0.272,0.01,0.762,0.038,0.969,0.215c0.384,0.329,0.226,1.124,0.402,1.189c0.933,0.348,2.142,0.632,2.406,0.471	c0.294-0.179,0.465-0.655,0.806-0.61c0.899,0.121,1.452,0.351,2.08,0.773c0.22,0.148,0.657,0.542,0.758,0.787	c0.101,0.244-0.459,0.843-0.327,1.072c0.212,0.367,1.331,1.678,1.69,1.976c0.242,0.201,0.65-0.543,0.876-0.449	c0.355,0.147,0.96,0.84,1.08,0.981c0.328,0.385,1.194,1.519,0.87,1.908c-0.371,0.445-0.528,0.377-1.036,0.693	c0.123,0.642,0.246,0.92,0.327,1.639c0.031,0.279,0.038,0.879,0.175,1.124c0.21,0.375,0.529,0.16,0.96,0.168	c0.79,0.016,0.631,0.961,0.606,1.793c-0.015,0.489-0.094,2.041-0.094,2.041c-0.656,0.449-0.928,0.294-1.375,0.373	c-0.375,0.784-0.922,2.144-0.716,2.429c0.196,0.27,0.773,0.591,0.885,0.905c0.243,0.676-0.251,1.374-0.714,1.923	c-0.358,0.424-0.715,0.847-1.073,1.271c-0.068,0.081-0.144,0.166-0.247,0.19c-0.279,0.064-0.559-0.182-0.779-0.366	c-0.272-0.227-0.367-0.248-0.63-0.011s-0.445,0.494-0.653,0.781c-0.296,0.407-0.663,0.688-1.112,0.916	c-0.387,0.196-0.503,0.461,0.009,1.439c-0.619,0.392-1.487,0.705-2.495,0.94c-0.172,0.04-1.426,0.505-1.499,0.344	c-0.244-0.533-0.361-0.673-0.582-1.273c-1.077,0.083-1.561,0.077-2.29-0.016c-1.362-0.174-1.506,0.174-1.812,0.996	c-0.075,0.201-0.095,0.459-0.288,0.554c-0.107,0.053-0.234,0.036-0.352,0.018c-0.818-0.125-1.636-0.251-2.453-0.376	c-0.158-0.024-0.322-0.051-0.453-0.143c-0.316-0.222-0.29-0.7-0.163-1.065c0.127-0.365,0.42-0.921,0.23-1.117	c-0.42-0.364-0.888-0.661-1.365-0.946c-0.803-0.48-1.137-0.241-1.602,0.064c-0.199,0.13-0.395,0.326-0.63,0.294	c-0.163-0.022-0.289-0.15-0.402-0.271c-0.417-0.448-0.833-0.895-1.25-1.343c-0.15-0.161-0.31-0.352-0.285-0.571	c0.024-0.209,0.209-0.356,0.346-0.516c0.447-0.521,0.164-1.163-0.18-1.757s-0.58-1.556-1.007-1.693	c-0.368-0.118-1.043-0.032-1.338-0.282c-0.773-0.653-0.386-1.461-0.515-2.465c-0.048-0.377-0.128-1.049,0.193-1.178	c0.187-0.076,0.87-0.315,1.072-0.315c0.241,0,0.164-0.78,0.203-1.046c0.188-1.285,0.124-1.618-0.091-2.042	c-0.213-0.418-1.003-0.812-0.914-1.273c0.035-0.183,1.63-3.069,1.852-3.151c0.242-0.09,0.509-0.067,0.766-0.049	c0.505,0.035,0.606,0.744,1.845-0.956c0.298-0.409,0.745-0.796,0.556-1.265c-0.261-0.651-0.151-0.921,0.109-1.085	c0.14-0.089,0.278-0.213,0.369-0.262c0.751-0.412,1.015-0.509,1.766-0.921c0.175-0.096,0.614-0.369,0.808-0.327	c0.325,0.07,0.7,1.051,0.952,1.011C21.413,12.804,22.364,12.544,23.17,12.255"></path><path fill="#010101" d="M24.768,41.396c-2.066,0-4.234-0.3-6.61-0.906c-1.176-0.3-2.97-1.183-3.889-1.702	c-0.182-0.103-0.362-0.201-0.541-0.298c-0.711-0.386-1.445-0.785-2.098-1.397c-1.772-1.667-2.914-3.523-3.94-6.408	c-0.214-0.602-0.556-2.652-0.629-3.149c-0.076-0.523-0.326-2.88-0.224-3.613l0.157-1.164c0.302-2.29,0.453-3.439,1.698-5.937	c0.354-0.71,2.136-3.373,2.739-3.983c1.435-1.45,2.482-2.446,3.915-3.058c3.864-1.646,6.363-2.097,11.627-2.097	c0.033,0,0.066,0.003,0.098,0.01c0.041-0.007,0.084-0.009,0.125-0.007c2.156,0.163,4.395,0.844,6.653,2.024	c1.483,0.774,2.589,1.572,3.283,2.372c0.243,0.28,0.466,0.518,0.672,0.74c0.584,0.627,1.088,1.169,1.607,2.144	c0.683,1.283,1.457,2.738,1.823,4.316c0.288,1.24,0.339,4.979,0.283,6.227c-0.17,3.86-0.632,5.827-2.89,9.174	c-2.126,3.154-5.665,5.446-9.71,6.288C27.562,41.255,26.188,41.396,24.768,41.396z M27.062,8.676	c-0.028,0.005-0.058,0.008-0.088,0.008c-5.519,0-7.741,0.528-11.234,2.017c-1.268,0.541-2.204,1.435-3.597,2.841	c-0.498,0.504-2.212,3.037-2.556,3.726c-1.17,2.349-1.305,3.374-1.602,5.622l-0.158,1.172c-0.071,0.512,0.124,2.651,0.224,3.33	c0.1,0.687,0.424,2.518,0.58,2.958c1.199,3.37,2.479,4.883,3.685,6.016c0.557,0.523,1.204,0.875,1.89,1.247	c0.184,0.1,0.369,0.2,0.556,0.306c1.052,0.596,2.687,1.36,3.645,1.604c3.856,0.984,7.133,1.134,10.311,0.472	c3.791-0.79,7.103-2.929,9.084-5.868c2.141-3.173,2.557-4.945,2.72-8.66c0.055-1.212-0.005-4.861-0.259-5.955	c-0.336-1.451-1.077-2.844-1.731-4.072c-0.458-0.86-0.877-1.311-1.457-1.934c-0.213-0.229-0.442-0.476-0.693-0.765	c-0.604-0.695-1.639-1.436-2.992-2.142c-2.138-1.117-4.246-1.762-6.265-1.913C27.102,8.683,27.081,8.68,27.062,8.676z"></path><path fill="#373837" d="M23.633,18.721c0.756,1.716,1.058,3.802,2.423,3.961c1.591,0.186,2.576,0.186,3.95,0.155	c0.723-0.016,1.445-0.06,2.165-0.131c0.553-0.054,1.196-0.187,1.432-0.69c0.248-0.526-0.184-1.077-0.432-1.603	c-0.308-0.656-0.645-1.253-1.005-1.769c-0.418-0.598-0.915-0.98-1.45-1.475c-1.765-1.635-4.39-1.82-6.794-1.918	c-0.282-0.011-0.572-0.022-0.836,0.078c-0.264,0.099-0.496,0.338-0.498,0.62c-0.001,0.177,0.152,0.859,0.237,1.015	C23.179,17.616,23.278,18.069,23.633,18.721"></path><path fill="#010101" d="M22.367,38.497c-0.098,0-0.184-0.013-0.25-0.023l-2.456-0.376c-0.186-0.028-0.438-0.067-0.665-0.228	c-0.454-0.32-0.587-0.947-0.349-1.638c0.029-0.084,0.065-0.177,0.104-0.272c0.044-0.109,0.117-0.293,0.147-0.411	c-0.36-0.294-0.792-0.561-1.171-0.788c-0.518-0.311-0.63-0.236-1.044,0.036l-0.131,0.091c-0.191,0.14-0.483,0.353-0.868,0.298	c-0.347-0.048-0.567-0.283-0.699-0.424l-1.251-1.346c-0.151-0.16-0.47-0.5-0.416-0.968c0.039-0.329,0.239-0.543,0.387-0.699	l0.077-0.085c0.165-0.193,0.185-0.458-0.233-1.18c-0.122-0.211-0.233-0.465-0.342-0.716c-0.11-0.257-0.296-0.686-0.408-0.763	c-0.064-0.019-0.236-0.032-0.389-0.045c-0.371-0.03-0.793-0.064-1.097-0.321c-0.717-0.606-0.692-1.337-0.671-1.981	c0.009-0.26,0.018-0.529-0.018-0.802c-0.063-0.5-0.182-1.43,0.502-1.706c0.008-0.003,0.53-0.207,0.937-0.303	c0.007-0.099,0.009-0.217,0.011-0.296c0.003-0.148,0.007-0.283,0.02-0.371c0.181-1.228,0.105-1.452-0.042-1.743	c-0.043-0.084-0.196-0.228-0.32-0.343c-0.314-0.295-0.745-0.697-0.64-1.25c0.006-0.029,1.594-3.313,2.169-3.526	c0.333-0.124,0.671-0.102,0.939-0.081c0.238,0.016,0.394,0.086,0.506,0.138c0.034,0.015,0.081,0.036,0.098,0.04	c0.001-0.006,0.221-0.081,0.838-0.928c0.062-0.084,0.13-0.169,0.197-0.253c0.2-0.248,0.339-0.432,0.299-0.531	c-0.119-0.297-0.48-1.197,0.307-1.694c0.058-0.036,0.114-0.08,0.167-0.12c0.085-0.065,0.163-0.122,0.225-0.156	c0.386-0.211,0.644-0.34,0.901-0.469c0.25-0.126,0.499-0.251,0.869-0.453c0.467-0.267,0.822-0.444,1.154-0.378	c0.36,0.078,0.591,0.424,0.813,0.758c0.043,0.064,0.1,0.149,0.147,0.216c0.668-0.122,1.465-0.336,2.187-0.59	c0.007-0.067,0.01-0.16,0.012-0.229c0.008-0.3,0.018-0.672,0.281-0.933c0.409-0.402,1.202-0.404,2.05-0.363l0.133,0.005	c0.456,0.017,0.965,0.069,1.274,0.334c0.378,0.324,0.432,0.821,0.467,1.149c0.001,0.01,0.002,0.02,0.003,0.029	c0.863,0.3,1.647,0.434,1.823,0.404c-0.022,0.003,0.046-0.082,0.107-0.154c0.178-0.209,0.484-0.562,0.956-0.493	c0.918,0.122,1.561,0.361,2.293,0.854c0.226,0.151,0.776,0.617,0.94,1.01c0.139,0.34-0.035,0.666-0.188,0.954	c-0.026,0.05-0.063,0.12-0.091,0.178c0.258,0.365,0.923,1.147,1.305,1.539c0.006-0.006,0.012-0.012,0.018-0.017	c0.209-0.195,0.521-0.491,0.926-0.324c0.423,0.176,0.976,0.775,1.268,1.117c0.693,0.812,1.407,1.915,0.874,2.554	c-0.312,0.375-0.54,0.482-0.78,0.596c-0.023,0.012-0.048,0.023-0.073,0.035c0.019,0.08,0.037,0.156,0.055,0.229	c0.076,0.314,0.148,0.611,0.203,1.095c0.008,0.071,0.015,0.161,0.021,0.261c0.012,0.159,0.037,0.515,0.083,0.65	c0.015-0.015,0.067-0.022,0.109-0.028c0.133-0.019,0.278-0.03,0.434-0.035c0.405,0.008,0.65,0.182,0.785,0.326	c0.387,0.414,0.354,1.057,0.323,1.678l-0.013,0.305c-0.015,0.49-0.095,2.051-0.095,2.051c-0.008,0.156-0.088,0.3-0.218,0.388	c-0.594,0.405-0.982,0.419-1.294,0.43c-0.011,0.001-0.021,0.001-0.031,0.001c-0.354,0.78-0.576,1.465-0.592,1.72	c0.062,0.061,0.158,0.141,0.239,0.208c0.27,0.223,0.549,0.452,0.661,0.766c0.369,1.025-0.452,1.999-0.803,2.414l-1.073,1.271	c-0.086,0.102-0.245,0.291-0.514,0.354c-0.522,0.118-0.923-0.224-1.191-0.448c-0.009-0.008-0.017-0.015-0.024-0.021	c-0.196,0.183-0.348,0.392-0.522,0.631c-0.361,0.497-0.771,0.836-1.326,1.117c-0.062,0.024-0.074,0.187,0.227,0.762	c0.12,0.23,0.044,0.515-0.176,0.654c-0.641,0.405-1.531,0.742-2.647,1.004c-0.037,0.009-0.118,0.036-0.222,0.07	c-0.967,0.316-1.606,0.524-1.847-0.007c-0.082-0.178-0.149-0.312-0.212-0.434c-0.085-0.168-0.16-0.316-0.246-0.521	c-0.854,0.055-1.336,0.043-2.022-0.045c-0.981-0.127-1.004-0.063-1.279,0.675L23.262,37.7c-0.058,0.202-0.155,0.54-0.499,0.709	C22.625,38.478,22.487,38.497,22.367,38.497z M27.966,37.485c0.001,0.002,0.001,0.003,0.002,0.005	C27.967,37.488,27.967,37.487,27.966,37.485z M17.19,33.559c0.291,0,0.633,0.094,1.053,0.344c0.448,0.27,0.965,0.591,1.435,0.998	c0.407,0.418,0.183,0.979,0.003,1.431c-0.032,0.081-0.063,0.158-0.088,0.229c-0.093,0.268-0.063,0.463-0.021,0.493	c0.036,0.024,0.16,0.044,0.242,0.057l2.453,0.376c0.004,0.001,0.01,0.001,0.016,0.002c0.007-0.021,0.013-0.044,0.019-0.063	c0.019-0.065,0.038-0.131,0.061-0.191c0.392-1.048,0.743-1.524,2.344-1.317c0.708,0.089,1.157,0.092,2.188,0.014	c0.224-0.037,0.43,0.115,0.508,0.325c0.134,0.364,0.227,0.547,0.337,0.767c0.028,0.055,0.058,0.111,0.088,0.174	c0.251-0.062,0.62-0.184,0.769-0.232c0.146-0.048,0.259-0.083,0.305-0.094c0.778-0.182,1.444-0.407,1.955-0.66	c-0.195-0.461-0.236-0.789-0.145-1.075c0.122-0.38,0.453-0.547,0.562-0.603c0.413-0.209,0.701-0.445,0.934-0.765	c0.24-0.331,0.436-0.599,0.723-0.858c0.547-0.488,0.939-0.288,1.285,0c0.092,0.077,0.229,0.192,0.318,0.239l1.079-1.272	c0.372-0.441,0.779-1.003,0.625-1.432c-0.035-0.067-0.235-0.233-0.355-0.332c-0.178-0.146-0.346-0.285-0.464-0.448	c-0.121-0.167-0.444-0.612,0.669-2.938c0.07-0.146,0.205-0.249,0.364-0.276c0.149-0.026,0.283-0.032,0.414-0.037	c0.195-0.007,0.338-0.012,0.562-0.132c0.023-0.462,0.069-1.407,0.08-1.768l0.015-0.323c0.015-0.295,0.041-0.843-0.056-0.946	c-0.172-0.012-0.262,0.004-0.345,0.016c-0.276,0.043-0.799,0.117-1.115-0.447c-0.148-0.265-0.186-0.635-0.218-1.093l-0.019-0.221	c-0.048-0.424-0.111-0.685-0.181-0.97c-0.046-0.187-0.093-0.383-0.141-0.631c-0.039-0.203,0.052-0.409,0.227-0.519	c0.197-0.122,0.348-0.194,0.477-0.255c0.177-0.084,0.253-0.12,0.393-0.277c-0.034-0.217-0.357-0.777-0.819-1.319	c-0.28-0.328-0.549-0.591-0.727-0.733c-0.008,0.007-0.015,0.014-0.022,0.021c-0.186,0.173-0.677,0.628-1.145,0.243	c-0.4-0.333-1.562-1.694-1.804-2.112c-0.207-0.356-0.009-0.729,0.15-1.029c0.027-0.052,0.066-0.124,0.094-0.183	c-0.113-0.142-0.358-0.373-0.521-0.482c-0.606-0.407-1.095-0.589-1.861-0.692c0.05,0.011-0.021,0.094-0.067,0.149	c-0.106,0.125-0.239,0.281-0.42,0.391c-0.606,0.373-2.473-0.292-2.84-0.429c-0.361-0.135-0.401-0.509-0.431-0.781	c-0.016-0.141-0.047-0.433-0.123-0.498c-0.021-0.012-0.156-0.075-0.66-0.093l-0.141-0.006c-0.742-0.038-1.183-0.007-1.313,0.084	c0.031,0.001,0.028,0.136,0.025,0.239c-0.009,0.332-0.024,0.946-0.597,1.117c-0.879,0.314-1.839,0.567-2.636,0.695	c-0.446,0.061-0.699-0.312-0.944-0.682c-0.058-0.086-0.142-0.213-0.208-0.295c-0.123,0.053-0.295,0.15-0.362,0.189	c-0.469,0.258-0.728,0.388-0.986,0.518c-0.249,0.125-0.498,0.249-0.865,0.45c-0.025,0.016-0.062,0.045-0.104,0.077	c-0.074,0.057-0.156,0.118-0.238,0.17c-0.022,0.012-0.056,0.121,0.087,0.476c0.262,0.651-0.148,1.161-0.448,1.532	c-0.057,0.071-0.114,0.143-0.167,0.214c-0.906,1.244-1.428,1.541-2.157,1.209c-0.05-0.022-0.103-0.046-0.127-0.048	c-0.189-0.013-0.348-0.023-0.472-0.004c-0.324,0.426-1.387,2.315-1.605,2.786c0.055,0.091,0.222,0.247,0.326,0.345	c0.199,0.187,0.405,0.379,0.528,0.62c0.276,0.546,0.34,0.981,0.141,2.341c-0.009,0.059-0.009,0.146-0.01,0.245	C13.067,24,13.053,24.8,12.387,24.8c-0.105,0.01-0.539,0.148-0.798,0.245c-0.019,0.092-0.021,0.284,0.029,0.686	c0.045,0.352,0.034,0.676,0.024,0.961c-0.021,0.618-0.016,0.903,0.317,1.185c0.073,0.051,0.372,0.075,0.532,0.089	c0.217,0.018,0.44,0.035,0.638,0.1c0.501,0.16,0.742,0.718,0.997,1.309c0.092,0.213,0.184,0.43,0.288,0.609	c0.257,0.443,0.857,1.481,0.127,2.333l-0.106,0.117c-0.043,0.045-0.104,0.111-0.124,0.145c0.013-0.018,0.051,0.045,0.154,0.157	l1.252,1.345c0.026,0.029,0.1,0.107,0.132,0.124c-0.03-0.018,0.058-0.081,0.116-0.124l0.144-0.101	C16.422,33.773,16.749,33.559,17.19,33.559z M32.893,14.443L32.893,14.443L32.893,14.443z"></path><path fill="#010101" d="M28.869,23.353c-0.864,0-1.708-0.037-2.872-0.173c-1.331-0.155-1.838-1.584-2.328-2.965	c-0.15-0.424-0.305-0.86-0.485-1.274c-0.182-0.336-0.3-0.622-0.418-0.909c-0.106-0.261-0.213-0.521-0.38-0.829	c-0.136-0.247-0.299-1.022-0.298-1.256c0.003-0.466,0.334-0.901,0.823-1.085c0.361-0.137,0.731-0.119,1.031-0.109	c2.7,0.11,5.276,0.35,7.113,2.05l0.34,0.309c0.422,0.377,0.821,0.733,1.181,1.248c0.368,0.527,0.721,1.147,1.048,1.843	c0.047,0.1,0.102,0.2,0.155,0.301c0.259,0.482,0.58,1.082,0.275,1.729c-0.391,0.831-1.439,0.936-1.835,0.975	c-0.737,0.071-1.479,0.116-2.204,0.132C29.612,23.346,29.238,23.353,28.869,23.353z M23.656,15.745	c-0.145,0-0.282,0.011-0.394,0.053c-0.107,0.04-0.175,0.124-0.175,0.155c0.006,0.133,0.127,0.662,0.181,0.781	c0.183,0.335,0.303,0.626,0.423,0.918c0.106,0.261,0.213,0.521,0.381,0.829c0.007,0.013,0.013,0.025,0.019,0.038	c0.194,0.441,0.36,0.908,0.521,1.36c0.424,1.193,0.789,2.223,1.501,2.306c1.6,0.187,2.577,0.181,3.881,0.151	c0.701-0.015,1.417-0.058,2.129-0.128c0.591-0.058,0.927-0.19,1.028-0.405c0.084-0.178-0.046-0.443-0.252-0.829	c-0.063-0.117-0.125-0.233-0.179-0.348c-0.304-0.645-0.627-1.215-0.964-1.696c-0.293-0.419-0.633-0.724-1.026-1.075l-0.354-0.32	c-1.587-1.469-3.968-1.682-6.475-1.783C23.819,15.748,23.736,15.745,23.656,15.745z"></path><path fill="#373837" d="M20.307,28.419c0.407-0.913,1.03-1.931,1.437-2.843c0.145-0.324,0.291-0.658,0.307-1.012	c0.027-0.59-0.309-1.129-0.631-1.624c-0.75-1.15-0.857-1.315-1.607-2.465c-0.38-0.584-1.283-2.004-1.959-1.835	c-0.701,0.175-1.609,1.854-1.755,2.562c-0.189,0.916-0.134,0.768-0.339,1.68c-0.597,2.66,0.44,5.619,2.567,7.325	c0.2,0.161,0.467,0.318,0.699,0.207c0.128-0.061,0.207-0.189,0.279-0.311C19.639,29.541,19.973,28.98,20.307,28.419"></path><path fill="#373837" d="M23.986,28.351c-0.492,1.217-0.985,2.433-1.477,3.65c-0.115,0.284-0.231,0.599-0.127,0.887	c0.152,0.421,0.675,0.553,1.12,0.596c2.095,0.202,4.272-0.218,6.055-1.337c1.783-1.118,3.137-2.958,3.509-5.03	c0.039-0.219,0.062-0.464-0.066-0.645c-0.133-0.187-0.382-0.243-0.609-0.279c-1.446-0.231-2.918-0.244-4.382-0.257	c-0.797-0.007-1.62-0.009-2.355,0.299C24.918,26.543,24.337,27.368,23.986,28.351"></path><path fill="#010101" d="M18.863,30.95c-0.229,0-0.515-0.086-0.849-0.354c-2.279-1.827-3.382-4.972-2.743-7.824	c0.116-0.516,0.147-0.686,0.188-0.909c0.031-0.17,0.068-0.369,0.149-0.763c0.136-0.655,1.076-2.685,2.123-2.946	c0.932-0.231,1.761,0.912,2.469,2.001l1.638,2.511c0.315,0.485,0.747,1.148,0.711,1.921c-0.02,0.451-0.195,0.846-0.35,1.192	c-0.208,0.467-0.472,0.961-0.735,1.455c-0.251,0.472-0.503,0.942-0.701,1.389c-0.008,0.018-0.018,0.034-0.027,0.051l-1.001,1.685	c-0.083,0.141-0.224,0.378-0.495,0.507C19.141,30.913,19.014,30.95,18.863,30.95z M17.969,19.126	C17.968,19.126,17.968,19.126,17.969,19.126c-0.363,0.091-1.23,1.454-1.381,2.177c-0.078,0.382-0.114,0.576-0.145,0.741	c-0.043,0.233-0.075,0.411-0.195,0.947c-0.558,2.488,0.403,5.231,2.392,6.825c0.107,0.086,0.173,0.117,0.204,0.128	c-0.015-0.018,0.017-0.071,0.031-0.097l0.987-1.659c0.206-0.458,0.463-0.941,0.721-1.425c0.252-0.473,0.505-0.944,0.703-1.391	c0.125-0.279,0.254-0.568,0.265-0.832c0.02-0.417-0.237-0.849-0.55-1.329l-1.607-2.464C18.439,19.281,18.081,19.126,17.969,19.126z M20.307,28.419h0.01H20.307z"></path><path fill="#010101" d="M24.521,34.032c-0.354,0-0.709-0.017-1.066-0.051c-0.831-0.081-1.351-0.392-1.543-0.924	c-0.175-0.485,0.019-0.961,0.135-1.245l1.473-3.64c0.432-1.204,1.121-2.056,1.941-2.398c0.842-0.352,1.754-0.346,2.553-0.338	c1.459,0.013,2.967,0.025,4.457,0.263c0.217,0.035,0.669,0.107,0.937,0.482c0.238,0.336,0.206,0.725,0.151,1.025	c-0.383,2.131-1.779,4.137-3.735,5.363C28.298,33.526,26.447,34.032,24.521,34.032z M27.667,26.435c-0.632,0-1.267,0.03-1.82,0.262	c-0.553,0.231-1.059,0.896-1.39,1.822c-0.002,0.007-0.005,0.014-0.007,0.02l-1.478,3.65c-0.062,0.152-0.166,0.406-0.121,0.53	c0.047,0.129,0.308,0.229,0.698,0.267c2.088,0.208,4.123-0.246,5.741-1.263c1.721-1.079,2.948-2.834,3.282-4.694	c0.038-0.206,0.02-0.262,0.016-0.271c-0.011-0.006-0.069-0.036-0.277-0.069c-1.415-0.226-2.886-0.238-4.307-0.251	C27.893,26.436,27.78,26.435,27.667,26.435z M23.986,28.351h0.01H23.986z"></path><path fill="#010101" d="M24.205,25.139c-0.056,0-0.111-0.006-0.167-0.02c-0.336-0.083-0.664-0.414-0.587-1.097	c0.022-0.199,0.16-0.357,0.338-0.418c0.015-0.058,0.035-0.115,0.062-0.169c0.063-0.127,0.178-0.221,0.315-0.258	c0.135-0.038,0.282-0.015,0.401,0.062c0.254,0.163,0.326,0.427,0.361,0.553c0.047,0.17,0.12,0.43,0.049,0.714	C24.883,24.883,24.556,25.139,24.205,25.139z"></path>
</svg>